<svg width="412" height="779" viewBox="0 0 412 779" fill="none" xmlns="http://www.w3.org/2000/svg">
<path fill-rule="evenodd" clip-rule="evenodd" d="M434 6H-22V5H434V6Z" fill="#FCD0A9" fill-opacity="0.1"/>
<path fill-rule="evenodd" clip-rule="evenodd" d="M434 22H-22V21H434V22Z" fill="#FCD0A9" fill-opacity="0.1"/>
<path fill-rule="evenodd" clip-rule="evenodd" d="M434 38H-22V37H434V38Z" fill="#FCD0A9" fill-opacity="0.1"/>
<path fill-rule="evenodd" clip-rule="evenodd" d="M434 54H-22V53H434V54Z" fill="#FCD0A9" fill-opacity="0.1"/>
<path fill-rule="evenodd" clip-rule="evenodd" d="M434 70H-22V69H434V70Z" fill="#FCD0A9" fill-opacity="0.1"/>
<path fill-rule="evenodd" clip-rule="evenodd" d="M434 86H-22V85H434V86Z" fill="#FCD0A9" fill-opacity="0.1"/>
<path fill-rule="evenodd" clip-rule="evenodd" d="M434 102H-22V101H434V102Z" fill="#FCD0A9" fill-opacity="0.1"/>
<path fill-rule="evenodd" clip-rule="evenodd" d="M434 118H-22V117H434V118Z" fill="#FCD0A9" fill-opacity="0.1"/>
<path fill-rule="evenodd" clip-rule="evenodd" d="M434 134H-22V133H434V134Z" fill="#FCD0A9" fill-opacity="0.1"/>
<path fill-rule="evenodd" clip-rule="evenodd" d="M434 150H-22V149H434V150Z" fill="#FCD0A9" fill-opacity="0.1"/>
<path fill-rule="evenodd" clip-rule="evenodd" d="M434 166H-22V165H434V166Z" fill="#FCD0A9" fill-opacity="0.1"/>
<path fill-rule="evenodd" clip-rule="evenodd" d="M434 182H-22V181H434V182Z" fill="#FCD0A9" fill-opacity="0.1"/>
<path fill-rule="evenodd" clip-rule="evenodd" d="M434 198H-22V197H434V198Z" fill="#FCD0A9" fill-opacity="0.1"/>
<path fill-rule="evenodd" clip-rule="evenodd" d="M434 214H-22V213H434V214Z" fill="#FCD0A9" fill-opacity="0.1"/>
<path fill-rule="evenodd" clip-rule="evenodd" d="M434 230H-22V229H434V230Z" fill="#FCD0A9" fill-opacity="0.1"/>
<path fill-rule="evenodd" clip-rule="evenodd" d="M434 246H-22V245H434V246Z" fill="#FCD0A9" fill-opacity="0.1"/>
<path fill-rule="evenodd" clip-rule="evenodd" d="M434 262H-22V261H434V262Z" fill="#FCD0A9" fill-opacity="0.1"/>
<path fill-rule="evenodd" clip-rule="evenodd" d="M434 278H-22V277H434V278Z" fill="#FCD0A9" fill-opacity="0.1"/>
<path fill-rule="evenodd" clip-rule="evenodd" d="M434 294H-22V293H434V294Z" fill="#FCD0A9" fill-opacity="0.1"/>
<path fill-rule="evenodd" clip-rule="evenodd" d="M434 310H-22V309H434V310Z" fill="#FCD0A9" fill-opacity="0.1"/>
<path fill-rule="evenodd" clip-rule="evenodd" d="M434 326H-22V325H434V326Z" fill="#FCD0A9" fill-opacity="0.1"/>
<path fill-rule="evenodd" clip-rule="evenodd" d="M434 342H-22V341H434V342Z" fill="#FCD0A9" fill-opacity="0.1"/>
<path fill-rule="evenodd" clip-rule="evenodd" d="M434 358H-22V357H434V358Z" fill="#FCD0A9" fill-opacity="0.1"/>
<path fill-rule="evenodd" clip-rule="evenodd" d="M434 374H-22V373H434V374Z" fill="#FCD0A9" fill-opacity="0.1"/>
<path fill-rule="evenodd" clip-rule="evenodd" d="M434 390H-22V389H434V390Z" fill="#FCD0A9" fill-opacity="0.1"/>
<path fill-rule="evenodd" clip-rule="evenodd" d="M434 406H-22V405H434V406Z" fill="#FCD0A9" fill-opacity="0.1"/>
<path fill-rule="evenodd" clip-rule="evenodd" d="M434 422H-22V421H434V422Z" fill="#FCD0A9" fill-opacity="0.1"/>
<path fill-rule="evenodd" clip-rule="evenodd" d="M434 438H-22V437H434V438Z" fill="#FCD0A9" fill-opacity="0.1"/>
<path fill-rule="evenodd" clip-rule="evenodd" d="M434 454H-22V453H434V454Z" fill="#FCD0A9" fill-opacity="0.1"/>
<path fill-rule="evenodd" clip-rule="evenodd" d="M434 470H-22V469H434V470Z" fill="#FCD0A9" fill-opacity="0.1"/>
<path fill-rule="evenodd" clip-rule="evenodd" d="M434 486H-22V485H434V486Z" fill="#FCD0A9" fill-opacity="0.1"/>
<path fill-rule="evenodd" clip-rule="evenodd" d="M434 502H-22V501H434V502Z" fill="#FCD0A9" fill-opacity="0.1"/>
<path fill-rule="evenodd" clip-rule="evenodd" d="M434 518H-22V517H434V518Z" fill="#FCD0A9" fill-opacity="0.1"/>
<path fill-rule="evenodd" clip-rule="evenodd" d="M434 534H-22V533H434V534Z" fill="#FCD0A9" fill-opacity="0.1"/>
<path fill-rule="evenodd" clip-rule="evenodd" d="M434 550H-22V549H434V550Z" fill="#FCD0A9" fill-opacity="0.1"/>
<path fill-rule="evenodd" clip-rule="evenodd" d="M434 566H-22V565H434V566Z" fill="#FCD0A9" fill-opacity="0.1"/>
<path fill-rule="evenodd" clip-rule="evenodd" d="M434 582H-22V581H434V582Z" fill="#FCD0A9" fill-opacity="0.1"/>
<path fill-rule="evenodd" clip-rule="evenodd" d="M434 598H-22V597H434V598Z" fill="#FCD0A9" fill-opacity="0.1"/>
<path fill-rule="evenodd" clip-rule="evenodd" d="M434 614H-22V613H434V614Z" fill="#FCD0A9" fill-opacity="0.1"/>
<path fill-rule="evenodd" clip-rule="evenodd" d="M434 630H-22V629H434V630Z" fill="#FCD0A9" fill-opacity="0.1"/>
<path fill-rule="evenodd" clip-rule="evenodd" d="M434 646H-22V645H434V646Z" fill="#FCD0A9" fill-opacity="0.1"/>
<path fill-rule="evenodd" clip-rule="evenodd" d="M434 662H-22V661H434V662Z" fill="#FCD0A9" fill-opacity="0.1"/>
<path fill-rule="evenodd" clip-rule="evenodd" d="M434 678H-22V677H434V678Z" fill="#FCD0A9" fill-opacity="0.1"/>
<path fill-rule="evenodd" clip-rule="evenodd" d="M434 694H-22V693H434V694Z" fill="#FCD0A9" fill-opacity="0.1"/>
<path fill-rule="evenodd" clip-rule="evenodd" d="M434 710H-22V709H434V710Z" fill="#FCD0A9" fill-opacity="0.1"/>
<path fill-rule="evenodd" clip-rule="evenodd" d="M434 726H-22V725H434V726Z" fill="#FCD0A9" fill-opacity="0.1"/>
<path fill-rule="evenodd" clip-rule="evenodd" d="M434 742H-22V741H434V742Z" fill="#FCD0A9" fill-opacity="0.1"/>
<path fill-rule="evenodd" clip-rule="evenodd" d="M434 758H-22V757H434V758Z" fill="#FCD0A9" fill-opacity="0.1"/>
<path fill-rule="evenodd" clip-rule="evenodd" d="M434 774H-22V773H434V774Z" fill="#FCD0A9" fill-opacity="0.1"/>
<path fill-rule="evenodd" clip-rule="evenodd" d="M0 779V0H1V779H0Z" fill="#FCD0A9" fill-opacity="0.1"/>
<path fill-rule="evenodd" clip-rule="evenodd" d="M15 779V0H16V779H15Z" fill="#FCD0A9" fill-opacity="0.1"/>
<path fill-rule="evenodd" clip-rule="evenodd" d="M30 779V0H31V779H30Z" fill="#FCD0A9" fill-opacity="0.1"/>
<path fill-rule="evenodd" clip-rule="evenodd" d="M45 779V0H46V779H45Z" fill="#FCD0A9" fill-opacity="0.1"/>
<path fill-rule="evenodd" clip-rule="evenodd" d="M60 779V0H61V779H60Z" fill="#FCD0A9" fill-opacity="0.1"/>
<path fill-rule="evenodd" clip-rule="evenodd" d="M75 779V0H76V779H75Z" fill="#FCD0A9" fill-opacity="0.1"/>
<path fill-rule="evenodd" clip-rule="evenodd" d="M90 779V0H91V779H90Z" fill="#FCD0A9" fill-opacity="0.1"/>
<path fill-rule="evenodd" clip-rule="evenodd" d="M105 779V0H106V779H105Z" fill="#FCD0A9" fill-opacity="0.1"/>
<path fill-rule="evenodd" clip-rule="evenodd" d="M120 779V0H121V779H120Z" fill="#FCD0A9" fill-opacity="0.1"/>
<path fill-rule="evenodd" clip-rule="evenodd" d="M135 779V0H136V779H135Z" fill="#FCD0A9" fill-opacity="0.1"/>
<path fill-rule="evenodd" clip-rule="evenodd" d="M150 779V0H151V779H150Z" fill="#FCD0A9" fill-opacity="0.1"/>
<path fill-rule="evenodd" clip-rule="evenodd" d="M165 779V0H166V779H165Z" fill="#FCD0A9" fill-opacity="0.1"/>
<path fill-rule="evenodd" clip-rule="evenodd" d="M180 779V0H181V779H180Z" fill="#FCD0A9" fill-opacity="0.1"/>
<path fill-rule="evenodd" clip-rule="evenodd" d="M195 779V0H196V779H195Z" fill="#FCD0A9" fill-opacity="0.1"/>
<path fill-rule="evenodd" clip-rule="evenodd" d="M210 779V0H211V779H210Z" fill="#FCD0A9" fill-opacity="0.1"/>
<path fill-rule="evenodd" clip-rule="evenodd" d="M225 779V0H226V779H225Z" fill="#FCD0A9" fill-opacity="0.1"/>
<path fill-rule="evenodd" clip-rule="evenodd" d="M240 779V0H241V779H240Z" fill="#FCD0A9" fill-opacity="0.1"/>
<path fill-rule="evenodd" clip-rule="evenodd" d="M255 779V0H256V779H255Z" fill="#FCD0A9" fill-opacity="0.1"/>
<path fill-rule="evenodd" clip-rule="evenodd" d="M270 779V0H271V779H270Z" fill="#FCD0A9" fill-opacity="0.1"/>
<path fill-rule="evenodd" clip-rule="evenodd" d="M285 779V0H286V779H285Z" fill="#FCD0A9" fill-opacity="0.1"/>
<path fill-rule="evenodd" clip-rule="evenodd" d="M300 779V0H301V779H300Z" fill="#FCD0A9" fill-opacity="0.1"/>
<path fill-rule="evenodd" clip-rule="evenodd" d="M315 779V0H316V779H315Z" fill="#FCD0A9" fill-opacity="0.1"/>
<path fill-rule="evenodd" clip-rule="evenodd" d="M330 779V0H331V779H330Z" fill="#FCD0A9" fill-opacity="0.1"/>
<path fill-rule="evenodd" clip-rule="evenodd" d="M345 779V0H346V779H345Z" fill="#FCD0A9" fill-opacity="0.1"/>
<path fill-rule="evenodd" clip-rule="evenodd" d="M360 779V0H361V779H360Z" fill="#FCD0A9" fill-opacity="0.1"/>
<path fill-rule="evenodd" clip-rule="evenodd" d="M375 779V0H376V779H375Z" fill="#FCD0A9" fill-opacity="0.1"/>
<path fill-rule="evenodd" clip-rule="evenodd" d="M390 779V0H391V779H390Z" fill="#FCD0A9" fill-opacity="0.1"/>
<path fill-rule="evenodd" clip-rule="evenodd" d="M405 779V0H406V779H405Z" fill="#FCD0A9" fill-opacity="0.1"/>
<path fill-rule="evenodd" clip-rule="evenodd" d="M420 779V0H421V779H420Z" fill="#FCD0A9" fill-opacity="0.1"/>
</svg>
