<svg width="412" height="765" viewBox="0 0 412 765" fill="none" xmlns="http://www.w3.org/2000/svg">
<path fill-rule="evenodd" clip-rule="evenodd" d="M437 6H-19V5H437V6Z" fill="url(#paint0_linear_1_372)" fill-opacity="0.8"/>
<path fill-rule="evenodd" clip-rule="evenodd" d="M437 22H-19V21H437V22Z" fill="url(#paint1_linear_1_372)" fill-opacity="0.8"/>
<path fill-rule="evenodd" clip-rule="evenodd" d="M437 38H-19V37H437V38Z" fill="url(#paint2_linear_1_372)" fill-opacity="0.8"/>
<path fill-rule="evenodd" clip-rule="evenodd" d="M437 54H-19V53H437V54Z" fill="url(#paint3_linear_1_372)" fill-opacity="0.8"/>
<path fill-rule="evenodd" clip-rule="evenodd" d="M437 70H-19V69H437V70Z" fill="url(#paint4_linear_1_372)" fill-opacity="0.8"/>
<path fill-rule="evenodd" clip-rule="evenodd" d="M437 86H-19V85H437V86Z" fill="url(#paint5_linear_1_372)" fill-opacity="0.8"/>
<path fill-rule="evenodd" clip-rule="evenodd" d="M437 102H-19V101H437V102Z" fill="url(#paint6_linear_1_372)" fill-opacity="0.8"/>
<path fill-rule="evenodd" clip-rule="evenodd" d="M437 118H-19V117H437V118Z" fill="url(#paint7_linear_1_372)" fill-opacity="0.8"/>
<path fill-rule="evenodd" clip-rule="evenodd" d="M437 134H-19V133H437V134Z" fill="url(#paint8_linear_1_372)" fill-opacity="0.8"/>
<path fill-rule="evenodd" clip-rule="evenodd" d="M437 150H-19V149H437V150Z" fill="url(#paint9_linear_1_372)" fill-opacity="0.8"/>
<path fill-rule="evenodd" clip-rule="evenodd" d="M437 166H-19V165H437V166Z" fill="url(#paint10_linear_1_372)" fill-opacity="0.8"/>
<path fill-rule="evenodd" clip-rule="evenodd" d="M437 182H-19V181H437V182Z" fill="url(#paint11_linear_1_372)" fill-opacity="0.8"/>
<path fill-rule="evenodd" clip-rule="evenodd" d="M437 198H-19V197H437V198Z" fill="url(#paint12_linear_1_372)" fill-opacity="0.8"/>
<path fill-rule="evenodd" clip-rule="evenodd" d="M437 214H-19V213H437V214Z" fill="url(#paint13_linear_1_372)" fill-opacity="0.8"/>
<path fill-rule="evenodd" clip-rule="evenodd" d="M437 230H-19V229H437V230Z" fill="url(#paint14_linear_1_372)" fill-opacity="0.8"/>
<path fill-rule="evenodd" clip-rule="evenodd" d="M437 246H-19V245H437V246Z" fill="url(#paint15_linear_1_372)" fill-opacity="0.8"/>
<path fill-rule="evenodd" clip-rule="evenodd" d="M437 262H-19V261H437V262Z" fill="url(#paint16_linear_1_372)" fill-opacity="0.8"/>
<path fill-rule="evenodd" clip-rule="evenodd" d="M437 278H-19V277H437V278Z" fill="url(#paint17_linear_1_372)" fill-opacity="0.8"/>
<path fill-rule="evenodd" clip-rule="evenodd" d="M437 294H-19V293H437V294Z" fill="url(#paint18_linear_1_372)" fill-opacity="0.8"/>
<path fill-rule="evenodd" clip-rule="evenodd" d="M437 310H-19V309H437V310Z" fill="url(#paint19_linear_1_372)" fill-opacity="0.8"/>
<path fill-rule="evenodd" clip-rule="evenodd" d="M437 326H-19V325H437V326Z" fill="url(#paint20_linear_1_372)" fill-opacity="0.8"/>
<path fill-rule="evenodd" clip-rule="evenodd" d="M437 342H-19V341H437V342Z" fill="url(#paint21_linear_1_372)" fill-opacity="0.8"/>
<path fill-rule="evenodd" clip-rule="evenodd" d="M437 358H-19V357H437V358Z" fill="url(#paint22_linear_1_372)" fill-opacity="0.8"/>
<path fill-rule="evenodd" clip-rule="evenodd" d="M437 374H-19V373H437V374Z" fill="url(#paint23_linear_1_372)" fill-opacity="0.8"/>
<path fill-rule="evenodd" clip-rule="evenodd" d="M437 390H-19V389H437V390Z" fill="url(#paint24_linear_1_372)" fill-opacity="0.8"/>
<path fill-rule="evenodd" clip-rule="evenodd" d="M437 406H-19V405H437V406Z" fill="url(#paint25_linear_1_372)" fill-opacity="0.8"/>
<path fill-rule="evenodd" clip-rule="evenodd" d="M437 422H-19V421H437V422Z" fill="url(#paint26_linear_1_372)" fill-opacity="0.8"/>
<path fill-rule="evenodd" clip-rule="evenodd" d="M437 438H-19V437H437V438Z" fill="url(#paint27_linear_1_372)" fill-opacity="0.8"/>
<path fill-rule="evenodd" clip-rule="evenodd" d="M437 454H-19V453H437V454Z" fill="url(#paint28_linear_1_372)" fill-opacity="0.8"/>
<path fill-rule="evenodd" clip-rule="evenodd" d="M437 470H-19V469H437V470Z" fill="url(#paint29_linear_1_372)" fill-opacity="0.8"/>
<path fill-rule="evenodd" clip-rule="evenodd" d="M437 486H-19V485H437V486Z" fill="url(#paint30_linear_1_372)" fill-opacity="0.8"/>
<path fill-rule="evenodd" clip-rule="evenodd" d="M437 502H-19V501H437V502Z" fill="url(#paint31_linear_1_372)" fill-opacity="0.8"/>
<path fill-rule="evenodd" clip-rule="evenodd" d="M437 518H-19V517H437V518Z" fill="url(#paint32_linear_1_372)" fill-opacity="0.8"/>
<path fill-rule="evenodd" clip-rule="evenodd" d="M437 534H-19V533H437V534Z" fill="url(#paint33_linear_1_372)" fill-opacity="0.8"/>
<path fill-rule="evenodd" clip-rule="evenodd" d="M437 550H-19V549H437V550Z" fill="url(#paint34_linear_1_372)" fill-opacity="0.8"/>
<path fill-rule="evenodd" clip-rule="evenodd" d="M437 566H-19V565H437V566Z" fill="url(#paint35_linear_1_372)" fill-opacity="0.8"/>
<path fill-rule="evenodd" clip-rule="evenodd" d="M437 582H-19V581H437V582Z" fill="url(#paint36_linear_1_372)" fill-opacity="0.8"/>
<path fill-rule="evenodd" clip-rule="evenodd" d="M437 598H-19V597H437V598Z" fill="url(#paint37_linear_1_372)" fill-opacity="0.8"/>
<path fill-rule="evenodd" clip-rule="evenodd" d="M437 614H-19V613H437V614Z" fill="url(#paint38_linear_1_372)" fill-opacity="0.8"/>
<path fill-rule="evenodd" clip-rule="evenodd" d="M437 630H-19V629H437V630Z" fill="url(#paint39_linear_1_372)" fill-opacity="0.8"/>
<path fill-rule="evenodd" clip-rule="evenodd" d="M437 646H-19V645H437V646Z" fill="url(#paint40_linear_1_372)" fill-opacity="0.8"/>
<path fill-rule="evenodd" clip-rule="evenodd" d="M437 662H-19V661H437V662Z" fill="url(#paint41_linear_1_372)" fill-opacity="0.8"/>
<path fill-rule="evenodd" clip-rule="evenodd" d="M437 678H-19V677H437V678Z" fill="url(#paint42_linear_1_372)" fill-opacity="0.8"/>
<path fill-rule="evenodd" clip-rule="evenodd" d="M437 694H-19V693H437V694Z" fill="url(#paint43_linear_1_372)" fill-opacity="0.8"/>
<path fill-rule="evenodd" clip-rule="evenodd" d="M437 710H-19V709H437V710Z" fill="url(#paint44_linear_1_372)" fill-opacity="0.8"/>
<path fill-rule="evenodd" clip-rule="evenodd" d="M437 726H-19V725H437V726Z" fill="url(#paint45_linear_1_372)" fill-opacity="0.8"/>
<path fill-rule="evenodd" clip-rule="evenodd" d="M437 742H-19V741H437V742Z" fill="url(#paint46_linear_1_372)" fill-opacity="0.8"/>
<path fill-rule="evenodd" clip-rule="evenodd" d="M437 758H-19V757H437V758Z" fill="url(#paint47_linear_1_372)" fill-opacity="0.8"/>
<path fill-rule="evenodd" clip-rule="evenodd" d="M437 774H-19V773H437V774Z" fill="url(#paint48_linear_1_372)" fill-opacity="0.8"/>
<path fill-rule="evenodd" clip-rule="evenodd" d="M3 779V0H4V779H3Z" fill="url(#paint49_linear_1_372)" fill-opacity="0.8"/>
<path fill-rule="evenodd" clip-rule="evenodd" d="M18 779V0H19V779H18Z" fill="url(#paint50_linear_1_372)" fill-opacity="0.8"/>
<path fill-rule="evenodd" clip-rule="evenodd" d="M33 779V0H34V779H33Z" fill="url(#paint51_linear_1_372)" fill-opacity="0.8"/>
<path fill-rule="evenodd" clip-rule="evenodd" d="M48 779V0H49V779H48Z" fill="url(#paint52_linear_1_372)" fill-opacity="0.8"/>
<path fill-rule="evenodd" clip-rule="evenodd" d="M63 779V0H64V779H63Z" fill="url(#paint53_linear_1_372)" fill-opacity="0.8"/>
<path fill-rule="evenodd" clip-rule="evenodd" d="M78 779V0H79V779H78Z" fill="url(#paint54_linear_1_372)" fill-opacity="0.8"/>
<path fill-rule="evenodd" clip-rule="evenodd" d="M93 779V0H94V779H93Z" fill="url(#paint55_linear_1_372)" fill-opacity="0.8"/>
<path fill-rule="evenodd" clip-rule="evenodd" d="M108 779V0H109V779H108Z" fill="url(#paint56_linear_1_372)" fill-opacity="0.8"/>
<path fill-rule="evenodd" clip-rule="evenodd" d="M123 779V0H124V779H123Z" fill="url(#paint57_linear_1_372)" fill-opacity="0.8"/>
<path fill-rule="evenodd" clip-rule="evenodd" d="M138 779V0H139V779H138Z" fill="url(#paint58_linear_1_372)" fill-opacity="0.8"/>
<path fill-rule="evenodd" clip-rule="evenodd" d="M153 779V0H154V779H153Z" fill="url(#paint59_linear_1_372)" fill-opacity="0.8"/>
<path fill-rule="evenodd" clip-rule="evenodd" d="M168 779V0H169V779H168Z" fill="url(#paint60_linear_1_372)" fill-opacity="0.8"/>
<path fill-rule="evenodd" clip-rule="evenodd" d="M183 779V0H184V779H183Z" fill="url(#paint61_linear_1_372)" fill-opacity="0.8"/>
<path fill-rule="evenodd" clip-rule="evenodd" d="M198 779V0H199V779H198Z" fill="url(#paint62_linear_1_372)" fill-opacity="0.8"/>
<path fill-rule="evenodd" clip-rule="evenodd" d="M213 779V0H214V779H213Z" fill="url(#paint63_linear_1_372)" fill-opacity="0.8"/>
<path fill-rule="evenodd" clip-rule="evenodd" d="M228 779V0H229V779H228Z" fill="url(#paint64_linear_1_372)" fill-opacity="0.8"/>
<path fill-rule="evenodd" clip-rule="evenodd" d="M243 779V0H244V779H243Z" fill="url(#paint65_linear_1_372)" fill-opacity="0.8"/>
<path fill-rule="evenodd" clip-rule="evenodd" d="M258 779V0H259V779H258Z" fill="url(#paint66_linear_1_372)" fill-opacity="0.8"/>
<path fill-rule="evenodd" clip-rule="evenodd" d="M273 779V0H274V779H273Z" fill="url(#paint67_linear_1_372)" fill-opacity="0.8"/>
<path fill-rule="evenodd" clip-rule="evenodd" d="M288 779V0H289V779H288Z" fill="url(#paint68_linear_1_372)" fill-opacity="0.8"/>
<path fill-rule="evenodd" clip-rule="evenodd" d="M303 779V0H304V779H303Z" fill="url(#paint69_linear_1_372)" fill-opacity="0.8"/>
<path fill-rule="evenodd" clip-rule="evenodd" d="M318 779V0H319V779H318Z" fill="url(#paint70_linear_1_372)" fill-opacity="0.8"/>
<path fill-rule="evenodd" clip-rule="evenodd" d="M333 779V0H334V779H333Z" fill="url(#paint71_linear_1_372)" fill-opacity="0.8"/>
<path fill-rule="evenodd" clip-rule="evenodd" d="M348 779V0H349V779H348Z" fill="url(#paint72_linear_1_372)" fill-opacity="0.8"/>
<path fill-rule="evenodd" clip-rule="evenodd" d="M363 779V0H364V779H363Z" fill="url(#paint73_linear_1_372)" fill-opacity="0.8"/>
<path fill-rule="evenodd" clip-rule="evenodd" d="M378 779V0H379V779H378Z" fill="url(#paint74_linear_1_372)" fill-opacity="0.8"/>
<path fill-rule="evenodd" clip-rule="evenodd" d="M393 779V0H394V779H393Z" fill="url(#paint75_linear_1_372)" fill-opacity="0.8"/>
<path fill-rule="evenodd" clip-rule="evenodd" d="M408 779V0H409V779H408Z" fill="url(#paint76_linear_1_372)" fill-opacity="0.8"/>
<path fill-rule="evenodd" clip-rule="evenodd" d="M423 779V0H424V779H423Z" fill="url(#paint77_linear_1_372)" fill-opacity="0.8"/>
<defs>
<linearGradient id="paint0_linear_1_372" x1="209" y1="779" x2="209" y2="-17" gradientUnits="userSpaceOnUse">
<stop stop-color="#FF9C72"/>
<stop offset="1" stop-color="#FF6320" stop-opacity="0"/>
</linearGradient>
<linearGradient id="paint1_linear_1_372" x1="209" y1="779" x2="209" y2="-17" gradientUnits="userSpaceOnUse">
<stop stop-color="#FF9C72"/>
<stop offset="1" stop-color="#FF6320" stop-opacity="0"/>
</linearGradient>
<linearGradient id="paint2_linear_1_372" x1="209" y1="779" x2="209" y2="-17" gradientUnits="userSpaceOnUse">
<stop stop-color="#FF9C72"/>
<stop offset="1" stop-color="#FF6320" stop-opacity="0"/>
</linearGradient>
<linearGradient id="paint3_linear_1_372" x1="209" y1="779" x2="209" y2="-17" gradientUnits="userSpaceOnUse">
<stop stop-color="#FF9C72"/>
<stop offset="1" stop-color="#FF6320" stop-opacity="0"/>
</linearGradient>
<linearGradient id="paint4_linear_1_372" x1="209" y1="779" x2="209" y2="-17" gradientUnits="userSpaceOnUse">
<stop stop-color="#FF9C72"/>
<stop offset="1" stop-color="#FF6320" stop-opacity="0"/>
</linearGradient>
<linearGradient id="paint5_linear_1_372" x1="209" y1="779" x2="209" y2="-17" gradientUnits="userSpaceOnUse">
<stop stop-color="#FF9C72"/>
<stop offset="1" stop-color="#FF6320" stop-opacity="0"/>
</linearGradient>
<linearGradient id="paint6_linear_1_372" x1="209" y1="779" x2="209" y2="-17" gradientUnits="userSpaceOnUse">
<stop stop-color="#FF9C72"/>
<stop offset="1" stop-color="#FF6320" stop-opacity="0"/>
</linearGradient>
<linearGradient id="paint7_linear_1_372" x1="209" y1="779" x2="209" y2="-17" gradientUnits="userSpaceOnUse">
<stop stop-color="#FF9C72"/>
<stop offset="1" stop-color="#FF6320" stop-opacity="0"/>
</linearGradient>
<linearGradient id="paint8_linear_1_372" x1="209" y1="779" x2="209" y2="-17" gradientUnits="userSpaceOnUse">
<stop stop-color="#FF9C72"/>
<stop offset="1" stop-color="#FF6320" stop-opacity="0"/>
</linearGradient>
<linearGradient id="paint9_linear_1_372" x1="209" y1="779" x2="209" y2="-17" gradientUnits="userSpaceOnUse">
<stop stop-color="#FF9C72"/>
<stop offset="1" stop-color="#FF6320" stop-opacity="0"/>
</linearGradient>
<linearGradient id="paint10_linear_1_372" x1="209" y1="779" x2="209" y2="-17" gradientUnits="userSpaceOnUse">
<stop stop-color="#FF9C72"/>
<stop offset="1" stop-color="#FF6320" stop-opacity="0"/>
</linearGradient>
<linearGradient id="paint11_linear_1_372" x1="209" y1="779" x2="209" y2="-17" gradientUnits="userSpaceOnUse">
<stop stop-color="#FF9C72"/>
<stop offset="1" stop-color="#FF6320" stop-opacity="0"/>
</linearGradient>
<linearGradient id="paint12_linear_1_372" x1="209" y1="779" x2="209" y2="-17" gradientUnits="userSpaceOnUse">
<stop stop-color="#FF9C72"/>
<stop offset="1" stop-color="#FF6320" stop-opacity="0"/>
</linearGradient>
<linearGradient id="paint13_linear_1_372" x1="209" y1="779" x2="209" y2="-17" gradientUnits="userSpaceOnUse">
<stop stop-color="#FF9C72"/>
<stop offset="1" stop-color="#FF6320" stop-opacity="0"/>
</linearGradient>
<linearGradient id="paint14_linear_1_372" x1="209" y1="779" x2="209" y2="-17" gradientUnits="userSpaceOnUse">
<stop stop-color="#FF9C72"/>
<stop offset="1" stop-color="#FF6320" stop-opacity="0"/>
</linearGradient>
<linearGradient id="paint15_linear_1_372" x1="209" y1="779" x2="209" y2="-17" gradientUnits="userSpaceOnUse">
<stop stop-color="#FF9C72"/>
<stop offset="1" stop-color="#FF6320" stop-opacity="0"/>
</linearGradient>
<linearGradient id="paint16_linear_1_372" x1="209" y1="779" x2="209" y2="-17" gradientUnits="userSpaceOnUse">
<stop stop-color="#FF9C72"/>
<stop offset="1" stop-color="#FF6320" stop-opacity="0"/>
</linearGradient>
<linearGradient id="paint17_linear_1_372" x1="209" y1="779" x2="209" y2="-17" gradientUnits="userSpaceOnUse">
<stop stop-color="#FF9C72"/>
<stop offset="1" stop-color="#FF6320" stop-opacity="0"/>
</linearGradient>
<linearGradient id="paint18_linear_1_372" x1="209" y1="779" x2="209" y2="-17" gradientUnits="userSpaceOnUse">
<stop stop-color="#FF9C72"/>
<stop offset="1" stop-color="#FF6320" stop-opacity="0"/>
</linearGradient>
<linearGradient id="paint19_linear_1_372" x1="209" y1="779" x2="209" y2="-17" gradientUnits="userSpaceOnUse">
<stop stop-color="#FF9C72"/>
<stop offset="1" stop-color="#FF6320" stop-opacity="0"/>
</linearGradient>
<linearGradient id="paint20_linear_1_372" x1="209" y1="779" x2="209" y2="-17" gradientUnits="userSpaceOnUse">
<stop stop-color="#FF9C72"/>
<stop offset="1" stop-color="#FF6320" stop-opacity="0"/>
</linearGradient>
<linearGradient id="paint21_linear_1_372" x1="209" y1="779" x2="209" y2="-17" gradientUnits="userSpaceOnUse">
<stop stop-color="#FF9C72"/>
<stop offset="1" stop-color="#FF6320" stop-opacity="0"/>
</linearGradient>
<linearGradient id="paint22_linear_1_372" x1="209" y1="779" x2="209" y2="-17" gradientUnits="userSpaceOnUse">
<stop stop-color="#FF9C72"/>
<stop offset="1" stop-color="#FF6320" stop-opacity="0"/>
</linearGradient>
<linearGradient id="paint23_linear_1_372" x1="209" y1="779" x2="209" y2="-17" gradientUnits="userSpaceOnUse">
<stop stop-color="#FF9C72"/>
<stop offset="1" stop-color="#FF6320" stop-opacity="0"/>
</linearGradient>
<linearGradient id="paint24_linear_1_372" x1="209" y1="779" x2="209" y2="-17" gradientUnits="userSpaceOnUse">
<stop stop-color="#FF9C72"/>
<stop offset="1" stop-color="#FF6320" stop-opacity="0"/>
</linearGradient>
<linearGradient id="paint25_linear_1_372" x1="209" y1="779" x2="209" y2="-17" gradientUnits="userSpaceOnUse">
<stop stop-color="#FF9C72"/>
<stop offset="1" stop-color="#FF6320" stop-opacity="0"/>
</linearGradient>
<linearGradient id="paint26_linear_1_372" x1="209" y1="779" x2="209" y2="-17" gradientUnits="userSpaceOnUse">
<stop stop-color="#FF9C72"/>
<stop offset="1" stop-color="#FF6320" stop-opacity="0"/>
</linearGradient>
<linearGradient id="paint27_linear_1_372" x1="209" y1="779" x2="209" y2="-17" gradientUnits="userSpaceOnUse">
<stop stop-color="#FF9C72"/>
<stop offset="1" stop-color="#FF6320" stop-opacity="0"/>
</linearGradient>
<linearGradient id="paint28_linear_1_372" x1="209" y1="779" x2="209" y2="-17" gradientUnits="userSpaceOnUse">
<stop stop-color="#FF9C72"/>
<stop offset="1" stop-color="#FF6320" stop-opacity="0"/>
</linearGradient>
<linearGradient id="paint29_linear_1_372" x1="209" y1="779" x2="209" y2="-17" gradientUnits="userSpaceOnUse">
<stop stop-color="#FF9C72"/>
<stop offset="1" stop-color="#FF6320" stop-opacity="0"/>
</linearGradient>
<linearGradient id="paint30_linear_1_372" x1="209" y1="779" x2="209" y2="-17" gradientUnits="userSpaceOnUse">
<stop stop-color="#FF9C72"/>
<stop offset="1" stop-color="#FF6320" stop-opacity="0"/>
</linearGradient>
<linearGradient id="paint31_linear_1_372" x1="209" y1="779" x2="209" y2="-17" gradientUnits="userSpaceOnUse">
<stop stop-color="#FF9C72"/>
<stop offset="1" stop-color="#FF6320" stop-opacity="0"/>
</linearGradient>
<linearGradient id="paint32_linear_1_372" x1="209" y1="779" x2="209" y2="-17" gradientUnits="userSpaceOnUse">
<stop stop-color="#FF9C72"/>
<stop offset="1" stop-color="#FF6320" stop-opacity="0"/>
</linearGradient>
<linearGradient id="paint33_linear_1_372" x1="209" y1="779" x2="209" y2="-17" gradientUnits="userSpaceOnUse">
<stop stop-color="#FF9C72"/>
<stop offset="1" stop-color="#FF6320" stop-opacity="0"/>
</linearGradient>
<linearGradient id="paint34_linear_1_372" x1="209" y1="779" x2="209" y2="-17" gradientUnits="userSpaceOnUse">
<stop stop-color="#FF9C72"/>
<stop offset="1" stop-color="#FF6320" stop-opacity="0"/>
</linearGradient>
<linearGradient id="paint35_linear_1_372" x1="209" y1="779" x2="209" y2="-17" gradientUnits="userSpaceOnUse">
<stop stop-color="#FF9C72"/>
<stop offset="1" stop-color="#FF6320" stop-opacity="0"/>
</linearGradient>
<linearGradient id="paint36_linear_1_372" x1="209" y1="779" x2="209" y2="-17" gradientUnits="userSpaceOnUse">
<stop stop-color="#FF9C72"/>
<stop offset="1" stop-color="#FF6320" stop-opacity="0"/>
</linearGradient>
<linearGradient id="paint37_linear_1_372" x1="209" y1="779" x2="209" y2="-17" gradientUnits="userSpaceOnUse">
<stop stop-color="#FF9C72"/>
<stop offset="1" stop-color="#FF6320" stop-opacity="0"/>
</linearGradient>
<linearGradient id="paint38_linear_1_372" x1="209" y1="779" x2="209" y2="-17" gradientUnits="userSpaceOnUse">
<stop stop-color="#FF9C72"/>
<stop offset="1" stop-color="#FF6320" stop-opacity="0"/>
</linearGradient>
<linearGradient id="paint39_linear_1_372" x1="209" y1="779" x2="209" y2="-17" gradientUnits="userSpaceOnUse">
<stop stop-color="#FF9C72"/>
<stop offset="1" stop-color="#FF6320" stop-opacity="0"/>
</linearGradient>
<linearGradient id="paint40_linear_1_372" x1="209" y1="779" x2="209" y2="-17" gradientUnits="userSpaceOnUse">
<stop stop-color="#FF9C72"/>
<stop offset="1" stop-color="#FF6320" stop-opacity="0"/>
</linearGradient>
<linearGradient id="paint41_linear_1_372" x1="209" y1="779" x2="209" y2="-17" gradientUnits="userSpaceOnUse">
<stop stop-color="#FF9C72"/>
<stop offset="1" stop-color="#FF6320" stop-opacity="0"/>
</linearGradient>
<linearGradient id="paint42_linear_1_372" x1="209" y1="779" x2="209" y2="-17" gradientUnits="userSpaceOnUse">
<stop stop-color="#FF9C72"/>
<stop offset="1" stop-color="#FF6320" stop-opacity="0"/>
</linearGradient>
<linearGradient id="paint43_linear_1_372" x1="209" y1="779" x2="209" y2="-17" gradientUnits="userSpaceOnUse">
<stop stop-color="#FF9C72"/>
<stop offset="1" stop-color="#FF6320" stop-opacity="0"/>
</linearGradient>
<linearGradient id="paint44_linear_1_372" x1="209" y1="779" x2="209" y2="-17" gradientUnits="userSpaceOnUse">
<stop stop-color="#FF9C72"/>
<stop offset="1" stop-color="#FF6320" stop-opacity="0"/>
</linearGradient>
<linearGradient id="paint45_linear_1_372" x1="209" y1="779" x2="209" y2="-17" gradientUnits="userSpaceOnUse">
<stop stop-color="#FF9C72"/>
<stop offset="1" stop-color="#FF6320" stop-opacity="0"/>
</linearGradient>
<linearGradient id="paint46_linear_1_372" x1="209" y1="779" x2="209" y2="-17" gradientUnits="userSpaceOnUse">
<stop stop-color="#FF9C72"/>
<stop offset="1" stop-color="#FF6320" stop-opacity="0"/>
</linearGradient>
<linearGradient id="paint47_linear_1_372" x1="209" y1="779" x2="209" y2="-17" gradientUnits="userSpaceOnUse">
<stop stop-color="#FF9C72"/>
<stop offset="1" stop-color="#FF6320" stop-opacity="0"/>
</linearGradient>
<linearGradient id="paint48_linear_1_372" x1="209" y1="779" x2="209" y2="-17" gradientUnits="userSpaceOnUse">
<stop stop-color="#FF9C72"/>
<stop offset="1" stop-color="#FF6320" stop-opacity="0"/>
</linearGradient>
<linearGradient id="paint49_linear_1_372" x1="209" y1="779" x2="209" y2="-17" gradientUnits="userSpaceOnUse">
<stop stop-color="#FF9C72"/>
<stop offset="1" stop-color="#FF6320" stop-opacity="0"/>
</linearGradient>
<linearGradient id="paint50_linear_1_372" x1="209" y1="779" x2="209" y2="-17" gradientUnits="userSpaceOnUse">
<stop stop-color="#FF9C72"/>
<stop offset="1" stop-color="#FF6320" stop-opacity="0"/>
</linearGradient>
<linearGradient id="paint51_linear_1_372" x1="209" y1="779" x2="209" y2="-17" gradientUnits="userSpaceOnUse">
<stop stop-color="#FF9C72"/>
<stop offset="1" stop-color="#FF6320" stop-opacity="0"/>
</linearGradient>
<linearGradient id="paint52_linear_1_372" x1="209" y1="779" x2="209" y2="-17" gradientUnits="userSpaceOnUse">
<stop stop-color="#FF9C72"/>
<stop offset="1" stop-color="#FF6320" stop-opacity="0"/>
</linearGradient>
<linearGradient id="paint53_linear_1_372" x1="209" y1="779" x2="209" y2="-17" gradientUnits="userSpaceOnUse">
<stop stop-color="#FF9C72"/>
<stop offset="1" stop-color="#FF6320" stop-opacity="0"/>
</linearGradient>
<linearGradient id="paint54_linear_1_372" x1="209" y1="779" x2="209" y2="-17" gradientUnits="userSpaceOnUse">
<stop stop-color="#FF9C72"/>
<stop offset="1" stop-color="#FF6320" stop-opacity="0"/>
</linearGradient>
<linearGradient id="paint55_linear_1_372" x1="209" y1="779" x2="209" y2="-17" gradientUnits="userSpaceOnUse">
<stop stop-color="#FF9C72"/>
<stop offset="1" stop-color="#FF6320" stop-opacity="0"/>
</linearGradient>
<linearGradient id="paint56_linear_1_372" x1="209" y1="779" x2="209" y2="-17" gradientUnits="userSpaceOnUse">
<stop stop-color="#FF9C72"/>
<stop offset="1" stop-color="#FF6320" stop-opacity="0"/>
</linearGradient>
<linearGradient id="paint57_linear_1_372" x1="209" y1="779" x2="209" y2="-17" gradientUnits="userSpaceOnUse">
<stop stop-color="#FF9C72"/>
<stop offset="1" stop-color="#FF6320" stop-opacity="0"/>
</linearGradient>
<linearGradient id="paint58_linear_1_372" x1="209" y1="779" x2="209" y2="-17" gradientUnits="userSpaceOnUse">
<stop stop-color="#FF9C72"/>
<stop offset="1" stop-color="#FF6320" stop-opacity="0"/>
</linearGradient>
<linearGradient id="paint59_linear_1_372" x1="209" y1="779" x2="209" y2="-17" gradientUnits="userSpaceOnUse">
<stop stop-color="#FF9C72"/>
<stop offset="1" stop-color="#FF6320" stop-opacity="0"/>
</linearGradient>
<linearGradient id="paint60_linear_1_372" x1="209" y1="779" x2="209" y2="-17" gradientUnits="userSpaceOnUse">
<stop stop-color="#FF9C72"/>
<stop offset="1" stop-color="#FF6320" stop-opacity="0"/>
</linearGradient>
<linearGradient id="paint61_linear_1_372" x1="209" y1="779" x2="209" y2="-17" gradientUnits="userSpaceOnUse">
<stop stop-color="#FF9C72"/>
<stop offset="1" stop-color="#FF6320" stop-opacity="0"/>
</linearGradient>
<linearGradient id="paint62_linear_1_372" x1="209" y1="779" x2="209" y2="-17" gradientUnits="userSpaceOnUse">
<stop stop-color="#FF9C72"/>
<stop offset="1" stop-color="#FF6320" stop-opacity="0"/>
</linearGradient>
<linearGradient id="paint63_linear_1_372" x1="209" y1="779" x2="209" y2="-17" gradientUnits="userSpaceOnUse">
<stop stop-color="#FF9C72"/>
<stop offset="1" stop-color="#FF6320" stop-opacity="0"/>
</linearGradient>
<linearGradient id="paint64_linear_1_372" x1="209" y1="779" x2="209" y2="-17" gradientUnits="userSpaceOnUse">
<stop stop-color="#FF9C72"/>
<stop offset="1" stop-color="#FF6320" stop-opacity="0"/>
</linearGradient>
<linearGradient id="paint65_linear_1_372" x1="209" y1="779" x2="209" y2="-17" gradientUnits="userSpaceOnUse">
<stop stop-color="#FF9C72"/>
<stop offset="1" stop-color="#FF6320" stop-opacity="0"/>
</linearGradient>
<linearGradient id="paint66_linear_1_372" x1="209" y1="779" x2="209" y2="-17" gradientUnits="userSpaceOnUse">
<stop stop-color="#FF9C72"/>
<stop offset="1" stop-color="#FF6320" stop-opacity="0"/>
</linearGradient>
<linearGradient id="paint67_linear_1_372" x1="209" y1="779" x2="209" y2="-17" gradientUnits="userSpaceOnUse">
<stop stop-color="#FF9C72"/>
<stop offset="1" stop-color="#FF6320" stop-opacity="0"/>
</linearGradient>
<linearGradient id="paint68_linear_1_372" x1="209" y1="779" x2="209" y2="-17" gradientUnits="userSpaceOnUse">
<stop stop-color="#FF9C72"/>
<stop offset="1" stop-color="#FF6320" stop-opacity="0"/>
</linearGradient>
<linearGradient id="paint69_linear_1_372" x1="209" y1="779" x2="209" y2="-17" gradientUnits="userSpaceOnUse">
<stop stop-color="#FF9C72"/>
<stop offset="1" stop-color="#FF6320" stop-opacity="0"/>
</linearGradient>
<linearGradient id="paint70_linear_1_372" x1="209" y1="779" x2="209" y2="-17" gradientUnits="userSpaceOnUse">
<stop stop-color="#FF9C72"/>
<stop offset="1" stop-color="#FF6320" stop-opacity="0"/>
</linearGradient>
<linearGradient id="paint71_linear_1_372" x1="209" y1="779" x2="209" y2="-17" gradientUnits="userSpaceOnUse">
<stop stop-color="#FF9C72"/>
<stop offset="1" stop-color="#FF6320" stop-opacity="0"/>
</linearGradient>
<linearGradient id="paint72_linear_1_372" x1="209" y1="779" x2="209" y2="-17" gradientUnits="userSpaceOnUse">
<stop stop-color="#FF9C72"/>
<stop offset="1" stop-color="#FF6320" stop-opacity="0"/>
</linearGradient>
<linearGradient id="paint73_linear_1_372" x1="209" y1="779" x2="209" y2="-17" gradientUnits="userSpaceOnUse">
<stop stop-color="#FF9C72"/>
<stop offset="1" stop-color="#FF6320" stop-opacity="0"/>
</linearGradient>
<linearGradient id="paint74_linear_1_372" x1="209" y1="779" x2="209" y2="-17" gradientUnits="userSpaceOnUse">
<stop stop-color="#FF9C72"/>
<stop offset="1" stop-color="#FF6320" stop-opacity="0"/>
</linearGradient>
<linearGradient id="paint75_linear_1_372" x1="209" y1="779" x2="209" y2="-17" gradientUnits="userSpaceOnUse">
<stop stop-color="#FF9C72"/>
<stop offset="1" stop-color="#FF6320" stop-opacity="0"/>
</linearGradient>
<linearGradient id="paint76_linear_1_372" x1="209" y1="779" x2="209" y2="-17" gradientUnits="userSpaceOnUse">
<stop stop-color="#FF9C72"/>
<stop offset="1" stop-color="#FF6320" stop-opacity="0"/>
</linearGradient>
<linearGradient id="paint77_linear_1_372" x1="209" y1="779" x2="209" y2="-17" gradientUnits="userSpaceOnUse">
<stop stop-color="#FF9C72"/>
<stop offset="1" stop-color="#FF6320" stop-opacity="0"/>
</linearGradient>
</defs>
</svg>
