<svg width="38" height="38" viewBox="0 0 38 38" fill="none" xmlns="http://www.w3.org/2000/svg">
<path d="M0.80317 20.3256L17.6369 37.2006C18.3663 37.9318 19.5588 37.9337 20.2882 37.2043L37.2025 20.3293C37.3772 20.1552 37.5157 19.9483 37.6102 19.7205C37.7047 19.4927 37.7534 19.2485 37.7534 19.0018C37.7534 18.7552 37.7047 18.511 37.6102 18.2832C37.5157 18.0554 37.3772 17.8485 37.2025 17.6743L20.2882 0.799345C20.1139 0.625317 19.9071 0.487351 19.6795 0.39334C19.4519 0.299329 19.208 0.251118 18.9618 0.251467C18.7155 0.251815 18.4718 0.300715 18.2444 0.39537C18.0171 0.490024 17.8107 0.628575 17.6369 0.803095L0.80317 17.6781C0.629236 17.8519 0.491254 18.0582 0.397113 18.2854C0.302972 18.5125 0.254517 18.756 0.254517 19.0018C0.254517 19.2477 0.302972 19.4912 0.397113 19.7183C0.491254 19.9455 0.629236 20.1518 0.80317 20.3256V20.3256ZM13.3788 15.2518H22.7538V11.5018L28.3788 17.1268L22.7538 22.7518V19.0018H17.1288V26.5018H13.3788V15.2518Z" fill="black"/>
</svg>
