<svg width="412" height="716" viewBox="0 0 412 716" fill="none" xmlns="http://www.w3.org/2000/svg">
<g style="mix-blend-mode:multiply">
<path d="M43.8186 693.158L6.59059 715.324H6.48716C5.56795 715.105 4.64875 714.852 3.72954 714.553C-2.11588 712.62 -7.2663 709.01 -11.0825 704.17C-14.8986 699.33 -17.2124 693.473 -17.7367 687.327C-18.2611 681.181 -16.9727 675.016 -14.0318 669.597C-11.0908 664.178 -6.62659 659.744 -1.19331 656.846C4.23996 653.947 10.4031 652.711 16.5311 653.291C22.659 653.872 28.482 656.243 33.2773 660.11C38.0725 663.978 41.6288 669.171 43.5048 675.046C45.3809 680.921 45.4939 687.219 43.8301 693.158H43.8186Z" fill="black" stroke="black" stroke-linecap="round" stroke-linejoin="round"/>
<path d="M15.2197 678.523C14.8099 679.777 14.0382 680.882 13.0021 681.698C11.9659 682.513 10.7118 683.003 9.39827 683.104C8.0847 683.206 6.77058 682.915 5.62194 682.268C4.4733 681.621 3.54168 680.648 2.94479 679.471C2.34791 678.294 2.11255 676.966 2.26844 675.655C2.42433 674.344 2.96449 673.109 3.82065 672.105C4.67681 671.102 5.81058 670.375 7.07868 670.017C8.34679 669.659 9.69234 669.686 10.9453 670.094C11.7788 670.365 12.5506 670.798 13.2167 671.369C13.8828 671.94 14.43 672.637 14.827 673.42C15.224 674.203 15.4631 675.056 15.5304 675.932C15.5978 676.807 15.4922 677.688 15.2197 678.523Z" fill="black" stroke="black" stroke-linecap="round" stroke-linejoin="round"/>
<path d="M11.6347 680.342C11.3976 681.059 10.9538 681.69 10.3593 682.154C9.76489 682.619 9.04643 682.896 8.29466 682.952C7.54289 683.008 6.79151 682.839 6.13539 682.467C5.47927 682.095 4.94783 681.536 4.60815 680.862C4.26847 680.188 4.13579 679.427 4.22685 678.678C4.31791 677.928 4.62863 677.222 5.11978 676.649C5.61094 676.075 6.26051 675.661 6.98649 675.458C7.71247 675.254 8.4823 675.271 9.19881 675.506C9.67622 675.662 10.1181 675.911 10.4991 676.239C10.8801 676.567 11.1928 676.967 11.4191 677.417C11.6454 677.866 11.781 678.356 11.818 678.858C11.855 679.36 11.7927 679.864 11.6347 680.342Z" fill="black" stroke="black" stroke-linecap="round" stroke-linejoin="round"/>
<path d="M28.4907 682.91C28.0787 684.165 27.3044 685.269 26.2659 686.083C25.2273 686.897 23.9713 687.384 22.6565 687.482C21.3418 687.581 20.0274 687.286 18.8798 686.636C17.7322 685.985 16.8029 685.008 16.2094 683.829C15.6159 682.649 15.385 681.319 15.5458 680.008C15.7066 678.696 16.2519 677.462 17.1128 676.461C17.9737 675.461 19.1114 674.738 20.382 674.386C21.6526 674.033 22.999 674.066 24.2509 674.481C25.9278 675.036 27.3162 676.236 28.1112 677.816C28.9062 679.396 29.0427 681.228 28.4907 682.91Z" fill="black" stroke="black" stroke-linecap="round" stroke-linejoin="round"/>
<path d="M24.9058 684.718C24.6706 685.436 24.2281 686.068 23.6342 686.535C23.0404 687.001 22.3219 687.28 21.5696 687.337C20.8173 687.395 20.0651 687.227 19.4079 686.856C18.7507 686.484 18.2181 685.926 17.8775 685.251C17.5369 684.577 17.4036 683.816 17.4943 683.065C17.5851 682.315 17.8959 681.608 18.3875 681.035C18.879 680.461 19.5292 680.046 20.2559 679.843C20.9826 679.64 21.7531 679.657 22.4699 679.893C23.4296 680.211 24.2245 680.898 24.6809 681.802C25.1374 682.706 25.2182 683.754 24.9058 684.718Z" fill="black" stroke="black" stroke-linecap="round" stroke-linejoin="round"/>
<path d="M24.3428 694.355C23.7876 696.043 22.9061 697.604 21.7486 698.951C20.5912 700.297 19.1805 701.401 17.5972 702.201C16.0138 703.001 14.2888 703.48 12.5205 703.612C10.7523 703.744 8.97545 703.525 7.29151 702.969C5.60757 702.412 4.04949 701.529 2.70623 700.369C1.36297 699.209 0.260826 697.795 -0.537258 696.208C-1.33534 694.622 -1.81373 692.893 -1.94514 691.121C-2.07654 689.349 -1.85839 687.568 -1.30311 685.881" stroke="black" stroke-linecap="round" stroke-linejoin="round"/>
<path d="M43.853 693.158L6.62503 715.324L6.46417 715.416C6.48561 715.379 6.50478 715.341 6.52161 715.301C8.49781 710.866 11.2183 706.804 14.5647 703.291C17.1025 700.67 20.0429 698.474 23.2742 696.785C29.6024 693.52 36.7676 692.248 43.83 693.135L43.853 693.158Z" fill="black" stroke="black" stroke-linecap="round" stroke-linejoin="round"/>
</g>
<path d="M42.6696 692.006L5.44157 714.173H5.33814C4.41894 713.954 3.49973 713.7 2.58052 713.401C-3.2649 711.469 -8.41532 707.858 -12.2315 703.018C-16.0476 698.178 -18.3615 692.322 -18.8858 686.176C-19.4101 680.03 -18.1218 673.865 -15.1808 668.446C-12.2398 663.027 -7.77561 658.593 -2.34233 655.694C3.09094 652.795 9.25407 651.559 15.382 652.14C21.51 652.72 27.333 655.091 32.1282 658.959C36.9235 662.826 40.4798 668.02 42.3558 673.895C44.2318 679.77 44.3449 686.068 42.681 692.006H42.6696Z" fill="#FFBE0B" stroke="black" stroke-linecap="round" stroke-linejoin="round"/>
<path d="M14.0706 677.371C13.6609 678.626 12.8892 679.731 11.8531 680.546C10.8169 681.362 9.56283 681.851 8.24926 681.953C6.93568 682.054 5.62157 681.763 4.47292 681.117C3.32428 680.47 2.39266 679.497 1.79578 678.32C1.1989 677.143 0.963533 675.815 1.11942 674.504C1.27532 673.193 1.81547 671.957 2.67163 670.954C3.5278 669.95 4.66156 669.224 5.92967 668.865C7.19777 668.507 8.54332 668.534 9.79631 668.942C10.6298 669.214 11.4016 669.647 12.0677 670.218C12.7337 670.788 13.281 671.485 13.678 672.268C14.075 673.051 14.314 673.905 14.3814 674.78C14.4488 675.656 14.3432 676.536 14.0706 677.371Z" fill="white" stroke="black" stroke-linecap="round" stroke-linejoin="round"/>
<path d="M10.4857 679.19C10.2486 679.907 9.80482 680.538 9.21036 681.003C8.6159 681.467 7.89745 681.745 7.14568 681.8C6.3939 681.856 5.64252 681.687 4.9864 681.315C4.33029 680.943 3.79884 680.385 3.45916 679.711C3.11948 679.036 2.98681 678.276 3.07786 677.526C3.16892 676.776 3.47964 676.07 3.9708 675.497C4.46195 674.924 5.11152 674.51 5.8375 674.306C6.56348 674.103 7.33331 674.119 8.04983 674.354C8.52723 674.511 8.96913 674.76 9.35015 675.088C9.73116 675.416 10.0438 675.816 10.2701 676.265C10.4965 676.715 10.632 677.204 10.669 677.706C10.706 678.208 10.6437 678.713 10.4857 679.19Z" fill="#1B1B1B" stroke="black" stroke-linecap="round" stroke-linejoin="round"/>
<path d="M27.3417 681.758C26.9296 683.013 26.1554 684.118 25.1168 684.932C24.0783 685.746 22.8222 686.233 21.5075 686.331C20.1927 686.429 18.8784 686.135 17.7308 685.484C16.5832 684.834 15.6538 683.857 15.0604 682.677C14.4669 681.497 14.236 680.168 14.3968 678.856C14.5576 677.545 15.1029 676.311 15.9638 675.31C16.8247 674.309 17.9623 673.587 19.233 673.234C20.5036 672.882 21.85 672.915 23.1018 673.329C24.7788 673.885 26.1672 675.084 26.9622 676.665C27.7572 678.245 27.8937 680.077 27.3417 681.758Z" fill="white" stroke="black" stroke-linecap="round" stroke-linejoin="round"/>
<path d="M23.7568 683.566C23.5216 684.284 23.079 684.917 22.4852 685.383C21.8914 685.849 21.1729 686.129 20.4206 686.186C19.6683 686.243 18.916 686.075 18.2588 685.704C17.6017 685.333 17.0691 684.774 16.7285 684.1C16.3879 683.425 16.2545 682.665 16.3453 681.914C16.4361 681.163 16.7469 680.457 17.2384 679.883C17.73 679.31 18.3802 678.895 19.1069 678.692C19.8335 678.488 20.604 678.506 21.3209 678.741C22.2806 679.06 23.0755 679.746 23.5319 680.65C23.9883 681.554 24.0692 682.602 23.7568 683.566Z" fill="#1B1B1B" stroke="black" stroke-linecap="round" stroke-linejoin="round"/>
<path d="M23.1938 693.204C22.6386 694.892 21.757 696.453 20.5996 697.799C19.4422 699.145 18.0315 700.25 16.4482 701.05C14.8648 701.849 13.1397 702.329 11.3715 702.461C9.60323 702.592 7.82643 702.374 6.14249 701.817C4.45856 701.261 2.90047 700.377 1.55721 699.217C0.213949 698.057 -0.888192 696.644 -1.68627 695.057C-2.48436 693.47 -2.96275 691.741 -3.09416 689.969C-3.22556 688.197 -3.00741 686.417 -2.45213 684.729" stroke="black" stroke-linecap="round" stroke-linejoin="round"/>
<path d="M42.704 692.006L5.47605 714.173L5.31519 714.265C5.33662 714.228 5.35579 714.189 5.37262 714.15C7.34882 709.715 10.0693 705.653 13.4157 702.14C15.9535 699.519 18.8939 697.322 22.1252 695.634C28.4534 692.368 35.6186 691.096 42.681 691.983L42.704 692.006Z" fill="white" stroke="black" stroke-linecap="round" stroke-linejoin="round"/>
<g style="mix-blend-mode:multiply">
<path d="M16.6224 20.0915L12.9291 32.5056C11.922 35.9138 11.7958 39.5218 12.5622 42.9921C13.3286 46.4623 14.9626 49.6815 17.3114 52.3486L25.8895 62.0526L13.4608 58.3821C10.0526 57.375 6.4446 57.2488 2.97433 58.0152C-0.495944 58.7816 -3.71512 60.4156 -6.38218 62.7644L-16.0862 71.3425L-12.4157 58.9138C-11.4086 55.5056 -11.2824 51.8976 -12.0488 48.4274C-12.8152 44.9571 -14.4492 41.7379 -16.798 39.0708L-25.3616 29.344L-12.9474 33.0373C-9.53919 34.0444 -5.93126 34.1706 -2.46099 33.4042C1.00928 32.6378 4.22852 31.0038 6.89558 28.6549L16.6224 20.0915Z" fill="black" stroke="black" stroke-linecap="round" stroke-linejoin="round"/>
</g>
<path d="M15.7986 16.3616L12.1054 28.7757C11.0983 32.1839 10.972 35.7919 11.7384 39.2622C12.5048 42.7324 14.1389 45.9516 16.4877 48.6187L25.0657 58.3227L12.6371 54.6522C9.22885 53.6451 5.62086 53.5189 2.15059 54.2853C-1.31967 55.0517 -4.53885 56.6857 -7.20591 59.0345L-16.91 67.6126L-13.2395 55.1839C-12.2324 51.7757 -12.1061 48.1677 -12.8726 44.6975C-13.639 41.2272 -15.2729 38.008 -17.6218 35.3409L-26.1853 25.6141L-13.7711 29.3074C-10.3629 30.3145 -6.75499 30.4407 -3.28472 29.6743C0.185549 28.9079 3.40479 27.2739 6.07185 24.9251L15.7986 16.3616Z" fill="#1C90F3" stroke="black" stroke-linecap="round" stroke-linejoin="round"/>
<g style="mix-blend-mode:multiply">
<path d="M423.287 462.557L416.751 484.527C414.969 490.559 414.745 496.944 416.102 503.086C417.458 509.227 420.35 514.925 424.507 519.645L439.688 536.819L417.692 530.323C411.66 528.54 405.275 528.317 399.134 529.673C392.992 531.03 387.295 533.921 382.575 538.078L365.401 553.26L371.897 531.264C373.679 525.232 373.902 518.847 372.546 512.705C371.19 506.563 368.298 500.866 364.141 496.146L348.986 478.932L370.956 485.468C376.988 487.25 383.373 487.474 389.514 486.118C395.656 484.761 401.353 481.869 406.073 477.712L423.287 462.557Z" fill="black" stroke="black" stroke-linecap="round" stroke-linejoin="round"/>
</g>
<path d="M421.83 455.956L415.293 477.926C413.511 483.958 413.288 490.343 414.644 496.485C416 502.626 418.892 508.324 423.049 513.044L438.23 530.218L416.234 523.722C410.203 521.939 403.817 521.716 397.676 523.072C391.534 524.429 385.837 527.321 381.117 531.477L363.943 546.659L370.439 524.663C372.221 518.631 372.445 512.246 371.088 506.104C369.732 499.963 366.84 494.265 362.683 489.545L347.528 472.331L369.498 478.867C375.53 480.65 381.915 480.873 388.056 479.517C394.198 478.16 399.895 475.268 404.615 471.112L421.83 455.956Z" fill="#FFFE03" stroke="black" stroke-linecap="round" stroke-linejoin="round"/>
<g style="mix-blend-mode:multiply">
<path d="M13.4468 460.702L8.53583 462.583L31.5749 522.731L36.4858 520.85L13.4468 460.702Z" fill="black" stroke="black" stroke-width="1.0017" stroke-linecap="round" stroke-linejoin="round"/>
<path d="M31.2925 546.792C41.4077 549.542 51.8369 543.571 54.5868 533.456C57.3367 523.341 51.366 512.912 41.2507 510.162C31.1355 507.412 20.7062 513.383 17.9563 523.498C15.2064 533.613 21.1772 544.042 31.2925 546.792Z" fill="black" stroke="black" stroke-linecap="round" stroke-linejoin="round"/>
<path d="M17.1684 530.525C27.451 523.254 39.4021 518.694 51.9151 517.269C52.9233 517.203 53.9273 517.45 54.7886 517.979C55.6499 518.507 56.326 519.29 56.7236 520.219L57.0218 521C57.198 521.391 57.2736 521.819 57.2414 522.246C57.2093 522.673 57.0705 523.085 56.8378 523.445C56.6051 523.805 56.2859 524.1 55.9094 524.304C55.533 524.508 55.1113 524.615 54.683 524.614C42.1716 526.045 30.222 530.604 19.9363 537.87C19.6177 538.15 19.2342 538.347 18.8206 538.441C18.4069 538.536 17.9762 538.526 17.5674 538.412C17.1586 538.298 16.7848 538.084 16.4797 537.789C16.1746 537.494 15.9479 537.127 15.8202 536.723L15.5138 535.947C15.1923 534.983 15.1789 533.943 15.4754 532.972C15.7719 532 16.3636 531.145 17.1684 530.525Z" fill="black"/>
<path d="M17.1684 530.525C27.451 523.254 39.4021 518.694 51.9151 517.269C52.9233 517.203 53.9273 517.45 54.7886 517.979C55.6499 518.507 56.326 519.29 56.7236 520.219L57.0218 521C57.198 521.391 57.2736 521.819 57.2414 522.246C57.2093 522.673 57.0705 523.085 56.8378 523.445C56.6051 523.805 56.2859 524.1 55.9094 524.304C55.533 524.508 55.1113 524.615 54.683 524.614C42.1716 526.045 30.222 530.604 19.9363 537.87C19.6177 538.15 19.2342 538.347 18.8206 538.441C18.4069 538.536 17.9762 538.526 17.5674 538.412C17.1586 538.298 16.7848 538.084 16.4797 537.789C16.1746 537.494 15.9479 537.127 15.8202 536.723L15.5138 535.947C15.1923 534.983 15.1789 533.943 15.4754 532.972C15.7719 532 16.3636 531.145 17.1684 530.525Z" stroke="black" stroke-linecap="round" stroke-linejoin="round"/>
<path d="M17.1684 530.525C27.451 523.254 39.4021 518.694 51.9151 517.269C52.9233 517.203 53.9273 517.45 54.7886 517.979C55.6499 518.507 56.326 519.29 56.7236 520.219L57.0218 521C57.198 521.391 57.2736 521.819 57.2414 522.246C57.2093 522.673 57.0705 523.085 56.8378 523.445C56.6051 523.805 56.2859 524.1 55.9094 524.304C55.533 524.508 55.1113 524.615 54.683 524.614C42.1716 526.045 30.222 530.604 19.9363 537.87C19.6177 538.15 19.2342 538.347 18.8206 538.441C18.4069 538.536 17.9762 538.526 17.5674 538.412C17.1586 538.298 16.7848 538.084 16.4797 537.789C16.1746 537.494 15.9479 537.127 15.8202 536.723L15.5138 535.947C15.1923 534.983 15.1789 533.943 15.4754 532.972C15.7719 532 16.3636 531.145 17.1684 530.525Z" fill="black" stroke="black" stroke-linecap="round" stroke-linejoin="round"/>
</g>
<path d="M13.6742 459.313L8.76324 461.194L31.8023 521.342L36.7132 519.461L13.6742 459.313Z" fill="#E1B02A" stroke="black" stroke-width="1.0017" stroke-linecap="round" stroke-linejoin="round"/>
<path d="M31.5283 545.401C41.6435 548.151 52.0728 542.18 54.8227 532.065C57.5726 521.949 51.6018 511.52 41.4866 508.77C31.3713 506.02 20.9421 511.991 18.1922 522.106C15.4423 532.222 21.4131 542.651 31.5283 545.401Z" fill="#82BC68" stroke="black" stroke-linecap="round" stroke-linejoin="round"/>
<path d="M17.404 529.131C27.6866 521.859 39.6377 517.3 52.1507 515.875C53.1589 515.808 54.1629 516.056 55.0242 516.584C55.8855 517.113 56.5616 517.895 56.9592 518.824L57.2574 519.606C57.4336 519.996 57.5092 520.425 57.477 520.852C57.4449 521.279 57.3061 521.691 57.0734 522.051C56.8407 522.41 56.5215 522.706 56.145 522.91C55.7686 523.114 55.3469 523.221 54.9186 523.22C42.4072 524.651 30.4576 529.21 20.1719 536.475C19.8533 536.756 19.4698 536.952 19.0562 537.047C18.6425 537.141 18.2118 537.131 17.803 537.017C17.3942 536.903 17.0204 536.689 16.7153 536.394C16.4102 536.099 16.1835 535.733 16.0558 535.328L15.7494 534.552C15.4279 533.589 15.4145 532.549 15.711 531.577C16.0075 530.606 16.5992 529.75 17.404 529.131Z" fill="#F6E4E4"/>
<path d="M17.404 529.131C27.6866 521.859 39.6377 517.3 52.1507 515.875C53.1589 515.808 54.1629 516.056 55.0242 516.584C55.8855 517.113 56.5616 517.895 56.9592 518.824L57.2574 519.606C57.4336 519.996 57.5092 520.425 57.477 520.852C57.4449 521.279 57.3061 521.691 57.0734 522.051C56.8407 522.41 56.5215 522.706 56.145 522.91C55.7686 523.114 55.3469 523.221 54.9186 523.22C42.4072 524.651 30.4576 529.21 20.1719 536.475C19.8533 536.756 19.4698 536.952 19.0562 537.047C18.6425 537.141 18.2118 537.131 17.803 537.017C17.3942 536.903 17.0204 536.689 16.7153 536.394C16.4102 536.099 16.1835 535.733 16.0558 535.328L15.7494 534.552C15.4279 533.589 15.4145 532.549 15.711 531.577C16.0075 530.606 16.5992 529.75 17.404 529.131V529.131Z" stroke="black" stroke-linecap="round" stroke-linejoin="round"/>
<path d="M17.404 529.131C27.6866 521.859 39.6377 517.3 52.1507 515.875C53.1589 515.808 54.1629 516.056 55.0242 516.584C55.8855 517.113 56.5616 517.895 56.9592 518.824L57.2574 519.606C57.4336 519.996 57.5092 520.425 57.477 520.852C57.4449 521.279 57.3061 521.691 57.0734 522.051C56.8407 522.41 56.5215 522.706 56.145 522.91C55.7686 523.114 55.3469 523.221 54.9186 523.22C42.4072 524.651 30.4576 529.21 20.1719 536.475C19.8533 536.756 19.4698 536.952 19.0562 537.047C18.6425 537.141 18.2118 537.131 17.803 537.017C17.3942 536.903 17.0204 536.689 16.7153 536.394C16.4102 536.099 16.1835 535.733 16.0558 535.328L15.7494 534.552C15.4279 533.589 15.4145 532.549 15.711 531.577C16.0075 530.606 16.5992 529.75 17.404 529.131Z" fill="#BDEDA4" stroke="black" stroke-linecap="round" stroke-linejoin="round"/>
<g style="mix-blend-mode:multiply">
<path d="M478.551 85.0022L472.752 76.448L367.983 147.467L373.782 156.021L478.551 85.0022Z" fill="black" stroke="black" stroke-width="1.0017" stroke-linecap="round" stroke-linejoin="round"/>
<path d="M321.817 157.702C321.086 178.288 337.181 195.569 357.767 196.301C378.353 197.033 395.634 180.938 396.366 160.352C397.098 139.766 381.003 122.484 360.417 121.753C339.831 121.021 322.549 137.116 321.817 157.702Z" fill="black" stroke="black" stroke-linecap="round" stroke-linejoin="round"/>
<path d="M346.618 123.392C365.136 139.811 379.212 160.636 387.542 183.94C388.121 185.839 388.097 187.871 387.471 189.756C386.846 191.641 385.652 193.285 384.052 194.461L382.69 195.382C382.022 195.894 381.236 196.231 380.405 196.36C379.573 196.49 378.722 196.409 377.93 196.125C377.138 195.841 376.43 195.362 375.87 194.733C375.311 194.105 374.918 193.345 374.728 192.525C366.386 169.227 352.312 148.404 333.804 131.978C333.125 131.494 332.577 130.848 332.211 130.099C331.845 129.349 331.671 128.521 331.706 127.688C331.741 126.854 331.983 126.043 332.411 125.327C332.839 124.611 333.438 124.014 334.155 123.588L335.503 122.654C337.203 121.608 339.186 121.116 341.178 121.249C343.17 121.381 345.071 122.13 346.618 123.392Z" fill="black"/>
<path d="M346.618 123.392C365.136 139.811 379.212 160.636 387.542 183.94C388.121 185.839 388.097 187.871 387.471 189.756C386.846 191.641 385.652 193.285 384.052 194.461L382.69 195.382C382.022 195.894 381.236 196.231 380.405 196.36C379.573 196.49 378.722 196.409 377.93 196.125C377.138 195.841 376.43 195.362 375.87 194.733C375.311 194.105 374.918 193.345 374.728 192.525C366.386 169.227 352.312 148.404 333.804 131.978C333.125 131.494 332.577 130.848 332.211 130.099C331.845 129.349 331.671 128.521 331.706 127.688C331.741 126.854 331.983 126.043 332.411 125.327C332.839 124.611 333.438 124.014 334.155 123.588L335.503 122.654C337.203 121.608 339.186 121.116 341.178 121.249C343.17 121.381 345.071 122.13 346.618 123.392Z" stroke="black" stroke-linecap="round" stroke-linejoin="round"/>
<path d="M346.618 123.392C365.136 139.811 379.212 160.636 387.542 183.94C388.121 185.839 388.097 187.871 387.471 189.756C386.846 191.641 385.652 193.285 384.052 194.461L382.69 195.382C382.022 195.894 381.236 196.231 380.405 196.36C379.573 196.49 378.722 196.409 377.93 196.125C377.138 195.841 376.43 195.362 375.87 194.733C375.311 194.105 374.918 193.345 374.728 192.525C366.386 169.227 352.312 148.404 333.804 131.978C333.125 131.494 332.577 130.848 332.211 130.099C331.845 129.349 331.671 128.521 331.706 127.688C331.741 126.854 331.983 126.043 332.411 125.327C332.839 124.611 333.438 124.014 334.155 123.588L335.503 122.654C337.203 121.608 339.186 121.116 341.178 121.249C343.17 121.381 345.071 122.13 346.618 123.392Z" fill="black" stroke="black" stroke-linecap="round" stroke-linejoin="round"/>
</g>
<path d="M481.309 84.8154L475.511 76.2612L370.742 147.28L376.541 155.834L481.309 84.8154Z" fill="#E1B02A" stroke="black" stroke-width="1.0017" stroke-linecap="round" stroke-linejoin="round"/>
<path d="M324.585 157.53C323.854 178.116 339.949 195.398 360.535 196.129C381.121 196.861 398.402 180.766 399.134 160.18C399.866 139.594 383.771 122.313 363.185 121.581C342.599 120.849 325.317 136.944 324.585 157.53Z" fill="#82BC68" stroke="black" stroke-linecap="round" stroke-linejoin="round"/>
<path d="M349.391 123.219C367.909 139.637 381.985 160.462 390.316 183.766C390.895 185.666 390.87 187.698 390.245 189.582C389.62 191.467 388.425 193.111 386.826 194.288L385.463 195.208C384.795 195.721 384.01 196.057 383.178 196.187C382.347 196.316 381.496 196.235 380.704 195.951C379.911 195.667 379.203 195.189 378.644 194.56C378.084 193.931 377.692 193.172 377.502 192.352C369.16 169.053 355.086 148.231 336.577 131.804C335.898 131.32 335.351 130.674 334.985 129.925C334.618 129.176 334.445 128.347 334.48 127.514C334.515 126.681 334.757 125.869 335.185 125.154C335.612 124.438 336.212 123.84 336.929 123.414L338.277 122.481C339.976 121.434 341.96 120.943 343.952 121.075C345.944 121.207 347.845 121.956 349.391 123.219Z" fill="#F6E4E4"/>
<path d="M349.391 123.219C367.909 139.637 381.985 160.462 390.316 183.766C390.895 185.666 390.87 187.698 390.245 189.582C389.62 191.467 388.425 193.111 386.826 194.288L385.463 195.208C384.795 195.721 384.01 196.057 383.178 196.187C382.347 196.316 381.496 196.235 380.704 195.951C379.911 195.667 379.203 195.189 378.644 194.56C378.084 193.931 377.692 193.172 377.502 192.352C369.16 169.053 355.086 148.231 336.577 131.804C335.898 131.32 335.351 130.674 334.985 129.925C334.618 129.176 334.445 128.347 334.48 127.514C334.515 126.681 334.757 125.869 335.185 125.154C335.612 124.438 336.212 123.84 336.929 123.414L338.277 122.481C339.976 121.434 341.96 120.943 343.952 121.075C345.944 121.207 347.845 121.956 349.391 123.219V123.219Z" stroke="black" stroke-linecap="round" stroke-linejoin="round"/>
<path d="M349.391 123.219C367.909 139.637 381.985 160.462 390.316 183.766C390.895 185.666 390.87 187.698 390.245 189.582C389.62 191.467 388.425 193.111 386.826 194.288L385.463 195.208C384.795 195.721 384.01 196.057 383.178 196.187C382.347 196.316 381.496 196.235 380.704 195.951C379.911 195.667 379.203 195.189 378.644 194.56C378.084 193.931 377.692 193.172 377.502 192.352C369.16 169.053 355.086 148.231 336.577 131.804C335.898 131.32 335.351 130.674 334.985 129.925C334.618 129.176 334.445 128.347 334.48 127.514C334.515 126.681 334.757 125.869 335.185 125.154C335.612 124.438 336.212 123.84 336.929 123.414L338.277 122.481C339.976 121.434 341.96 120.943 343.952 121.075C345.944 121.207 347.845 121.956 349.391 123.219Z" fill="#BDEDA4" stroke="black" stroke-linecap="round" stroke-linejoin="round"/>
</svg>
