<svg width="450" height="717" viewBox="0 0 450 717" fill="none" xmlns="http://www.w3.org/2000/svg">
<g style="mix-blend-mode:multiply">
<path d="M55.4917 693.45L18.1388 715.616H18.0351C17.1128 715.397 16.1905 715.144 15.2682 714.844C9.40314 712.912 4.23543 709.302 0.406478 704.462C-3.42247 699.622 -5.74408 693.765 -6.27015 687.619C-6.79622 681.473 -5.50359 675.308 -2.55272 669.889C0.398138 664.47 4.87729 660.036 10.3288 657.137C15.7803 654.239 21.9641 653.003 28.1127 653.583C34.2612 654.163 40.1037 656.534 44.915 660.402C49.7264 664.269 53.2946 669.463 55.177 675.338C57.0593 681.213 57.1727 687.511 55.5033 693.45H55.4917Z" fill="black" stroke="black" stroke-linecap="round" stroke-linejoin="round"/>
<path d="M26.7969 678.814C26.3858 680.069 25.6115 681.174 24.5719 681.99C23.5323 682.805 22.274 683.295 20.956 683.396C19.638 683.498 18.3195 683.207 17.167 682.56C16.0145 681.913 15.0797 680.94 14.4809 679.763C13.882 678.586 13.6458 677.258 13.8022 675.947C13.9586 674.636 14.5006 673.401 15.3596 672.397C16.2187 671.394 17.3563 670.667 18.6286 670.309C19.901 669.951 21.251 669.977 22.5082 670.385C23.3445 670.657 24.1189 671.09 24.7872 671.661C25.4555 672.232 26.0046 672.929 26.4029 673.711C26.8013 674.494 27.0411 675.348 27.1087 676.224C27.1763 677.099 27.0704 677.98 26.7969 678.814V678.814Z" fill="black" stroke="black" stroke-linecap="round" stroke-linejoin="round"/>
<path d="M23.1999 680.634C22.962 681.351 22.5167 681.981 21.9202 682.446C21.3238 682.911 20.6029 683.188 19.8486 683.244C19.0943 683.299 18.3404 683.131 17.6821 682.759C17.0238 682.387 16.4906 681.828 16.1497 681.154C15.8089 680.479 15.6758 679.719 15.7672 678.969C15.8585 678.22 16.1703 677.513 16.6631 676.94C17.1559 676.367 17.8076 675.953 18.5361 675.749C19.2645 675.546 20.0369 675.563 20.7558 675.797C21.2348 675.954 21.6782 676.203 22.0605 676.531C22.4428 676.859 22.7565 677.259 22.9836 677.709C23.2107 678.158 23.3466 678.648 23.3838 679.15C23.4209 679.652 23.3584 680.156 23.1999 680.634V680.634Z" fill="black" stroke="black" stroke-linecap="round" stroke-linejoin="round"/>
<path d="M40.1125 683.202C39.6991 684.457 38.9222 685.561 37.8802 686.375C36.8382 687.189 35.5779 687.676 34.2587 687.774C32.9396 687.873 31.6208 687.578 30.4693 686.928C29.3179 686.277 28.3854 685.3 27.79 684.12C27.1945 682.941 26.9628 681.611 27.1242 680.3C27.2855 678.988 27.8327 677.754 28.6964 676.753C29.5602 675.753 30.7017 675.03 31.9766 674.678C33.2514 674.325 34.6024 674.358 35.8584 674.773C37.541 675.328 38.9341 676.527 39.7317 678.108C40.5294 679.688 40.6663 681.52 40.1125 683.202V683.202Z" fill="black" stroke="black" stroke-linecap="round" stroke-linejoin="round"/>
<path d="M36.5156 685.009C36.2795 685.728 35.8355 686.36 35.2397 686.826C34.6439 687.293 33.923 687.572 33.1682 687.629C32.4134 687.686 31.6585 687.519 30.9992 687.147C30.3398 686.776 29.8054 686.218 29.4637 685.543C29.1219 684.869 28.9881 684.108 29.0792 683.357C29.1703 682.607 29.4821 681.9 29.9753 681.326C30.4685 680.753 31.1209 680.338 31.85 680.135C32.5791 679.932 33.3522 679.949 34.0715 680.185C35.0344 680.503 35.832 681.19 36.2899 682.094C36.7479 682.998 36.829 684.046 36.5156 685.009Z" fill="black" stroke="black" stroke-linecap="round" stroke-linejoin="round"/>
<path d="M35.9507 694.647C35.3935 696.335 34.5091 697.896 33.3478 699.242C32.1865 700.589 30.771 701.693 29.1824 702.493C27.5937 703.293 25.8629 703.772 24.0887 703.904C22.3145 704.036 20.5317 703.817 18.8421 703.26C17.1525 702.704 15.5892 701.821 14.2415 700.661C12.8937 699.501 11.7879 698.087 10.9871 696.5C10.1863 694.913 9.70633 693.185 9.57449 691.413C9.44264 689.641 9.66153 687.86 10.2187 686.172" stroke="black" stroke-linecap="round" stroke-linejoin="round"/>
<path d="M55.5263 693.45L18.1734 715.616L18.012 715.708C18.0335 715.671 18.0527 715.632 18.0696 715.593C20.0524 711.158 22.782 707.096 26.1397 703.583C28.686 700.962 31.6363 698.766 34.8784 697.077C41.2278 693.812 48.4171 692.539 55.5032 693.427L55.5263 693.45Z" fill="black" stroke="black" stroke-linecap="round" stroke-linejoin="round"/>
</g>
<path d="M54.3389 692.298L16.986 714.464H16.8822C15.9599 714.246 15.0376 713.992 14.1153 713.693C8.25031 711.76 3.0826 708.15 -0.746354 703.31C-4.57531 698.47 -6.89691 692.614 -7.42298 686.468C-7.94905 680.322 -6.65642 674.156 -3.70556 668.738C-0.754694 663.319 3.72446 658.885 9.17597 655.986C14.6275 653.087 20.8113 651.851 26.9598 652.432C33.1084 653.012 38.9509 655.383 43.7622 659.25C48.5735 663.118 52.1418 668.311 54.0241 674.187C55.9064 680.062 56.0199 686.359 54.3504 692.298H54.3389Z" fill="#FFBE0B" stroke="black" stroke-linecap="round" stroke-linejoin="round"/>
<path d="M25.6439 677.663C25.2328 678.918 24.4585 680.023 23.4189 680.838C22.3793 681.654 21.121 682.143 19.803 682.245C18.4851 682.346 17.1665 682.055 16.014 681.409C14.8615 680.762 13.9268 679.789 13.3279 678.611C12.729 677.434 12.4929 676.107 12.6493 674.795C12.8057 673.484 13.3477 672.249 14.2067 671.246C15.0657 670.242 16.2033 669.515 17.4757 669.157C18.748 668.799 20.0981 668.826 21.3553 669.234C22.1915 669.505 22.966 669.939 23.6343 670.51C24.3026 671.08 24.8516 671.777 25.25 672.56C25.6483 673.343 25.8882 674.197 25.9558 675.072C26.0234 675.948 25.9174 676.828 25.6439 677.663V677.663Z" fill="white" stroke="black" stroke-linecap="round" stroke-linejoin="round"/>
<path d="M22.0471 679.482C21.8092 680.199 21.3639 680.83 20.7674 681.294C20.171 681.759 19.4501 682.037 18.6958 682.092C17.9415 682.148 17.1876 681.979 16.5293 681.607C15.871 681.235 15.3377 680.677 14.9969 680.002C14.6561 679.328 14.523 678.568 14.6143 677.818C14.7057 677.068 15.0175 676.362 15.5103 675.789C16.0031 675.216 16.6548 674.801 17.3832 674.598C18.1116 674.395 18.8841 674.411 19.603 674.646C20.082 674.802 20.5254 675.052 20.9077 675.38C21.29 675.708 21.6037 676.108 21.8307 676.557C22.0578 677.006 22.1938 677.496 22.2309 677.998C22.2681 678.5 22.2056 679.004 22.0471 679.482Z" fill="#1B1B1B" stroke="black" stroke-linecap="round" stroke-linejoin="round"/>
<path d="M38.9596 682.05C38.5461 683.305 37.7692 684.41 36.7272 685.223C35.6852 686.037 34.4249 686.524 33.1058 686.623C31.7866 686.721 30.4679 686.427 29.3164 685.776C28.1649 685.126 27.2325 684.149 26.637 682.969C26.0416 681.789 25.8098 680.459 25.9712 679.148C26.1326 677.837 26.6797 676.603 27.5435 675.602C28.4072 674.601 29.5487 673.879 30.8236 673.526C32.0985 673.174 33.4494 673.207 34.7055 673.621C36.388 674.176 37.7811 675.376 38.5788 676.956C39.3764 678.537 39.5134 680.369 38.9596 682.05V682.05Z" fill="white" stroke="black" stroke-linecap="round" stroke-linejoin="round"/>
<path d="M35.3627 683.858C35.1267 684.576 34.6827 685.209 34.0869 685.675C33.491 686.141 32.7701 686.421 32.0153 686.478C31.2605 686.535 30.5057 686.367 29.8463 685.996C29.1869 685.625 28.6526 685.066 28.3108 684.392C27.9691 683.717 27.8353 682.956 27.9264 682.206C28.0174 681.455 28.3293 680.749 28.8225 680.175C29.3157 679.601 29.9681 679.187 30.6972 678.984C31.4263 678.78 32.1994 678.798 32.9187 679.033C33.8816 679.352 34.6791 680.038 35.1371 680.942C35.595 681.846 35.6762 682.894 35.3627 683.858V683.858Z" fill="#1B1B1B" stroke="black" stroke-linecap="round" stroke-linejoin="round"/>
<path d="M34.7979 693.496C34.2407 695.183 33.3562 696.745 32.1949 698.091C31.0336 699.437 29.6182 700.542 28.0295 701.341C26.4409 702.141 24.71 702.621 22.9358 702.752C21.1617 702.884 19.3789 702.665 17.6893 702.109C15.9997 701.552 14.4364 700.669 13.0886 699.509C11.7409 698.349 10.635 696.936 9.83426 695.349C9.0335 693.762 8.5535 692.033 8.42166 690.261C8.28981 688.489 8.50869 686.708 9.06583 685.021" stroke="black" stroke-linecap="round" stroke-linejoin="round"/>
<path d="M54.3734 692.298L17.0205 714.464L16.8591 714.557C16.8806 714.519 16.8999 714.481 16.9168 714.441C18.8996 710.007 21.6292 705.945 24.9868 702.431C27.5331 699.811 30.4835 697.614 33.7256 695.926C40.075 692.66 47.2642 691.388 54.3504 692.275L54.3734 692.298Z" fill="white" stroke="black" stroke-linecap="round" stroke-linejoin="round"/>
<g style="mix-blend-mode:multiply">
<path d="M28.2044 20.3834L24.4987 32.7975C23.4883 36.2057 23.3616 39.8137 24.1305 43.284C24.8995 46.7542 26.539 49.9734 28.8957 52.6405L37.5026 62.3445L25.0322 58.674C21.6125 57.6669 17.9924 57.5407 14.5105 58.3071C11.0286 59.0735 7.79863 60.7075 5.12262 63.0563L-4.61401 71.6344L-0.931178 59.2057C0.0792968 55.7975 0.205945 52.1895 -0.563033 48.7193C-1.33201 45.249 -2.97148 42.0298 -5.32817 39.3627L-13.9204 29.6359L-1.46463 33.3292C1.95502 34.3363 5.57506 34.4625 9.05697 33.6961C12.5389 32.9297 15.7689 31.2957 18.4449 28.9468L28.2044 20.3834Z" fill="black" stroke="black" stroke-linecap="round" stroke-linejoin="round"/>
</g>
<path d="M27.3778 16.6534L23.6722 29.0676C22.6617 32.4758 22.535 36.0838 23.304 39.554C24.073 43.0243 25.7125 46.2435 28.0692 48.9105L36.676 58.6146L24.2056 54.9441C20.786 53.937 17.1659 53.8108 13.684 54.5772C10.2021 55.3436 6.97209 56.9776 4.29608 59.3264L-5.44055 67.9045L-1.75772 55.4758C-0.747241 52.0676 -0.620594 48.4596 -1.38957 44.9893C-2.15855 41.5191 -3.79802 38.2998 -6.15471 35.6328L-14.747 25.906L-2.29116 29.5992C1.12848 30.6063 4.74852 30.7326 8.23043 29.9662C11.7123 29.1998 14.9424 27.5657 17.6184 25.2169L27.3778 16.6534Z" fill="#1C90F3" stroke="black" stroke-linecap="round" stroke-linejoin="round"/>
<g style="mix-blend-mode:multiply">
<path d="M436.234 462.849L429.676 484.819C427.888 490.851 427.663 497.236 429.024 503.378C430.385 509.519 433.287 515.216 437.458 519.937L452.69 537.11L430.62 530.614C424.568 528.832 418.161 528.609 411.999 529.965C405.837 531.322 400.121 534.213 395.385 538.37L378.153 553.551L384.671 531.555C386.459 525.524 386.683 519.138 385.322 512.997C383.962 506.855 381.06 501.158 376.889 496.438L361.683 479.224L383.727 485.76C389.779 487.542 396.185 487.766 402.348 486.409C408.51 485.053 414.226 482.161 418.962 478.004L436.234 462.849Z" fill="black" stroke="black" stroke-linecap="round" stroke-linejoin="round"/>
</g>
<path d="M434.771 456.248L428.213 478.218C426.425 484.25 426.201 490.635 427.562 496.777C428.922 502.918 431.824 508.616 435.995 513.336L451.227 530.51L429.157 524.014C423.105 522.231 416.699 522.008 410.536 523.364C404.374 524.721 398.658 527.612 393.922 531.769L376.69 546.95L383.208 524.955C384.996 518.923 385.221 512.538 383.86 506.396C382.499 500.254 379.597 494.557 375.426 489.837L360.22 472.623L382.264 479.159C388.316 480.941 394.723 481.165 400.885 479.809C407.047 478.452 412.763 475.56 417.499 471.403L434.771 456.248Z" fill="#FFFE03" stroke="black" stroke-linecap="round" stroke-linejoin="round"/>
<g style="mix-blend-mode:multiply">
<path d="M25.0181 460.994L20.0907 462.875L43.207 523.022L48.1345 521.141L25.0181 460.994Z" fill="black" stroke="black" stroke-width="1.0017" stroke-linecap="round" stroke-linejoin="round"/>
<path d="M42.9236 547.084C53.0728 549.834 63.537 543.863 66.2962 533.748C69.0553 523.633 63.0645 513.203 52.9153 510.453C42.7661 507.704 32.3019 513.674 29.5427 523.79C26.7836 533.905 32.7744 544.334 42.9236 547.084Z" fill="black" stroke="black" stroke-linecap="round" stroke-linejoin="round"/>
<path d="M28.7522 530.817C39.0693 523.545 51.0605 518.986 63.6155 517.561C64.6271 517.494 65.6345 517.742 66.4987 518.271C67.3629 518.799 68.0412 519.581 68.4401 520.51L68.7393 521.292C68.9162 521.683 68.9919 522.111 68.9597 522.538C68.9274 522.965 68.7882 523.377 68.5547 523.737C68.3212 524.096 68.001 524.392 67.6232 524.596C67.2455 524.8 66.8224 524.907 66.3927 524.906C53.8393 526.337 41.8496 530.896 31.5294 538.162C31.2097 538.442 30.825 538.638 30.4099 538.733C29.9949 538.828 29.5627 538.817 29.1525 538.704C28.7424 538.59 28.3673 538.375 28.0612 538.081C27.755 537.786 27.5276 537.419 27.3995 537.015L27.0921 536.238C26.7695 535.275 26.756 534.235 27.0535 533.263C27.351 532.292 27.9447 531.437 28.7522 530.817Z" fill="black"/>
<path d="M28.7522 530.817C39.0693 523.545 51.0605 518.986 63.6155 517.561C64.6271 517.494 65.6345 517.742 66.4987 518.271C67.3629 518.799 68.0412 519.581 68.4401 520.51L68.7393 521.292C68.9162 521.683 68.9919 522.111 68.9597 522.538C68.9274 522.965 68.7882 523.377 68.5547 523.737C68.3212 524.096 68.001 524.392 67.6232 524.596C67.2455 524.8 66.8224 524.907 66.3927 524.906C53.8393 526.337 41.8496 530.896 31.5294 538.162C31.2097 538.442 30.825 538.638 30.4099 538.733C29.9949 538.828 29.5627 538.817 29.1525 538.704C28.7424 538.59 28.3673 538.375 28.0612 538.081C27.755 537.786 27.5276 537.419 27.3995 537.015L27.0921 536.238C26.7695 535.275 26.756 534.235 27.0535 533.263C27.351 532.292 27.9447 531.437 28.7522 530.817Z" stroke="black" stroke-linecap="round" stroke-linejoin="round"/>
<path d="M28.7522 530.817C39.0693 523.545 51.0605 518.986 63.6155 517.561C64.6271 517.494 65.6345 517.742 66.4987 518.271C67.3629 518.799 68.0412 519.581 68.4401 520.51L68.7393 521.292C68.9162 521.683 68.9919 522.111 68.9597 522.538C68.9274 522.965 68.7882 523.377 68.5547 523.737C68.3212 524.096 68.001 524.392 67.6232 524.596C67.2455 524.8 66.8224 524.907 66.3927 524.906C53.8393 526.337 41.8496 530.896 31.5294 538.162C31.2097 538.442 30.825 538.638 30.4099 538.733C29.9949 538.828 29.5627 538.817 29.1525 538.704C28.7424 538.59 28.3673 538.375 28.0612 538.081C27.755 537.786 27.5276 537.419 27.3995 537.015L27.0921 536.238C26.7695 535.275 26.756 534.235 27.0535 533.263C27.351 532.292 27.9447 531.437 28.7522 530.817Z" fill="black" stroke="black" stroke-linecap="round" stroke-linejoin="round"/>
</g>
<path d="M25.2463 459.605L20.3188 461.486L43.4352 521.634L48.3626 519.753L25.2463 459.605Z" fill="#E1B02A" stroke="black" stroke-width="1.0017" stroke-linecap="round" stroke-linejoin="round"/>
<path d="M43.1603 545.693C53.3095 548.442 63.7737 542.472 66.5329 532.356C69.292 522.241 63.3012 511.812 53.152 509.062C43.0028 506.312 32.5386 512.283 29.7794 522.398C27.0203 532.513 33.0111 542.943 43.1603 545.693Z" fill="#82BC68" stroke="black" stroke-linecap="round" stroke-linejoin="round"/>
<path d="M28.9885 529.422C39.3056 522.151 51.2968 517.592 63.8518 516.167C64.8634 516.1 65.8708 516.348 66.735 516.876C67.5992 517.404 68.2775 518.187 68.6764 519.116L68.9756 519.898C69.1525 520.288 69.2283 520.716 69.196 521.144C69.1638 521.571 69.0245 521.983 68.791 522.342C68.5576 522.702 68.2373 522.997 67.8596 523.202C67.4818 523.406 67.0588 523.512 66.629 523.511C54.0756 524.943 42.0859 529.502 31.7657 536.767C31.4461 537.048 31.0613 537.244 30.6462 537.339C30.2312 537.433 29.799 537.423 29.3889 537.309C28.9787 537.195 28.6036 536.981 28.2975 536.686C27.9914 536.391 27.7639 536.025 27.6358 535.62L27.3284 534.844C27.0058 533.88 26.9924 532.841 27.2899 531.869C27.5874 530.897 28.1811 530.042 28.9885 529.422V529.422Z" fill="#F6E4E4"/>
<path d="M28.9885 529.422C39.3056 522.151 51.2968 517.592 63.8518 516.167C64.8634 516.1 65.8708 516.348 66.735 516.876C67.5992 517.404 68.2775 518.187 68.6764 519.116L68.9756 519.898C69.1525 520.288 69.2283 520.716 69.196 521.144C69.1638 521.571 69.0245 521.983 68.791 522.342C68.5576 522.702 68.2373 522.997 67.8596 523.202C67.4818 523.406 67.0588 523.512 66.629 523.511C54.0756 524.943 42.0859 529.502 31.7657 536.767C31.4461 537.048 31.0613 537.244 30.6462 537.339C30.2312 537.433 29.799 537.423 29.3889 537.309C28.9787 537.195 28.6036 536.981 28.2975 536.686C27.9914 536.391 27.7639 536.025 27.6358 535.62L27.3284 534.844C27.0058 533.88 26.9924 532.841 27.2899 531.869C27.5874 530.897 28.1811 530.042 28.9885 529.422V529.422Z" stroke="black" stroke-linecap="round" stroke-linejoin="round"/>
<path d="M28.9885 529.422C39.3056 522.151 51.2968 517.592 63.8518 516.167C64.8634 516.1 65.8708 516.348 66.735 516.876C67.5992 517.404 68.2775 518.187 68.6764 519.116L68.9756 519.898C69.1525 520.288 69.2283 520.716 69.196 521.144C69.1638 521.571 69.0245 521.983 68.791 522.342C68.5576 522.702 68.2373 522.997 67.8596 523.202C67.4818 523.406 67.0588 523.512 66.629 523.511C54.0756 524.943 42.0859 529.502 31.7657 536.767C31.4461 537.048 31.0613 537.244 30.6462 537.339C30.2312 537.433 29.799 537.423 29.3889 537.309C28.9787 537.195 28.6036 536.981 28.2975 536.686C27.9914 536.391 27.7639 536.025 27.6358 535.62L27.3284 534.844C27.0058 533.88 26.9924 532.841 27.2899 531.869C27.5874 530.897 28.1811 530.042 28.9885 529.422V529.422Z" fill="#BDEDA4" stroke="black" stroke-linecap="round" stroke-linejoin="round"/>
<g style="mix-blend-mode:multiply">
<path d="M491.683 85.294L485.865 76.7398L380.744 147.759L386.563 156.313L491.683 85.294Z" fill="black" stroke="black" stroke-width="1.0017" stroke-linecap="round" stroke-linejoin="round"/>
<path d="M334.424 157.994C333.689 178.58 349.839 195.861 370.494 196.593C391.149 197.325 408.488 181.23 409.222 160.644C409.956 140.058 393.807 122.776 373.152 122.045C352.497 121.313 335.158 137.408 334.424 157.994Z" fill="black" stroke="black" stroke-linecap="round" stroke-linejoin="round"/>
<path d="M359.307 123.684C377.887 140.102 392.011 160.928 400.369 184.232C400.95 186.131 400.925 188.163 400.298 190.048C399.671 191.933 398.472 193.577 396.867 194.753L395.5 195.674C394.83 196.186 394.042 196.522 393.207 196.652C392.373 196.782 391.519 196.701 390.725 196.417C389.93 196.133 389.219 195.654 388.658 195.025C388.097 194.396 387.703 193.637 387.512 192.817C379.142 169.519 365.021 148.696 346.45 132.269C345.769 131.785 345.22 131.14 344.852 130.39C344.485 129.641 344.311 128.813 344.346 127.979C344.381 127.146 344.624 126.335 345.053 125.619C345.482 124.903 346.084 124.306 346.803 123.88L348.155 122.946C349.861 121.9 351.851 121.408 353.849 121.54C355.848 121.673 357.756 122.422 359.307 123.684Z" fill="black"/>
<path d="M359.307 123.684C377.887 140.102 392.011 160.928 400.369 184.232C400.95 186.131 400.925 188.163 400.298 190.048C399.671 191.933 398.472 193.577 396.867 194.753L395.5 195.674C394.83 196.186 394.042 196.522 393.207 196.652C392.373 196.782 391.519 196.701 390.725 196.417C389.93 196.133 389.219 195.654 388.658 195.025C388.097 194.396 387.703 193.637 387.512 192.817C379.142 169.519 365.021 148.696 346.45 132.269C345.769 131.785 345.22 131.14 344.852 130.39C344.485 129.641 344.311 128.813 344.346 127.979C344.381 127.146 344.624 126.335 345.053 125.619C345.482 124.903 346.084 124.306 346.803 123.88L348.155 122.946C349.861 121.9 351.851 121.408 353.849 121.54C355.848 121.673 357.756 122.422 359.307 123.684Z" stroke="black" stroke-linecap="round" stroke-linejoin="round"/>
<path d="M359.307 123.684C377.887 140.102 392.011 160.928 400.369 184.232C400.95 186.131 400.925 188.163 400.298 190.048C399.671 191.933 398.472 193.577 396.867 194.753L395.5 195.674C394.83 196.186 394.042 196.522 393.207 196.652C392.373 196.782 391.519 196.701 390.725 196.417C389.93 196.133 389.219 195.654 388.658 195.025C388.097 194.396 387.703 193.637 387.512 192.817C379.142 169.519 365.021 148.696 346.45 132.269C345.769 131.785 345.22 131.14 344.852 130.39C344.485 129.641 344.311 128.813 344.346 127.979C344.381 127.146 344.624 126.335 345.053 125.619C345.482 124.903 346.084 124.306 346.803 123.88L348.155 122.946C349.861 121.9 351.851 121.408 353.849 121.54C355.848 121.673 357.756 122.422 359.307 123.684Z" fill="black" stroke="black" stroke-linecap="round" stroke-linejoin="round"/>
</g>
<path d="M494.451 85.1073L488.633 76.5531L383.512 147.572L389.33 156.126L494.451 85.1073Z" fill="#E1B02A" stroke="black" stroke-width="1.0017" stroke-linecap="round" stroke-linejoin="round"/>
<path d="M337.201 157.822C336.467 178.408 352.616 195.689 373.271 196.421C393.926 197.153 411.265 181.058 411.999 160.472C412.734 139.886 396.585 122.604 375.929 121.873C355.274 121.141 337.935 137.236 337.201 157.822Z" fill="#82BC68" stroke="black" stroke-linecap="round" stroke-linejoin="round"/>
<path d="M362.09 123.51C380.67 139.929 394.793 160.754 403.152 184.058C403.733 185.957 403.708 187.99 403.081 189.874C402.453 191.759 401.255 193.403 399.65 194.58L398.283 195.5C397.613 196.012 396.825 196.349 395.99 196.478C395.156 196.608 394.302 196.527 393.507 196.243C392.712 195.959 392.002 195.48 391.441 194.852C390.879 194.223 390.485 193.464 390.295 192.644C381.925 169.345 367.803 148.523 349.233 132.096C348.552 131.612 348.002 130.966 347.635 130.217C347.267 129.468 347.093 128.639 347.128 127.806C347.163 126.973 347.406 126.161 347.836 125.445C348.265 124.73 348.866 124.132 349.586 123.706L350.938 122.773C352.643 121.726 354.634 121.234 356.632 121.367C358.631 121.499 360.538 122.248 362.09 123.51V123.51Z" fill="#F6E4E4"/>
<path d="M362.09 123.51C380.67 139.929 394.793 160.754 403.152 184.058C403.733 185.957 403.708 187.99 403.081 189.874C402.453 191.759 401.255 193.403 399.65 194.58L398.283 195.5C397.613 196.012 396.825 196.349 395.99 196.478C395.156 196.608 394.302 196.527 393.507 196.243C392.712 195.959 392.002 195.48 391.441 194.852C390.879 194.223 390.485 193.464 390.295 192.644C381.925 169.345 367.803 148.523 349.233 132.096C348.552 131.612 348.002 130.966 347.635 130.217C347.267 129.468 347.093 128.639 347.128 127.806C347.163 126.973 347.406 126.161 347.836 125.445C348.265 124.73 348.866 124.132 349.586 123.706L350.938 122.773C352.643 121.726 354.634 121.234 356.632 121.367C358.631 121.499 360.538 122.248 362.09 123.51V123.51Z" stroke="black" stroke-linecap="round" stroke-linejoin="round"/>
<path d="M362.09 123.51C380.67 139.929 394.793 160.754 403.152 184.058C403.733 185.957 403.708 187.99 403.081 189.874C402.453 191.759 401.255 193.403 399.65 194.58L398.283 195.5C397.613 196.012 396.825 196.349 395.99 196.478C395.156 196.608 394.302 196.527 393.507 196.243C392.712 195.959 392.002 195.48 391.441 194.852C390.879 194.223 390.485 193.464 390.295 192.644C381.925 169.345 367.803 148.523 349.233 132.096C348.552 131.612 348.002 130.966 347.635 130.217C347.267 129.468 347.093 128.639 347.128 127.806C347.163 126.973 347.406 126.161 347.836 125.445C348.265 124.73 348.866 124.132 349.586 123.706L350.938 122.773C352.643 121.726 354.634 121.234 356.632 121.367C358.631 121.499 360.538 122.248 362.09 123.51V123.51Z" fill="#BDEDA4" stroke="black" stroke-linecap="round" stroke-linejoin="round"/>
</svg>
