<svg width="411" height="898" viewBox="0 0 411 898" fill="none" xmlns="http://www.w3.org/2000/svg">
<g clip-path="url(#clip0_56_1886)">
<g style="mix-blend-mode:multiply">
<path d="M328.2 23.58L390.09 -47.69C392.793 -50.8023 396.083 -53.3517 399.772 -55.1927C403.46 -57.0336 407.475 -58.13 411.587 -58.4192C415.7 -58.7085 419.829 -58.1849 423.739 -56.8785C427.648 -55.572 431.263 -53.5083 434.375 -50.805C437.487 -48.1018 440.037 -44.8119 441.878 -41.1234C443.719 -37.4349 444.815 -33.4199 445.104 -29.3077C445.394 -25.1954 444.87 -21.0665 443.564 -17.1566C442.257 -13.2466 440.193 -9.63234 437.49 -6.52001L375.6 64.74C372.902 67.8605 369.614 70.4173 365.925 72.2637C362.236 74.1102 358.218 75.21 354.103 75.4998C349.988 75.7897 345.856 75.2641 341.945 73.953C338.033 72.642 334.419 70.5713 331.31 67.86C325.734 63.0346 322.043 56.3934 320.89 49.11C320.74 48.21 320.64 47.31 320.58 46.4C320.285 42.288 320.807 38.1584 322.115 34.2489C323.422 30.3393 325.491 26.727 328.2 23.62V23.58Z" fill="black" stroke="black" stroke-linecap="round" stroke-linejoin="round"/>
<path d="M337.38 40.74L336.58 31.6L382.89 56.35L375.6 64.74C373.205 67.5004 370.349 69.8248 367.16 71.61L320.89 49.11C320.74 48.21 320.64 47.31 320.58 46.4C320.266 41.9394 320.907 37.4632 322.46 33.27L337.38 40.74Z" fill="black" stroke="black" stroke-linecap="round" stroke-linejoin="round"/>
<path d="M360.7 -13.86L385.1 2.27998L384.44 -7.85001L418.28 15.59L403.67 32.42L350.36 -1.95002L360.7 -13.86Z" fill="black" stroke="black" stroke-linecap="round" stroke-linejoin="round"/>
<path d="M343.43 7.75998L362.06 23.95C362.334 23.0918 362.795 22.3053 363.411 21.6476C364.026 20.9898 364.78 20.4772 365.618 20.1471C366.456 19.8169 367.357 19.6774 368.256 19.7386C369.155 19.7999 370.028 20.0604 370.814 20.5013C371.599 20.9421 372.277 21.5523 372.797 22.2875C373.318 23.0227 373.668 23.8645 373.823 24.7518C373.978 25.6392 373.933 26.5499 373.692 27.4179C373.451 28.2858 373.02 29.0893 372.43 29.77C371.894 30.3959 371.233 30.9033 370.49 31.26L390.83 48.93L387.02 53.31L339.62 12.11L343.43 7.75998Z" fill="black" stroke="black" stroke-linecap="round" stroke-linejoin="round"/>
<path d="M392.63 39.27C393.353 39.8972 393.945 40.6608 394.373 41.5172C394.801 42.3736 395.055 43.3058 395.122 44.2607C395.189 45.2155 395.067 46.1742 394.763 47.0818C394.459 47.9894 393.979 48.8281 393.35 49.55L387.16 56.68C386.533 57.4031 385.769 57.9953 384.913 58.4229C384.056 58.8505 383.124 59.105 382.169 59.1719C381.214 59.2388 380.256 59.1167 379.348 58.8127C378.441 58.5086 377.602 58.0286 376.88 57.4V57.4C375.423 56.1336 374.528 54.3401 374.393 52.4141C374.258 50.4881 374.894 48.5874 376.16 47.13L382.35 40C383.617 38.5406 385.411 37.6439 387.339 37.507C389.267 37.3701 391.17 38.0043 392.63 39.27V39.27Z" fill="black" stroke="black" stroke-linecap="round" stroke-linejoin="round"/>
<path d="M351.03 3.11C350.308 2.48143 349.469 2.00139 348.562 1.69735C347.654 1.3933 346.696 1.27123 345.741 1.3381C344.786 1.40498 343.854 1.65949 342.997 2.08708C342.141 2.51467 341.377 3.10695 340.75 3.83L334.55 11C333.284 12.4603 332.65 14.3635 332.787 16.2911C332.924 18.2188 333.821 20.0132 335.28 21.28C336.002 21.9064 336.841 22.3845 337.748 22.6868C338.655 22.9892 339.613 23.1099 340.566 23.0421C341.52 22.9743 342.451 22.7194 343.306 22.2918C344.161 21.8642 344.924 21.2723 345.55 20.55L351.74 13.42C352.375 12.6986 352.861 11.8585 353.169 10.9483C353.477 10.038 353.602 9.07565 353.536 8.11687C353.47 7.1581 353.215 6.22194 352.784 5.36252C352.354 4.50311 351.758 3.73751 351.03 3.11V3.11Z" fill="black" stroke="black" stroke-linecap="round" stroke-linejoin="round"/>
<path d="M381.2 -35.73L399.83 -19.54C400.136 -20.4968 400.674 -21.3628 401.397 -22.0603C402.12 -22.7577 403.005 -23.2649 403.972 -23.5362C404.939 -23.8076 405.959 -23.8346 406.939 -23.615C407.919 -23.3954 408.83 -22.9359 409.589 -22.2778C410.347 -21.6197 410.931 -20.7836 411.287 -19.8443C411.644 -18.9051 411.761 -17.8921 411.63 -16.8963C411.498 -15.9004 411.121 -14.9528 410.533 -14.1384C409.945 -13.324 409.164 -12.6683 408.26 -12.23L428.6 5.43999L424.79 9.82999L377.39 -31.34L381.2 -35.73Z" fill="black" stroke="black" stroke-linecap="round" stroke-linejoin="round"/>
</g>
<path d="M327.2 22.58L389.09 -48.69C394.55 -54.9756 402.282 -58.8351 410.587 -59.4192C418.892 -60.0034 427.089 -57.2645 433.375 -51.805C439.661 -46.3455 443.52 -38.6127 444.104 -30.3077C444.688 -22.0026 441.95 -13.8056 436.49 -7.52001L374.6 63.74C371.902 66.8605 368.614 69.4173 364.925 71.2637C361.236 73.1102 357.218 74.21 353.103 74.4998C348.988 74.7897 344.856 74.2641 340.945 72.953C337.033 71.642 333.419 69.5713 330.31 66.86C324.734 62.0346 321.043 55.3934 319.89 48.11C319.74 47.21 319.64 46.31 319.58 45.4C319.285 41.288 319.807 37.1584 321.115 33.2489C322.422 29.3393 324.491 25.727 327.2 22.62V22.58Z" fill="#FF006E" stroke="black" stroke-linecap="round" stroke-linejoin="round"/>
<path d="M336.38 39.74L335.58 30.6L381.89 55.35L374.6 63.74C372.205 66.5004 369.349 68.8248 366.16 70.61L319.89 48.11C319.74 47.21 319.64 46.31 319.58 45.4C319.266 40.9394 319.907 36.4632 321.46 32.27L336.38 39.74Z" fill="#FDC0C0" stroke="black" stroke-linecap="round" stroke-linejoin="round"/>
<path d="M359.7 -14.86L384.1 1.27998L383.44 -8.85001L417.28 14.59L402.67 31.42L349.36 -2.95002L359.7 -14.86Z" fill="#FDC0C0" stroke="black" stroke-linecap="round" stroke-linejoin="round"/>
<path d="M342.43 6.75998L361.06 22.95C361.334 22.0918 361.795 21.3053 362.411 20.6476C363.026 19.9898 363.78 19.4772 364.618 19.1471C365.456 18.8169 366.357 18.6774 367.256 18.7386C368.155 18.7999 369.028 19.0604 369.814 19.5013C370.599 19.9421 371.277 20.5523 371.797 21.2875C372.318 22.0227 372.668 22.8645 372.823 23.7518C372.978 24.6392 372.933 25.5499 372.692 26.4179C372.451 27.2858 372.02 28.0893 371.43 28.77C370.894 29.3959 370.233 29.9033 369.49 30.26L389.83 47.93L386.02 52.31L338.62 11.11L342.43 6.75998Z" fill="#1C90F3" stroke="black" stroke-linecap="round" stroke-linejoin="round"/>
<path d="M391.63 38.27C392.353 38.8972 392.945 39.6608 393.373 40.5172C393.801 41.3736 394.055 42.3058 394.122 43.2607C394.189 44.2155 394.067 45.1742 393.763 46.0818C393.459 46.9894 392.979 47.8281 392.35 48.55L386.16 55.68C385.533 56.4031 384.769 56.9953 383.913 57.4229C383.056 57.8505 382.124 58.105 381.169 58.1719C380.214 58.2388 379.256 58.1167 378.348 57.8127C377.441 57.5086 376.602 57.0286 375.88 56.4V56.4C374.423 55.1336 373.528 53.3401 373.393 51.4141C373.258 49.4881 373.894 47.5874 375.16 46.13L381.35 39C382.617 37.5406 384.411 36.6439 386.339 36.507C388.267 36.3701 390.17 37.0043 391.63 38.27V38.27Z" fill="#8338EC" stroke="black" stroke-linecap="round" stroke-linejoin="round"/>
<path d="M350.03 2.11C349.308 1.48143 348.469 1.00139 347.562 0.697349C346.654 0.393304 345.696 0.271227 344.741 0.338103C343.786 0.404979 342.854 0.65949 341.997 1.08708C341.141 1.51467 340.377 2.10695 339.75 2.83L333.55 10C332.284 11.4603 331.65 13.3635 331.787 15.2911C331.924 17.2188 332.821 19.0132 334.28 20.28V20.28C335.002 20.9064 335.841 21.3845 336.748 21.6868C337.655 21.9892 338.613 22.1099 339.566 22.0421C340.52 21.9743 341.451 21.7194 342.306 21.2918C343.161 20.8642 343.924 20.2723 344.55 19.55L350.74 12.42C351.375 11.6986 351.861 10.8585 352.169 9.94826C352.477 9.038 352.602 8.07565 352.536 7.11687C352.47 6.1581 352.215 5.22194 351.784 4.36252C351.354 3.50311 350.758 2.73751 350.03 2.11Z" fill="#8338EC" stroke="black" stroke-linecap="round" stroke-linejoin="round"/>
<path d="M380.2 -36.73L398.83 -20.54C399.136 -21.4968 399.674 -22.3628 400.397 -23.0603C401.12 -23.7577 402.005 -24.2649 402.972 -24.5362C403.939 -24.8076 404.959 -24.8346 405.939 -24.615C406.919 -24.3954 407.83 -23.9359 408.589 -23.2778C409.347 -22.6197 409.931 -21.7836 410.287 -20.8443C410.644 -19.9051 410.761 -18.8921 410.63 -17.8963C410.498 -16.9004 410.121 -15.9528 409.533 -15.1384C408.945 -14.324 408.164 -13.6683 407.26 -13.23L427.6 4.43999L423.79 8.82999L376.39 -32.34L380.2 -36.73Z" fill="#1C90F3" stroke="black" stroke-linecap="round" stroke-linejoin="round"/>
<path d="M429.4 -5.22003C430.13 -4.59222 430.729 -3.82572 431.161 -2.96493C431.593 -2.10414 431.85 -1.16618 431.917 -0.205377C431.984 0.755427 431.86 1.71997 431.551 2.63238C431.243 3.54478 430.756 4.38691 430.12 5.10997L423.93 12.24C423.303 12.963 422.539 13.5553 421.683 13.9829C420.826 14.4105 419.894 14.665 418.939 14.7319C417.985 14.7987 417.026 14.6767 416.118 14.3726C415.211 14.0686 414.372 13.5885 413.65 12.96V12.96C412.193 11.6935 411.298 9.90007 411.163 7.97408C411.028 6.0481 411.664 4.14736 412.93 2.68997L419.12 -4.44003C420.38 -5.90667 422.171 -6.81279 424.098 -6.95907C426.026 -7.10535 427.933 -6.4798 429.4 -5.22003V-5.22003Z" fill="#8338EC" stroke="black" stroke-linecap="round" stroke-linejoin="round"/>
</g>
<g clip-path="url(#clip1_56_1886)">
<g style="mix-blend-mode:multiply">
<path d="M-6.99469 821.754L-2.70667 827.562L68.4261 775.043L64.1381 769.235L-6.99469 821.754Z" fill="black" stroke="black" stroke-width="1.0017" stroke-linecap="round" stroke-linejoin="round"/>
<path d="M100.362 766.601C100.294 752.211 88.5738 740.601 74.184 740.669C59.7942 740.737 48.1842 752.458 48.2523 766.848C48.3205 781.237 60.041 792.847 74.4308 792.779C88.8206 792.711 100.431 780.991 100.362 766.601Z" fill="black" stroke="black" stroke-linecap="round" stroke-linejoin="round"/>
<path d="M84.0164 791.247C70.6289 780.307 60.2182 766.167 53.7481 750.135C53.2904 748.825 53.2506 747.406 53.6339 746.073C54.0172 744.74 54.8049 743.559 55.8882 742.693L56.8133 742.012C57.2651 741.635 57.8041 741.378 58.3809 741.265C58.9577 741.151 59.5539 741.183 60.1148 741.359C60.6758 741.535 61.1836 741.849 61.5917 742.273C61.9999 742.696 62.2953 743.215 62.451 743.782C68.9289 759.81 79.3383 773.948 92.7193 784.894C93.2068 785.213 93.6071 785.648 93.8839 786.161C94.1606 786.673 94.305 787.247 94.3041 787.829C94.3031 788.412 94.1568 788.985 93.8784 789.497C93.6 790.008 93.1983 790.443 92.7098 790.76L91.7953 791.449C90.6383 792.228 89.2676 792.627 87.8735 792.59C86.4795 792.554 85.1313 792.084 84.0164 791.247Z" fill="black"/>
<path d="M84.0164 791.247C70.6289 780.307 60.2182 766.167 53.7481 750.135C53.2904 748.825 53.2506 747.406 53.6339 746.073C54.0172 744.74 54.8049 743.559 55.8882 742.693L56.8133 742.012C57.2651 741.635 57.8041 741.378 58.3809 741.265C58.9577 741.151 59.5539 741.183 60.1148 741.359C60.6758 741.535 61.1836 741.849 61.5917 742.273C61.9999 742.696 62.2953 743.215 62.451 743.782C68.9289 759.81 79.3383 773.948 92.7193 784.894C93.2068 785.213 93.6071 785.648 93.8839 786.161C94.1606 786.673 94.305 787.247 94.3041 787.829C94.3031 788.412 94.1568 788.985 93.8784 789.497C93.6 790.008 93.1983 790.443 92.7098 790.76L91.7953 791.449C90.6383 792.228 89.2676 792.627 87.8735 792.59C86.4795 792.554 85.1313 792.084 84.0164 791.247Z" stroke="black" stroke-linecap="round" stroke-linejoin="round"/>
<path d="M84.0164 791.247C70.6289 780.307 60.2182 766.167 53.7481 750.135C53.2904 748.825 53.2506 747.406 53.6339 746.073C54.0172 744.74 54.8049 743.559 55.8882 742.693L56.8133 742.012C57.2651 741.635 57.8041 741.378 58.3809 741.265C58.9577 741.151 59.5539 741.183 60.1148 741.359C60.6758 741.535 61.1836 741.849 61.5917 742.273C61.9999 742.696 62.2953 743.215 62.451 743.782C68.9289 759.81 79.3383 773.948 92.7193 784.894C93.2068 785.213 93.6071 785.648 93.8839 786.161C94.1606 786.673 94.305 787.247 94.3041 787.829C94.3031 788.412 94.1568 788.985 93.8784 789.497C93.6 790.008 93.1983 790.443 92.7098 790.76L91.7953 791.449C90.6383 792.228 89.2676 792.627 87.8735 792.59C86.4795 792.554 85.1313 792.084 84.0164 791.247Z" fill="black" stroke="black" stroke-linecap="round" stroke-linejoin="round"/>
</g>
<path d="M-8.91522 821.962L-4.6272 827.769L66.5055 775.251L62.2175 769.443L-8.91522 821.962Z" fill="#E1B02A" stroke="black" stroke-width="1.0017" stroke-linecap="round" stroke-linejoin="round"/>
<path d="M98.4351 766.799C98.3669 752.409 86.6464 740.799 72.2566 740.867C57.8668 740.935 46.2568 752.656 46.325 767.045C46.3931 781.435 58.1136 793.045 72.5034 792.977C86.8932 792.909 98.5032 781.188 98.4351 766.799Z" fill="#82BC68" stroke="black" stroke-linecap="round" stroke-linejoin="round"/>
<path d="M82.0852 791.446C68.6978 780.507 58.287 766.366 51.8169 750.334C51.3593 749.025 51.3194 747.605 51.7027 746.272C52.0861 744.939 52.8737 743.758 53.957 742.892L54.8821 742.211C55.334 741.835 55.8729 741.578 56.4497 741.464C57.0265 741.35 57.6227 741.382 58.1837 741.559C58.7446 741.735 59.2524 742.049 59.6606 742.472C60.0687 742.895 60.3641 743.414 60.5198 743.981C66.9977 760.009 77.4072 774.148 90.7881 785.093C91.2757 785.412 91.676 785.847 91.9527 786.36C92.2294 786.873 92.3739 787.446 92.3729 788.029C92.372 788.611 92.2257 789.184 91.9473 789.696C91.6689 790.208 91.2672 790.642 90.7786 790.959L89.8642 791.649C88.7071 792.427 87.3364 792.826 85.9424 792.79C84.5483 792.753 83.2002 792.284 82.0852 791.446V791.446Z" fill="#F6E4E4"/>
<path d="M82.0852 791.446C68.6978 780.507 58.287 766.366 51.8169 750.334C51.3593 749.025 51.3194 747.605 51.7027 746.272C52.0861 744.939 52.8737 743.758 53.957 742.892L54.8821 742.211C55.334 741.835 55.8729 741.578 56.4497 741.464C57.0265 741.35 57.6227 741.382 58.1837 741.559C58.7446 741.735 59.2524 742.049 59.6606 742.472C60.0687 742.895 60.3641 743.414 60.5198 743.981C66.9977 760.009 77.4072 774.148 90.7881 785.093C91.2757 785.412 91.676 785.847 91.9527 786.36C92.2294 786.873 92.3739 787.446 92.3729 788.029C92.372 788.611 92.2257 789.184 91.9473 789.696C91.6689 790.208 91.2672 790.642 90.7786 790.959L89.8642 791.649C88.7071 792.427 87.3364 792.826 85.9424 792.79C84.5483 792.753 83.2002 792.284 82.0852 791.446V791.446Z" stroke="black" stroke-linecap="round" stroke-linejoin="round"/>
<path d="M82.0852 791.446C68.6978 780.507 58.287 766.366 51.8169 750.334C51.3593 749.025 51.3194 747.605 51.7027 746.272C52.0861 744.939 52.8737 743.758 53.957 742.892L54.8821 742.211C55.334 741.835 55.8729 741.578 56.4497 741.464C57.0265 741.35 57.6227 741.382 58.1837 741.559C58.7446 741.735 59.2524 742.049 59.6606 742.472C60.0687 742.895 60.3641 743.414 60.5198 743.981C66.9977 760.009 77.4072 774.148 90.7881 785.093C91.2757 785.412 91.676 785.847 91.9527 786.36C92.2294 786.873 92.3739 787.446 92.3729 788.029C92.372 788.611 92.2257 789.184 91.9473 789.696C91.6689 790.208 91.2672 790.642 90.7786 790.959L89.8642 791.649C88.7071 792.427 87.3364 792.826 85.9424 792.79C84.5483 792.753 83.2002 792.284 82.0852 791.446V791.446Z" fill="#BDEDA4" stroke="black" stroke-linecap="round" stroke-linejoin="round"/>
</g>
<g clip-path="url(#clip2_56_1886)">
<g style="mix-blend-mode:multiply">
<path d="M415.041 886.761C434.174 859.236 427.371 821.413 399.847 802.28C372.322 783.146 334.498 789.949 315.365 817.474C296.232 844.999 303.035 882.823 330.56 901.956C358.084 921.089 395.908 914.286 415.041 886.761Z" fill="black" stroke="black" stroke-width="0.998649" stroke-linecap="round" stroke-linejoin="round"/>
<path d="M364.477 829.62C365.029 832.733 366.492 835.613 368.681 837.895C370.87 840.177 373.687 841.758 376.775 842.439C379.863 843.12 383.084 842.869 386.029 841.72C388.975 840.57 391.514 838.572 393.324 835.979C395.134 833.386 396.134 830.315 396.198 827.153C396.262 823.992 395.387 820.882 393.684 818.218C391.98 815.554 389.525 813.455 386.628 812.187C383.732 810.918 380.524 810.537 377.411 811.092C373.243 811.841 369.541 814.212 367.117 817.684C364.693 821.157 363.743 825.449 364.477 829.62V829.62Z" fill="black" stroke="black" stroke-linecap="round" stroke-linejoin="round"/>
<path d="M364.477 829.62C364.79 831.395 365.622 833.038 366.869 834.34C368.116 835.642 369.721 836.545 371.482 836.934C373.242 837.323 375.078 837.181 376.758 836.526C378.438 835.871 379.885 834.732 380.917 833.254C381.949 831.776 382.519 830.024 382.555 828.222C382.591 826.419 382.092 824.647 381.12 823.128C380.148 821.61 378.747 820.414 377.095 819.693C375.443 818.971 373.614 818.755 371.839 819.074C369.466 819.499 367.359 820.849 365.979 822.825C364.599 824.802 364.059 827.245 364.477 829.62V829.62Z" fill="black"/>
<path d="M322.536 837.181C323.092 840.288 324.557 843.161 326.746 845.436C328.934 847.711 331.748 849.286 334.831 849.961C337.915 850.637 341.13 850.384 344.069 849.233C347.008 848.082 349.541 846.085 351.345 843.496C353.15 840.906 354.147 837.839 354.209 834.683C354.271 831.527 353.396 828.423 351.694 825.764C349.993 823.106 347.541 821.011 344.649 819.745C341.757 818.48 338.555 818.1 335.448 818.654C333.383 819.022 331.411 819.793 329.645 820.923C327.878 822.054 326.352 823.521 325.153 825.242C323.954 826.963 323.105 828.903 322.656 830.951C322.207 833 322.166 835.117 322.536 837.181Z" fill="black" stroke="black" stroke-linecap="round" stroke-linejoin="round"/>
<path d="M322.536 837.181C322.857 838.948 323.694 840.581 324.943 841.873C326.191 843.164 327.794 844.057 329.549 844.438C331.305 844.819 333.134 844.671 334.805 844.013C336.476 843.355 337.915 842.217 338.94 840.741C339.965 839.266 340.529 837.52 340.562 835.724C340.595 833.928 340.095 832.163 339.125 830.651C338.155 829.139 336.759 827.949 335.113 827.23C333.467 826.511 331.644 826.297 329.876 826.613C327.503 827.044 325.397 828.398 324.021 830.379C322.645 832.36 322.111 834.807 322.536 837.181V837.181Z" fill="black"/>
<path d="M346.326 854.868C346.718 857.062 347.538 859.157 348.739 861.033C349.941 862.91 351.5 864.531 353.328 865.805C355.157 867.079 357.218 867.981 359.394 868.458C361.571 868.935 363.82 868.979 366.014 868.587C368.207 868.195 370.302 867.375 372.179 866.173C374.055 864.972 375.677 863.413 376.951 861.584C378.224 859.756 379.126 857.695 379.603 855.518C380.08 853.342 380.124 851.092 379.732 848.899" stroke="black" stroke-linecap="round" stroke-linejoin="round"/>
</g>
<path d="M412.83 884.528C431.963 857.003 425.16 819.18 397.636 800.047C370.111 780.913 332.287 787.716 313.154 815.241C294.021 842.766 300.824 880.59 328.349 899.723C355.873 918.856 393.697 912.053 412.83 884.528Z" fill="#FDC0C0" stroke="black" stroke-width="0.998649" stroke-linecap="round" stroke-linejoin="round"/>
<path d="M362.266 827.409C362.818 830.522 364.281 833.402 366.47 835.684C368.66 837.966 371.476 839.547 374.564 840.228C377.652 840.909 380.873 840.659 383.818 839.509C386.764 838.359 389.303 836.361 391.113 833.768C392.923 831.175 393.923 828.104 393.987 824.942C394.051 821.781 393.176 818.671 391.473 816.007C389.769 813.343 387.314 811.244 384.417 809.976C381.521 808.707 378.313 808.326 375.2 808.881C371.032 809.63 367.33 812.001 364.906 815.473C362.482 818.946 361.532 823.238 362.266 827.409V827.409Z" fill="white" stroke="black" stroke-linecap="round" stroke-linejoin="round"/>
<path d="M362.266 827.409C362.579 829.184 363.411 830.827 364.658 832.129C365.905 833.431 367.511 834.334 369.271 834.723C371.031 835.112 372.867 834.97 374.547 834.315C376.227 833.66 377.674 832.521 378.706 831.043C379.738 829.565 380.308 827.813 380.344 826.011C380.38 824.209 379.881 822.436 378.909 820.918C377.937 819.399 376.536 818.203 374.884 817.482C373.232 816.76 371.403 816.544 369.628 816.863C367.255 817.289 365.148 818.638 363.768 820.614C362.388 822.591 361.848 825.035 362.266 827.409V827.409Z" fill="black"/>
<path d="M320.325 834.97C320.881 838.077 322.346 840.95 324.535 843.225C326.723 845.5 329.537 847.075 332.621 847.75C335.704 848.426 338.919 848.173 341.858 847.022C344.797 845.871 347.33 843.874 349.134 841.285C350.939 838.695 351.936 835.628 351.998 832.472C352.06 829.316 351.185 826.212 349.483 823.553C347.782 820.895 345.33 818.8 342.438 817.534C339.547 816.269 336.344 815.889 333.237 816.443C331.172 816.811 329.2 817.582 327.434 818.713C325.667 819.843 324.141 821.31 322.942 823.031C321.743 824.752 320.894 826.692 320.445 828.74C319.996 830.789 319.956 832.906 320.325 834.97Z" fill="white" stroke="black" stroke-linecap="round" stroke-linejoin="round"/>
<path d="M320.325 834.97C320.646 836.738 321.483 838.37 322.732 839.662C323.98 840.953 325.583 841.846 327.338 842.227C329.094 842.608 330.923 842.46 332.594 841.802C334.265 841.144 335.704 840.006 336.729 838.531C337.754 837.055 338.318 835.309 338.351 833.513C338.384 831.718 337.884 829.952 336.914 828.44C335.944 826.928 334.548 825.738 332.902 825.019C331.256 824.3 329.434 824.086 327.665 824.402C325.292 824.833 323.186 826.187 321.81 828.168C320.434 830.15 319.9 832.596 320.325 834.97V834.97Z" fill="black"/>
<path d="M344.115 852.657C344.507 854.851 345.327 856.946 346.528 858.822C347.73 860.699 349.289 862.32 351.117 863.594C352.946 864.868 355.007 865.77 357.183 866.247C359.36 866.724 361.609 866.768 363.803 866.376C365.996 865.984 368.091 865.164 369.968 863.963C371.844 862.761 373.466 861.202 374.74 859.373C376.014 857.545 376.915 855.484 377.392 853.307C377.87 851.131 377.913 848.882 377.522 846.688" stroke="black" stroke-linecap="round" stroke-linejoin="round"/>
</g>
<g clip-path="url(#clip3_56_1886)">
<path d="M433.9 275.395C430.184 278.029 427.104 281.291 424.84 284.988C421.586 281.778 418.216 278.663 414.728 275.642C414.387 275.344 413.925 275.177 413.445 275.177C412.964 275.177 412.503 275.344 412.161 275.642C409.011 278.685 406.083 281.902 403.396 285.272C401.011 282.901 398.389 280.716 395.766 278.556C394.574 277.593 392.821 275.593 390.899 275.679C388.557 275.79 386.579 278.753 385.289 280.074C383.347 281.936 381.538 283.902 379.875 285.963C377.107 282.229 373.834 278.805 370.128 275.765C369.78 275.473 369.318 275.309 368.837 275.309C368.357 275.309 367.894 275.473 367.547 275.765C363.748 279.439 360.3 283.382 357.238 287.556C356.355 288.79 358.487 290.37 359.637 289.185C362.792 285.926 365.78 282.519 368.95 279.309C372.092 282.058 374.872 285.11 377.238 288.407C377.362 288.589 377.526 288.747 377.719 288.872C377.913 288.997 378.133 289.087 378.367 289.136C378.601 289.186 378.844 289.194 379.081 289.16C379.318 289.126 379.545 289.05 379.749 288.938C379.936 288.943 380.119 288.891 380.268 288.79C381.951 287.68 383.518 286.441 384.952 285.086C386.271 283.852 388.515 280.728 390.184 280.148C393.339 279.037 399.006 286.025 401.137 287.827C401.419 288.073 401.783 288.233 402.175 288.284C402.23 288.39 402.311 288.484 402.413 288.558C402.515 288.632 402.634 288.685 402.763 288.712C402.891 288.739 403.025 288.741 403.154 288.716C403.283 288.691 403.404 288.64 403.508 288.568C407.246 285.77 410.619 282.615 413.564 279.161C416.78 282.049 419.913 285 422.961 288.012C423.232 288.294 423.611 288.479 424.027 288.531C424.218 288.634 424.442 288.679 424.665 288.659C424.888 288.639 425.097 288.555 425.261 288.42C429.104 284.901 432.554 281.111 436.481 277.642C438.108 276.16 435.598 274.136 433.9 275.395Z" fill="white"/>
<path d="M433.9 285.874C430.184 288.512 427.103 291.778 424.84 295.479C421.586 292.269 418.216 289.149 414.728 286.121C414.386 285.823 413.925 285.656 413.445 285.656C412.964 285.656 412.503 285.823 412.161 286.121C409.011 289.168 406.083 292.389 403.396 295.763C401.011 293.392 398.389 291.195 395.766 289.047C394.574 288.071 392.82 286.071 390.899 286.17C388.557 286.269 386.579 289.244 385.289 290.565C383.347 292.422 381.539 294.385 379.875 296.442C377.098 292.725 373.815 289.321 370.1 286.306C369.756 286.007 369.292 285.84 368.809 285.84C368.326 285.84 367.863 286.007 367.519 286.306C363.716 289.977 360.268 293.92 357.21 298.096C356.327 299.331 358.459 300.898 359.609 299.726C362.764 296.454 365.752 293.059 368.921 289.787C372.067 292.539 374.848 295.595 377.21 298.898C377.335 299.079 377.5 299.235 377.694 299.36C377.887 299.484 378.107 299.573 378.341 299.622C378.574 299.672 378.816 299.68 379.053 299.647C379.289 299.614 379.517 299.54 379.721 299.429C379.907 299.428 380.088 299.376 380.24 299.281C381.922 298.171 383.49 296.931 384.924 295.577C386.243 294.405 388.487 291.219 390.156 290.639C393.311 289.516 398.978 296.503 401.109 298.306C401.388 298.556 401.753 298.717 402.147 298.763C402.2 298.87 402.281 298.964 402.382 299.04C402.483 299.115 402.602 299.17 402.731 299.198C402.86 299.227 402.994 299.229 403.124 299.205C403.253 299.181 403.375 299.131 403.48 299.059C407.218 296.261 410.591 293.106 413.536 289.652C416.752 292.524 419.885 295.47 422.933 298.491C423.204 298.773 423.583 298.958 423.999 299.01C424.187 299.119 424.413 299.168 424.638 299.147C424.863 299.127 425.073 299.039 425.233 298.898C429.076 295.392 432.526 291.602 436.453 288.121C438.108 286.639 435.598 284.627 433.9 285.874Z" fill="white"/>
<path d="M433.9 296.415C430.181 299.046 427.1 302.309 424.84 306.008C421.586 302.798 418.216 299.679 414.728 296.65C414.387 296.352 413.925 296.185 413.445 296.185C412.964 296.185 412.503 296.352 412.161 296.65C409.011 299.697 406.083 302.918 403.396 306.292C401.011 303.921 398.389 301.724 395.766 299.576C394.574 298.613 392.821 296.613 390.899 296.699C388.557 296.81 386.579 299.773 385.289 301.094C383.347 302.952 381.539 304.914 379.875 306.971C377.111 303.238 373.837 299.818 370.128 296.786C369.782 296.49 369.319 296.325 368.837 296.325C368.355 296.325 367.893 296.49 367.547 296.786C363.748 300.459 360.3 304.402 357.238 308.576C356.355 309.81 358.487 311.391 359.637 310.205C362.792 306.934 365.78 303.539 368.95 300.329C372.095 303.076 374.876 306.128 377.238 309.428C377.363 309.608 377.528 309.765 377.722 309.889C377.916 310.013 378.135 310.102 378.369 310.152C378.602 310.201 378.844 310.209 379.081 310.176C379.318 310.143 379.545 310.069 379.749 309.959C379.936 309.963 380.119 309.911 380.268 309.81C381.947 308.697 383.515 307.457 384.952 306.107C386.271 304.872 388.515 301.736 390.184 301.168C393.339 300.057 399.006 307.045 401.137 308.835C401.419 309.083 401.782 309.247 402.175 309.304C402.23 309.41 402.311 309.504 402.413 309.578C402.515 309.652 402.634 309.705 402.763 309.732C402.891 309.76 403.025 309.761 403.154 309.736C403.283 309.711 403.404 309.66 403.508 309.588C407.246 306.791 410.619 303.635 413.564 300.181C416.78 303.07 419.913 306.02 422.961 309.033C423.233 309.311 423.613 309.491 424.027 309.539C424.215 309.648 424.439 309.697 424.663 309.679C424.887 309.661 425.098 309.577 425.261 309.44C429.104 305.921 432.554 302.131 436.481 298.662C438.108 297.168 435.598 295.156 433.9 296.415Z" fill="white"/>
</g>
<defs>
<clipPath id="clip0_56_1886">
<rect width="126.68" height="136.05" fill="white" transform="translate(319 -60)"/>
</clipPath>
<clipPath id="clip1_56_1886">
<rect width="124.648" height="61.8849" fill="white" transform="translate(-12 822.721) rotate(-50.8913)"/>
</clipPath>
<clipPath id="clip2_56_1886">
<rect width="126" height="126" fill="white" transform="translate(297 777)"/>
</clipPath>
<clipPath id="clip3_56_1886">
<rect width="80" height="38" fill="white" transform="translate(357 275)"/>
</clipPath>
</defs>
</svg>
