<svg width="115" height="121" viewBox="0 0 115 121" fill="none" xmlns="http://www.w3.org/2000/svg">
<g clip-path="url(#clip0_33_2060)">
<g style="mix-blend-mode:multiply">
<path d="M118.041 109.761C137.174 82.2362 130.371 44.4126 102.847 25.2796C75.3219 6.14649 37.4983 12.9493 18.3652 40.4741C-0.767843 67.9988 6.03489 105.823 33.5596 124.956C61.0844 144.089 98.9081 137.286 118.041 109.761Z" fill="black" stroke="black" stroke-width="0.998649" stroke-linecap="round" stroke-linejoin="round"/>
<path d="M67.477 52.6197C68.0291 55.7333 69.4922 58.6132 71.6813 60.8951C73.8704 63.177 76.6872 64.7584 79.7752 65.4392C82.8633 66.1199 86.0837 65.8695 89.0294 64.7196C91.9751 63.5696 94.5136 61.5719 96.3236 58.979C98.1337 56.3861 99.1339 53.3147 99.1981 50.1532C99.2622 46.9917 98.3872 43.8821 96.6838 41.218C94.9803 38.5539 92.525 36.4549 89.6284 35.1865C86.7318 33.9181 83.524 33.5373 80.411 34.0923C76.2427 34.8414 72.5411 37.2118 70.1169 40.6844C67.6927 44.157 66.7434 48.4487 67.477 52.6197Z" fill="black" stroke="black" stroke-linecap="round" stroke-linejoin="round"/>
<path d="M67.477 52.6198C67.7898 54.3952 68.6223 56.038 69.8693 57.34C71.1163 58.642 72.7215 59.5447 74.4818 59.9339C76.2421 60.323 78.0784 60.181 79.758 59.5259C81.4375 58.8707 82.8849 57.732 83.9169 56.2537C84.9489 54.7755 85.5189 53.0243 85.555 51.2219C85.5911 49.4195 85.0916 47.6468 84.1196 46.1285C83.1476 44.6101 81.7469 43.4144 80.0949 42.6926C78.4429 41.9708 76.6139 41.7554 74.8394 42.0737C72.4664 42.4995 70.359 43.8486 68.9789 45.8254C67.5989 47.8022 67.0588 50.2455 67.477 52.6198Z" fill="black"/>
<path d="M25.536 60.1811C26.0921 63.2884 27.557 66.161 29.7455 68.4359C31.9341 70.7107 34.748 72.2856 37.8315 72.9614C40.915 73.6372 44.1295 73.3837 47.0689 72.2328C50.0083 71.0819 52.5405 69.0853 54.3453 66.4955C56.1502 63.9057 57.1466 60.8389 57.2087 57.6828C57.2708 54.5268 56.3958 51.4232 54.6943 48.7643C52.9928 46.1055 50.5411 44.0108 47.6493 42.7452C44.7575 41.4795 41.5553 41.0997 38.4476 41.6536C36.383 42.0217 34.4111 42.793 32.6447 43.9234C30.8782 45.0539 29.3519 46.5213 28.1528 48.2419C26.9537 49.9625 26.1054 51.9026 25.6564 53.9512C25.2074 55.9997 25.1665 58.1167 25.536 60.1811Z" fill="black" stroke="black" stroke-linecap="round" stroke-linejoin="round"/>
<path d="M25.5361 60.1811C25.857 61.9484 26.6944 63.581 27.9427 64.8726C29.1909 66.1642 30.794 67.0568 32.5494 67.4378C34.3047 67.8188 36.1336 67.671 37.805 67.0131C39.4764 66.3552 40.9153 65.2167 41.9399 63.7415C42.9646 62.2662 43.5292 60.5203 43.5621 58.7244C43.595 56.9285 43.095 55.1631 42.1251 53.6512C41.1552 52.1393 39.759 50.9489 38.1128 50.2301C36.4667 49.5114 34.6445 49.2966 32.8763 49.6129C30.5029 50.0436 28.3971 51.3981 27.021 53.3793C25.6449 55.3605 25.1109 57.8066 25.5361 60.1811Z" fill="black"/>
<path d="M49.3256 77.8684C49.7175 80.062 50.5376 82.1568 51.7392 84.0334C52.9407 85.9099 54.5001 87.5314 56.3283 88.8053C58.1565 90.0792 60.2177 90.9806 62.3943 91.4579C64.5709 91.9352 66.8202 91.9791 69.0137 91.5871C71.2072 91.1952 73.302 90.375 75.1786 89.1734C77.0551 87.9719 78.6767 86.4125 79.9506 84.5843C81.2245 82.7561 82.1259 80.6949 82.6032 78.5183C83.0805 76.3418 83.1244 74.0925 82.7324 71.8989" stroke="black" stroke-linecap="round" stroke-linejoin="round"/>
</g>
<path d="M115.83 107.528C134.963 80.0032 128.16 42.1796 100.636 23.0465C73.111 3.91345 35.2873 10.7163 16.1543 38.241C-2.97878 65.7658 3.82395 103.59 31.3487 122.723C58.8735 141.856 96.6972 135.053 115.83 107.528Z" fill="#FDC0C0" stroke="black" stroke-width="0.998649" stroke-linecap="round" stroke-linejoin="round"/>
<path d="M65.2661 50.4088C65.8181 53.5224 67.2813 56.4023 69.4704 58.6842C71.6595 60.9661 74.4763 62.5475 77.5643 63.2282C80.6523 63.909 83.8728 63.6586 86.8185 62.5086C89.7641 61.3587 92.3026 59.3609 94.1127 56.7681C95.9227 54.1752 96.923 51.1037 96.9871 47.9422C97.0512 44.7807 96.1763 41.6712 94.4729 39.0071C92.7694 36.343 90.3141 34.244 87.4175 32.9756C84.5209 31.7072 81.3131 31.3264 78.2 31.8814C74.0317 32.6304 70.3302 35.0008 67.906 38.4734C65.4818 41.946 64.5325 46.2378 65.2661 50.4088Z" fill="white" stroke="black" stroke-linecap="round" stroke-linejoin="round"/>
<path d="M65.2661 50.4088C65.5788 52.1843 66.4114 53.8271 67.6584 55.1291C68.9053 56.4311 70.5105 57.3338 72.2709 57.7229C74.0312 58.112 75.8675 57.97 77.547 57.3149C79.2266 56.6598 80.674 55.521 81.706 54.0428C82.7379 52.5646 83.308 50.8134 83.3441 49.011C83.3801 47.2085 82.8806 45.4359 81.9087 43.9175C80.9367 42.3992 79.536 41.2035 77.884 40.4817C76.232 39.7599 74.4029 39.5445 72.6285 39.8628C70.2555 40.2885 68.148 41.6376 66.768 43.6144C65.388 45.5913 64.8478 48.0345 65.2661 50.4088Z" fill="black"/>
<path d="M23.325 57.9702C23.8812 61.0774 25.3461 63.9501 27.5346 66.2249C29.7232 68.4997 32.5371 70.0746 35.6206 70.7505C38.704 71.4263 41.9186 71.1727 44.858 70.0218C47.7974 68.8709 50.3296 66.8744 52.1344 64.2846C53.9392 61.6948 54.9356 58.6279 54.9978 55.4719C55.0599 52.3158 54.1849 49.2122 52.4834 46.5534C50.7818 43.8946 48.3302 41.7999 45.4384 40.5342C42.5466 39.2686 39.3444 38.8887 36.2367 39.4427C34.172 39.8107 32.2002 40.5821 30.4337 41.7125C28.6673 42.843 27.141 44.3104 25.9419 46.031C24.7428 47.7516 23.8944 49.6916 23.4454 51.7402C22.9964 53.7888 22.9556 55.9058 23.325 57.9702Z" fill="white" stroke="black" stroke-linecap="round" stroke-linejoin="round"/>
<path d="M23.3251 57.9702C23.646 59.7375 24.4835 61.3701 25.7317 62.6617C26.98 63.9533 28.5831 64.8459 30.3384 65.2269C32.0938 65.6079 33.9227 65.4601 35.5941 64.8022C37.2655 64.1443 38.7043 63.0058 39.729 61.5305C40.7537 60.0553 41.3182 58.3094 41.3512 56.5135C41.3841 54.7176 40.884 52.9521 39.9142 51.4403C38.9443 49.9284 37.548 48.7379 35.9019 48.0192C34.2557 47.3004 32.4335 47.0857 30.6654 47.402C28.2919 47.8327 26.1861 49.1872 24.8101 51.1684C23.434 53.1496 22.9 55.5957 23.3251 57.9702Z" fill="black"/>
<path d="M47.1146 75.6575C47.5066 77.851 48.3267 79.9459 49.5282 81.8224C50.7298 83.699 52.2892 85.3205 54.1174 86.5944C55.9456 87.8683 58.0068 88.7697 60.1834 89.247C62.3599 89.7243 64.6092 89.7681 66.8027 89.3762C68.9963 88.9842 71.0911 88.1641 72.9676 86.9625C74.8442 85.761 76.4657 84.2016 77.7396 82.3734C79.0135 80.5451 79.9149 78.4839 80.3922 76.3074C80.8695 74.1308 80.9135 71.8815 80.5215 69.688" stroke="black" stroke-linecap="round" stroke-linejoin="round"/>
</g>
<defs>
<clipPath id="clip0_33_2060">
<rect width="126" height="126" fill="white"/>
</clipPath>
</defs>
</svg>
