<svg width="117" height="136" viewBox="0 0 117 136" fill="none" xmlns="http://www.w3.org/2000/svg">
<g clip-path="url(#clip0_33_2101)">
<g style="mix-blend-mode:multiply">
<path d="M-4.99469 95.7536L-0.706665 101.562L70.4261 49.0434L66.1381 43.2355L-4.99469 95.7536Z" fill="black" stroke="black" stroke-width="1.0017" stroke-linecap="round" stroke-linejoin="round"/>
<path d="M102.362 40.6009C102.294 26.2111 90.5738 14.6011 76.184 14.6692C61.7942 14.7374 50.1842 26.4579 50.2523 40.8477C50.3205 55.2375 62.041 66.8475 76.4308 66.7793C90.8206 66.7112 102.431 54.9907 102.362 40.6009Z" fill="black" stroke="black" stroke-linecap="round" stroke-linejoin="round"/>
<path d="M86.0164 65.2469C72.6289 54.3075 62.2182 40.1669 55.7481 24.1347C55.2904 22.8253 55.2506 21.4061 55.6339 20.0731C56.0172 18.74 56.8049 17.5588 57.8882 16.6925L58.8133 16.0116C59.2651 15.6353 59.8041 15.3785 60.3809 15.2645C60.9577 15.1505 61.5539 15.1831 62.1148 15.3592C62.6758 15.5354 63.1836 15.8494 63.5917 16.2726C63.9999 16.6958 64.2953 17.2147 64.451 17.7816C70.9289 33.8095 81.3383 47.9482 94.7193 58.8939C95.2068 59.2127 95.6071 59.6481 95.8839 60.1607C96.1606 60.6733 96.305 61.2468 96.3041 61.8294C96.3031 62.4119 96.1569 62.985 95.8785 63.4967C95.6001 64.0084 95.1983 64.4425 94.7098 64.7597L93.7953 65.4494C92.6383 66.2278 91.2676 66.6265 89.8735 66.5903C88.4795 66.554 87.1314 66.0845 86.0164 65.2469Z" fill="black"/>
<path d="M86.0164 65.2469C72.6289 54.3075 62.2182 40.1669 55.7481 24.1347C55.2904 22.8253 55.2506 21.4061 55.6339 20.0731C56.0172 18.74 56.8049 17.5588 57.8882 16.6925L58.8133 16.0116C59.2651 15.6353 59.8041 15.3785 60.3809 15.2645C60.9577 15.1505 61.5539 15.1831 62.1148 15.3592C62.6758 15.5354 63.1836 15.8494 63.5917 16.2726C63.9999 16.6958 64.2953 17.2147 64.451 17.7816C70.9289 33.8095 81.3383 47.9482 94.7193 58.8939C95.2068 59.2127 95.6071 59.6481 95.8839 60.1607C96.1606 60.6733 96.305 61.2468 96.3041 61.8294C96.3031 62.4119 96.1568 62.985 95.8784 63.4967C95.6 64.0084 95.1983 64.4425 94.7098 64.7597L93.7953 65.4494C92.6383 66.2278 91.2676 66.6265 89.8735 66.5903C88.4795 66.554 87.1313 66.0845 86.0164 65.2469Z" stroke="black" stroke-linecap="round" stroke-linejoin="round"/>
<path d="M86.0164 65.2469C72.6289 54.3075 62.2182 40.1669 55.7481 24.1347C55.2904 22.8253 55.2506 21.4061 55.6339 20.0731C56.0172 18.74 56.8049 17.5588 57.8882 16.6925L58.8133 16.0116C59.2651 15.6353 59.8041 15.3785 60.3809 15.2645C60.9577 15.1505 61.5539 15.1831 62.1148 15.3592C62.6758 15.5354 63.1836 15.8494 63.5917 16.2726C63.9999 16.6958 64.2953 17.2147 64.451 17.7816C70.9289 33.8095 81.3383 47.9482 94.7193 58.8939C95.2068 59.2127 95.6071 59.6481 95.8839 60.1607C96.1606 60.6733 96.305 61.2468 96.3041 61.8294C96.3031 62.4119 96.1569 62.985 95.8785 63.4967C95.6001 64.0084 95.1983 64.4425 94.7098 64.7597L93.7953 65.4494C92.6383 66.2278 91.2676 66.6265 89.8735 66.5903C88.4795 66.554 87.1314 66.0845 86.0164 65.2469Z" fill="black" stroke="black" stroke-linecap="round" stroke-linejoin="round"/>
</g>
<path d="M-6.91522 95.9616L-2.6272 101.769L68.5055 49.2513L64.2175 43.4434L-6.91522 95.9616Z" fill="#E1B02A" stroke="black" stroke-width="1.0017" stroke-linecap="round" stroke-linejoin="round"/>
<path d="M100.435 40.7987C100.367 26.4089 88.6464 14.7989 74.2566 14.867C59.8668 14.9352 48.2568 26.6556 48.325 41.0454C48.3931 55.4352 60.1136 67.0453 74.5034 66.9771C88.8932 66.909 100.503 55.1885 100.435 40.7987Z" fill="#82BC68" stroke="black" stroke-linecap="round" stroke-linejoin="round"/>
<path d="M84.0852 65.4462C70.6978 54.5067 60.287 40.3662 53.8169 24.334C53.3593 23.0246 53.3194 21.6054 53.7027 20.2723C54.0861 18.9393 54.8737 17.7581 55.957 16.8918L56.8821 16.2108C57.334 15.8346 57.873 15.5778 58.4497 15.4638C59.0265 15.3498 59.6227 15.3824 60.1837 15.5585C60.7446 15.7346 61.2524 16.0487 61.6606 16.4719C62.0687 16.8951 62.3641 17.4139 62.5198 17.9809C68.9977 34.0088 79.4072 48.1475 92.7881 59.0931C93.2757 59.4119 93.676 59.8474 93.9527 60.36C94.2294 60.8726 94.3739 61.4461 94.3729 62.0286C94.372 62.6112 94.2257 63.1843 93.9473 63.696C93.6689 64.2077 93.2672 64.6418 92.7786 64.959L91.8642 65.6486C90.7071 66.4271 89.3364 66.8258 87.9424 66.7895C86.5483 66.7533 85.2002 66.2837 84.0852 65.4462Z" fill="#F6E4E4"/>
<path d="M84.0852 65.4462C70.6978 54.5067 60.287 40.3662 53.8169 24.334C53.3593 23.0246 53.3194 21.6054 53.7027 20.2723C54.0861 18.9393 54.8737 17.7581 55.957 16.8918L56.8821 16.2108C57.334 15.8346 57.8729 15.5778 58.4497 15.4638C59.0265 15.3498 59.6227 15.3824 60.1837 15.5585C60.7446 15.7346 61.2524 16.0487 61.6606 16.4719C62.0687 16.8951 62.3641 17.4139 62.5198 17.9809C68.9977 34.0088 79.4072 48.1475 92.7881 59.0931C93.2757 59.4119 93.676 59.8474 93.9527 60.36C94.2294 60.8726 94.3739 61.4461 94.3729 62.0286C94.372 62.6112 94.2257 63.1843 93.9473 63.696C93.6689 64.2077 93.2672 64.6418 92.7786 64.959L91.8642 65.6486C90.7071 66.4271 89.3364 66.8258 87.9424 66.7895C86.5483 66.7533 85.2002 66.2837 84.0852 65.4462V65.4462Z" stroke="black" stroke-linecap="round" stroke-linejoin="round"/>
<path d="M84.0852 65.4462C70.6978 54.5067 60.287 40.3662 53.8169 24.334C53.3593 23.0246 53.3194 21.6054 53.7027 20.2723C54.0861 18.9393 54.8737 17.7581 55.957 16.8918L56.8821 16.2108C57.334 15.8346 57.873 15.5778 58.4497 15.4638C59.0265 15.3498 59.6227 15.3824 60.1837 15.5585C60.7446 15.7346 61.2524 16.0487 61.6606 16.4719C62.0687 16.8951 62.3641 17.4139 62.5198 17.9809C68.9977 34.0088 79.4072 48.1475 92.7881 59.0931C93.2757 59.4119 93.676 59.8474 93.9527 60.36C94.2294 60.8726 94.3739 61.4461 94.3729 62.0286C94.372 62.6112 94.2257 63.1843 93.9473 63.696C93.6689 64.2077 93.2672 64.6418 92.7786 64.959L91.8642 65.6486C90.7071 66.4271 89.3364 66.8258 87.9424 66.7895C86.5483 66.7533 85.2002 66.2837 84.0852 65.4462Z" fill="#BDEDA4" stroke="black" stroke-linecap="round" stroke-linejoin="round"/>
</g>
<defs>
<clipPath id="clip0_33_2101">
<rect width="124.648" height="61.8849" fill="white" transform="translate(-10 96.7209) rotate(-50.8913)"/>
</clipPath>
</defs>
</svg>
