<svg width="236" height="220" viewBox="0 0 236 220" fill="none" xmlns="http://www.w3.org/2000/svg">
<g clip-path="url(#clip0_1_164)">
<path fill-rule="evenodd" clip-rule="evenodd" d="M137.995 83.3597H98.0171V83.2808H137.995V83.3597Z" fill="#808080" fill-opacity="0.1"/>
<path fill-rule="evenodd" clip-rule="evenodd" d="M137.995 84.6674H98.0171V84.5884H137.995V84.6674Z" fill="#808080" fill-opacity="0.1"/>
<path fill-rule="evenodd" clip-rule="evenodd" d="M137.995 85.975H98.0171V85.8961H137.995V85.975Z" fill="#808080" fill-opacity="0.1"/>
<path fill-rule="evenodd" clip-rule="evenodd" d="M137.995 87.2827H98.0171V87.2037H137.995V87.2827Z" fill="#808080" fill-opacity="0.1"/>
<path fill-rule="evenodd" clip-rule="evenodd" d="M137.995 88.5903H98.0171V88.5114H137.995V88.5903Z" fill="#808080" fill-opacity="0.1"/>
<path fill-rule="evenodd" clip-rule="evenodd" d="M137.995 89.898H98.0171V89.8191H137.995V89.898Z" fill="#808080" fill-opacity="0.1"/>
<path fill-rule="evenodd" clip-rule="evenodd" d="M137.995 91.2056H98.0171V91.1267H137.995V91.2056Z" fill="#808080" fill-opacity="0.1"/>
<path fill-rule="evenodd" clip-rule="evenodd" d="M137.995 92.5133H98.0171V92.4344H137.995V92.5133Z" fill="#808080" fill-opacity="0.1"/>
<path fill-rule="evenodd" clip-rule="evenodd" d="M137.995 93.8209H98.0171V93.742H137.995V93.8209Z" fill="#808080" fill-opacity="0.1"/>
<path fill-rule="evenodd" clip-rule="evenodd" d="M137.995 95.1286H98.0171V95.0496H137.995V95.1286Z" fill="#808080" fill-opacity="0.1"/>
<path fill-rule="evenodd" clip-rule="evenodd" d="M137.995 96.4362H98.0171V96.3573H137.995V96.4362Z" fill="#808080" fill-opacity="0.1"/>
<path fill-rule="evenodd" clip-rule="evenodd" d="M137.995 97.7439H98.0171V97.6649H137.995V97.7439Z" fill="#808080" fill-opacity="0.1"/>
<path fill-rule="evenodd" clip-rule="evenodd" d="M137.995 99.0515H98.0171V98.9726H137.995V99.0515Z" fill="#808080" fill-opacity="0.1"/>
<path fill-rule="evenodd" clip-rule="evenodd" d="M137.995 100.359H98.0171V100.28H137.995V100.359Z" fill="#808080" fill-opacity="0.1"/>
<path fill-rule="evenodd" clip-rule="evenodd" d="M137.995 101.667H98.0171V101.588H137.995V101.667Z" fill="#808080" fill-opacity="0.1"/>
<path fill-rule="evenodd" clip-rule="evenodd" d="M137.995 102.974H98.0171V102.896H137.995V102.974Z" fill="#808080" fill-opacity="0.1"/>
<path fill-rule="evenodd" clip-rule="evenodd" d="M137.995 104.282H98.0171V104.203H137.995V104.282Z" fill="#808080" fill-opacity="0.1"/>
<path fill-rule="evenodd" clip-rule="evenodd" d="M137.995 105.59H98.0171V105.511H137.995V105.59Z" fill="#808080" fill-opacity="0.1"/>
<path fill-rule="evenodd" clip-rule="evenodd" d="M137.995 106.897H98.0171V106.818H137.995V106.897Z" fill="#808080" fill-opacity="0.1"/>
<path fill-rule="evenodd" clip-rule="evenodd" d="M137.995 108.205H98.0171V108.126H137.995V108.205Z" fill="#808080" fill-opacity="0.1"/>
<path fill-rule="evenodd" clip-rule="evenodd" d="M137.995 109.513H98.0171V109.434H137.995V109.513Z" fill="#808080" fill-opacity="0.1"/>
<path fill-rule="evenodd" clip-rule="evenodd" d="M137.995 110.82H98.0171V110.741H137.995V110.82Z" fill="#808080" fill-opacity="0.1"/>
<path fill-rule="evenodd" clip-rule="evenodd" d="M137.995 112.128H98.0171V112.049H137.995V112.128Z" fill="#808080" fill-opacity="0.1"/>
<path fill-rule="evenodd" clip-rule="evenodd" d="M137.995 113.436H98.0171V113.357H137.995V113.436Z" fill="#808080" fill-opacity="0.1"/>
<path fill-rule="evenodd" clip-rule="evenodd" d="M137.995 114.743H98.0171V114.664H137.995V114.743Z" fill="#808080" fill-opacity="0.1"/>
<path fill-rule="evenodd" clip-rule="evenodd" d="M137.995 116.051H98.0171V115.972H137.995V116.051Z" fill="#808080" fill-opacity="0.1"/>
<path fill-rule="evenodd" clip-rule="evenodd" d="M137.995 117.359H98.0171V117.28H137.995V117.359Z" fill="#808080" fill-opacity="0.1"/>
<path fill-rule="evenodd" clip-rule="evenodd" d="M137.995 118.666H98.0171V118.587H137.995V118.666Z" fill="#808080" fill-opacity="0.1"/>
<path fill-rule="evenodd" clip-rule="evenodd" d="M137.995 119.974H98.0171V119.895H137.995V119.974Z" fill="#808080" fill-opacity="0.1"/>
<path fill-rule="evenodd" clip-rule="evenodd" d="M137.995 121.282H98.0171V121.203H137.995V121.282Z" fill="#808080" fill-opacity="0.1"/>
<path fill-rule="evenodd" clip-rule="evenodd" d="M137.995 122.589H98.0171V122.51H137.995V122.589Z" fill="#808080" fill-opacity="0.1"/>
<path fill-rule="evenodd" clip-rule="evenodd" d="M137.995 123.897H98.0171V123.818H137.995V123.897Z" fill="#808080" fill-opacity="0.1"/>
<path fill-rule="evenodd" clip-rule="evenodd" d="M137.995 125.204H98.0171V125.126H137.995V125.204Z" fill="#808080" fill-opacity="0.1"/>
<path fill-rule="evenodd" clip-rule="evenodd" d="M137.995 126.512H98.0171V126.433H137.995V126.512Z" fill="#808080" fill-opacity="0.1"/>
<path fill-rule="evenodd" clip-rule="evenodd" d="M137.995 127.82H98.0171V127.741H137.995V127.82Z" fill="#808080" fill-opacity="0.1"/>
<path fill-rule="evenodd" clip-rule="evenodd" d="M137.995 129.127H98.0171V129.048H137.995V129.127Z" fill="#808080" fill-opacity="0.1"/>
<path fill-rule="evenodd" clip-rule="evenodd" d="M137.995 130.435H98.0171V130.356H137.995V130.435Z" fill="#808080" fill-opacity="0.1"/>
<path fill-rule="evenodd" clip-rule="evenodd" d="M137.995 131.743H98.0171V131.664H137.995V131.743Z" fill="#808080" fill-opacity="0.1"/>
<path fill-rule="evenodd" clip-rule="evenodd" d="M137.995 133.05H98.0171V132.971H137.995V133.05Z" fill="#808080" fill-opacity="0.1"/>
<path fill-rule="evenodd" clip-rule="evenodd" d="M137.995 134.358H98.0171V134.279H137.995V134.358Z" fill="#808080" fill-opacity="0.1"/>
<path fill-rule="evenodd" clip-rule="evenodd" d="M137.995 135.666H98.0171V135.587H137.995V135.666Z" fill="#808080" fill-opacity="0.1"/>
<path fill-rule="evenodd" clip-rule="evenodd" d="M137.995 136.973H98.0171V136.894H137.995V136.973Z" fill="#808080" fill-opacity="0.1"/>
<path fill-rule="evenodd" clip-rule="evenodd" d="M137.995 138.281H98.0171V138.202H137.995V138.281Z" fill="#808080" fill-opacity="0.1"/>
<path fill-rule="evenodd" clip-rule="evenodd" d="M137.995 139.589H98.0171V139.51H137.995V139.589Z" fill="#808080" fill-opacity="0.1"/>
<path fill-rule="evenodd" clip-rule="evenodd" d="M137.995 140.896H98.0171V140.817H137.995V140.896Z" fill="#808080" fill-opacity="0.1"/>
<path fill-rule="evenodd" clip-rule="evenodd" d="M137.995 142.204H98.0171V142.125H137.995V142.204Z" fill="#808080" fill-opacity="0.1"/>
<path fill-rule="evenodd" clip-rule="evenodd" d="M137.995 143.512H98.0171V143.433H137.995V143.512Z" fill="#808080" fill-opacity="0.1"/>
<path fill-rule="evenodd" clip-rule="evenodd" d="M137.995 144.819H98.0171V144.74H137.995V144.819Z" fill="#808080" fill-opacity="0.1"/>
<path fill-rule="evenodd" clip-rule="evenodd" d="M137.995 146.127H98.0171V146.048H137.995V146.127Z" fill="#808080" fill-opacity="0.1"/>
<path fill-rule="evenodd" clip-rule="evenodd" d="M99.9459 146.538V82.8722H100.034V146.538H99.9459Z" fill="#808080" fill-opacity="0.1"/>
<path fill-rule="evenodd" clip-rule="evenodd" d="M101.261 146.538V82.8722H101.349V146.538H101.261Z" fill="#808080" fill-opacity="0.1"/>
<path fill-rule="evenodd" clip-rule="evenodd" d="M102.576 146.538V82.8722H102.664V146.538H102.576Z" fill="#808080" fill-opacity="0.1"/>
<path fill-rule="evenodd" clip-rule="evenodd" d="M103.891 146.538V82.8722H103.979V146.538H103.891Z" fill="#808080" fill-opacity="0.1"/>
<path fill-rule="evenodd" clip-rule="evenodd" d="M105.206 146.538V82.8722H105.294V146.538H105.206Z" fill="#808080" fill-opacity="0.1"/>
<path fill-rule="evenodd" clip-rule="evenodd" d="M106.521 146.538V82.8722H106.609V146.538H106.521Z" fill="#808080" fill-opacity="0.1"/>
<path fill-rule="evenodd" clip-rule="evenodd" d="M107.836 146.538V82.8722H107.924V146.538H107.836Z" fill="#808080" fill-opacity="0.1"/>
<path fill-rule="evenodd" clip-rule="evenodd" d="M109.151 146.538V82.8722H109.239V146.538H109.151Z" fill="#808080" fill-opacity="0.1"/>
<path fill-rule="evenodd" clip-rule="evenodd" d="M110.467 146.538V82.8722H110.554V146.538H110.467Z" fill="#808080" fill-opacity="0.1"/>
<path fill-rule="evenodd" clip-rule="evenodd" d="M111.782 146.538V82.8722H111.869V146.538H111.782Z" fill="#808080" fill-opacity="0.1"/>
<path fill-rule="evenodd" clip-rule="evenodd" d="M113.097 146.538V82.8722H113.184V146.538H113.097Z" fill="#808080" fill-opacity="0.1"/>
<path fill-rule="evenodd" clip-rule="evenodd" d="M114.412 146.538V82.8722H114.499V146.538H114.412Z" fill="#808080" fill-opacity="0.1"/>
<path fill-rule="evenodd" clip-rule="evenodd" d="M115.727 146.538V82.8722H115.815V146.538H115.727Z" fill="#808080" fill-opacity="0.1"/>
<path fill-rule="evenodd" clip-rule="evenodd" d="M117.042 146.538V82.8722H117.13V146.538H117.042Z" fill="#808080" fill-opacity="0.1"/>
<path fill-rule="evenodd" clip-rule="evenodd" d="M118.357 146.538V82.8722H118.445V146.538H118.357Z" fill="#808080" fill-opacity="0.1"/>
<path fill-rule="evenodd" clip-rule="evenodd" d="M119.672 146.538V82.8722H119.76V146.538H119.672Z" fill="#808080" fill-opacity="0.1"/>
<path fill-rule="evenodd" clip-rule="evenodd" d="M120.987 146.538V82.8722H121.075V146.538H120.987Z" fill="#808080" fill-opacity="0.1"/>
<path fill-rule="evenodd" clip-rule="evenodd" d="M122.302 146.538V82.8722H122.39V146.538H122.302Z" fill="#808080" fill-opacity="0.1"/>
<path fill-rule="evenodd" clip-rule="evenodd" d="M123.617 146.538V82.8722H123.705V146.538H123.617Z" fill="#808080" fill-opacity="0.1"/>
<path fill-rule="evenodd" clip-rule="evenodd" d="M124.932 146.538V82.8722H125.02V146.538H124.932Z" fill="#808080" fill-opacity="0.1"/>
<path fill-rule="evenodd" clip-rule="evenodd" d="M126.247 146.538V82.8722H126.335V146.538H126.247Z" fill="#808080" fill-opacity="0.1"/>
<path fill-rule="evenodd" clip-rule="evenodd" d="M127.563 146.538V82.8722H127.65V146.538H127.563Z" fill="#808080" fill-opacity="0.1"/>
<path fill-rule="evenodd" clip-rule="evenodd" d="M128.878 146.538V82.8722H128.965V146.538H128.878Z" fill="#808080" fill-opacity="0.1"/>
<path fill-rule="evenodd" clip-rule="evenodd" d="M130.193 146.538V82.8722H130.28V146.538H130.193Z" fill="#808080" fill-opacity="0.1"/>
<path fill-rule="evenodd" clip-rule="evenodd" d="M131.508 146.538V82.8722H131.595V146.538H131.508Z" fill="#808080" fill-opacity="0.1"/>
<path fill-rule="evenodd" clip-rule="evenodd" d="M132.823 146.538V82.8722H132.911V146.538H132.823Z" fill="#808080" fill-opacity="0.1"/>
<path fill-rule="evenodd" clip-rule="evenodd" d="M134.138 146.538V82.8722H134.226V146.538H134.138Z" fill="#808080" fill-opacity="0.1"/>
<path fill-rule="evenodd" clip-rule="evenodd" d="M135.453 146.538V82.8722H135.541V146.538H135.453Z" fill="#808080" fill-opacity="0.1"/>
<path fill-rule="evenodd" clip-rule="evenodd" d="M136.768 146.538V82.8722H136.856V146.538H136.768Z" fill="#808080" fill-opacity="0.1"/>
<g clip-path="url(#clip1_1_164)">
<path d="M146.933 106.266C147.046 105.645 147.021 105.009 146.861 104.398C146.7 103.786 146.408 103.211 146.001 102.709C142.426 103.839 138.49 103.915 134.765 104.24C131.508 104.52 127.462 105.426 124.121 104.69C121.904 105.845 119.152 107.52 120.55 109.824C121.421 111.25 124.905 110.765 126.386 110.763C128.182 110.754 129.981 110.68 131.773 110.572C135.487 110.342 139.178 109.867 142.82 109.152C144.91 108.727 146.631 108.528 146.933 106.266Z" fill="#F2B879"/>
<path d="M65.5425 120.529C68.3344 119.247 71.1848 118.087 74.0938 117.049C79.8249 114.986 85.7508 113.427 91.794 112.395C98.2709 111.311 104.962 110.882 111.435 112.24C112.949 112.558 114.443 112.956 115.908 113.432C116.812 113.683 117.698 113.985 118.561 114.338C119.211 113.592 120.067 113.025 121.036 112.7C120.352 112.513 119.732 112.163 119.238 111.684C118.743 111.206 118.391 110.616 118.216 109.972C117.422 107.1 119.334 104.976 121.836 103.778C119.568 102.406 118.395 99.7949 119.893 97.4345C121.626 94.6963 125.653 93.653 128.743 92.9706C132.504 92.1334 136.383 91.916 140.165 91.1768C142.229 90.7816 144.609 90.272 146.277 88.9948C147.944 87.7175 148.462 85.7421 146.826 84.3214C144.146 81.9826 139.116 81.5838 135.666 81.2607C131.77 80.8974 127.983 81.4026 124.128 81.4817C124.194 82.5255 124.238 83.5533 124.261 84.5522C124.306 86.3427 121.367 86.7682 121.248 84.9288C120.682 76.1564 120.092 64.3143 110.686 59.892C112.056 65.7886 113.643 71.8441 113.705 77.8408C113.76 82.6993 112.475 87.7755 108.811 91.3959C105.435 94.7373 100.653 96.5557 95.8312 97.1695C89.8313 97.9327 83.7509 96.9304 77.8204 96.1083C72.0037 95.3039 66.1015 94.6989 60.3702 93.4551C60.3339 96.5183 60.303 99.5767 60.2775 102.63C60.2179 109.473 60.1852 116.315 60.1796 123.158C60.5838 122.95 60.9965 122.756 61.4047 122.544C62.7634 121.836 64.1477 121.17 65.5425 120.529Z" fill="#F2B879"/>
<path d="M143.008 112.012C141.871 112.197 140.727 112.327 139.686 112.478C136.719 112.911 133.726 113.172 130.725 113.259C128.69 113.313 126.563 113.362 124.493 113.224C124.434 113.295 124.359 113.353 124.274 113.393C123.095 113.934 121.195 114.363 120.737 115.686C120.057 117.667 122.757 117.839 124.199 117.769C127.172 117.64 130.146 117.318 133.112 117.096C134.606 116.983 136.098 116.884 137.59 116.781C138.894 116.69 140.419 116.729 141.615 116.164C143.501 115.28 143.414 113.602 143.008 112.012Z" fill="#F2B879"/>
<path d="M139.671 119.773C139.592 119.652 139.534 119.52 139.498 119.383C139.344 119.399 139.191 119.413 139.034 119.423C136.322 119.62 133.6 119.765 130.884 119.919C128.715 120.042 125.38 120.667 122.612 120.302C122.09 120.765 121.578 121.222 121.466 121.921C121.231 123.361 122.766 123.809 124.1 123.899C126.193 124.05 128.275 123.486 130.291 123.009C132.286 122.49 134.341 122.199 136.412 122.143C137.421 122.137 139.124 122.31 139.949 121.606C140.876 120.813 140.17 120.484 139.671 119.773Z" fill="#F2B879"/>
<path d="M60.8125 59.4717C60.6659 70.1258 60.5166 80.7992 60.3961 91.4435C67.3356 91.7791 74.2724 93.0018 81.1356 93.8833C87.7787 94.7269 94.8477 95.503 101.198 92.9699C107.642 90.3961 110.654 84.8686 110.745 78.5035C110.842 71.6363 108.616 64.6022 107.291 57.8864C107.076 56.7975 108.314 56.1723 109.289 56.4704C119.94 59.7129 123.113 70.1378 123.986 79.6756C127.444 78.6027 131.444 78.6111 134.986 78.7716C138.775 78.9503 143.098 79.3811 146.543 80.9723C148.938 82.0784 150.953 84.0173 150.745 86.6762C150.724 86.8182 150.704 86.9569 150.683 87.0957C155.249 91.4686 153.702 98.2667 148.732 101.435C151.159 103.696 150.063 109.22 147.38 110.687C146.874 110.955 146.342 111.179 145.791 111.357C146.827 113.289 146.142 116.075 144.487 117.601C143.993 118.05 143.416 118.412 142.783 118.669C143.794 119.955 143.579 122.439 142.196 123.578C140.813 124.717 139.145 124.913 137.413 124.943C135.139 124.973 132.875 125.236 130.662 125.729C127.358 126.433 122.416 127.505 119.89 124.643C118.492 123.062 118.88 120.939 120.267 119.652C119.44 119.253 118.773 118.616 118.364 117.836C118.131 117.414 117.982 116.957 117.923 116.485C115.955 115.598 110.949 114.528 110.398 114.442C107.664 113.991 104.883 113.838 102.111 113.984C96.924 114.279 91.7228 115.295 86.6887 116.47C81.7552 117.627 76.9258 119.14 72.2442 120.996C69.8893 121.926 67.5764 122.938 65.3056 124.032C63.7874 124.77 61.973 126.111 60.1897 126.515C60.1873 129.475 60.1887 132.434 60.1938 135.39C60.1994 138.32 60.4505 141.379 60.1301 144.32C68.4874 144.339 76.887 144.962 85.2239 145.386C100.995 146.186 116.756 147.224 132.503 148.383C140.503 148.96 148.499 149.593 156.492 150.282C160.425 150.617 164.355 150.962 168.283 151.316C172.031 151.657 176.046 151.684 179.72 152.509C180.368 151.815 180.271 150.136 180.276 149.404C180.291 147.269 180.293 145.133 180.316 143.003C180.366 138.846 180.422 134.699 180.483 130.563C180.714 115.874 181.074 101.186 181.563 86.5009C182.065 72.1548 182.517 57.7956 183.619 43.4763C174.693 43.3945 165.769 43.0732 156.856 42.6118C140.71 41.7742 124.6 40.4878 108.474 39.3898C92.7337 38.308 76.977 37.6021 61.2158 37.0468C61.1979 37.1694 61.1795 37.2953 61.1611 37.4211C61.5133 40.8021 61.142 44.3804 61.0674 47.7138C60.9652 51.6221 60.8607 55.5466 60.8125 59.4717ZM93.6783 124.618C91.8258 126.871 88.4849 128.452 85.9524 129.977C83.2826 131.632 80.5038 133.128 77.6324 134.456C76.8591 134.802 76.2533 133.735 76.9027 133.272C79.474 131.433 82.1716 129.767 84.8157 128.032C87.2022 126.468 89.7534 124.162 92.5107 123.198C92.7121 123.127 92.9326 123.119 93.1396 123.174C93.3466 123.229 93.529 123.345 93.66 123.504C93.7909 123.663 93.8634 123.858 93.8667 124.058C93.87 124.259 93.8039 124.455 93.6783 124.618ZM124.748 142.389C124.717 142.558 124.623 142.712 124.482 142.823C124.341 142.934 124.163 142.995 123.978 142.995C123.794 142.995 123.615 142.934 123.475 142.823C123.334 142.711 123.24 142.557 123.21 142.387C122.83 140.695 122.883 138.908 122.877 137.191C122.87 135.333 122.835 133.396 123.229 131.569C123.229 131.483 123.248 131.397 123.283 131.318C123.319 131.238 123.371 131.165 123.436 131.105C123.502 131.044 123.58 130.995 123.665 130.962C123.751 130.929 123.843 130.912 123.935 130.913C124.028 130.913 124.119 130.93 124.205 130.963C124.29 130.996 124.368 131.045 124.434 131.106C124.499 131.167 124.551 131.239 124.586 131.319C124.621 131.399 124.64 131.484 124.639 131.571C125.053 133.395 125.038 135.335 125.042 137.21C125.059 138.908 125.113 140.709 124.748 142.389ZM164.096 77.5445C164.789 75.8379 166.771 74.3902 168.249 73.25C169.974 71.9208 171.788 71.0402 173.725 70.0437C174.598 69.5958 175.361 70.909 174.58 71.4309C172.916 72.5846 171.328 73.832 169.827 75.1662C168.412 76.3604 167.143 77.9742 165.47 78.8267C164.608 79.276 163.8 78.2662 164.096 77.5445ZM156.662 113.934C159.443 113.797 162.347 114.409 165.115 114.678C168.077 114.966 171.072 115.247 174.048 115.389C175.018 115.433 174.999 116.913 174.046 116.973C171.085 117.19 168.112 117.208 165.149 117.026C162.308 116.823 159.057 116.631 156.429 115.528C155.672 115.211 155.739 113.977 156.664 113.924L156.662 113.934ZM148.764 133.359C150.787 134.378 152.473 136.259 154.027 137.83C155.849 139.641 157.449 141.635 158.8 143.774C159.111 144.274 158.513 144.99 157.958 144.545C156.131 143.074 154.453 141.549 152.783 139.927C151.112 138.305 148.893 136.652 147.639 134.708C147.204 134.042 147.834 132.892 148.764 133.359ZM146.176 66.1146C146.824 64.0933 148.515 62.1683 149.822 60.4672C151.128 58.7662 152.437 56.6118 154.39 55.5517C154.884 55.2857 155.827 55.5402 155.628 56.2249C155.038 58.2634 153.355 59.9825 152.093 61.6925C150.734 63.5381 149.522 65.7245 147.727 67.2254C146.876 67.9325 145.922 66.9107 146.176 66.1146ZM84.8029 58.3405C86.7205 59.6951 88.5943 61.0604 90.4541 62.4733C92.1484 63.7633 94.0764 64.9745 95.4061 66.6126C95.8841 67.2025 95.1816 68.1487 94.4178 67.8019C92.4384 66.8702 90.8352 65.3419 89.1717 64.0098C87.3467 62.552 85.5685 61.064 83.7979 59.5474C83.0378 58.8855 83.9593 57.7437 84.8029 58.3405ZM77.067 75.0846C80.7552 75.8893 84.3968 76.8696 87.9774 78.0216L93.6103 79.746C95.2982 80.2595 97.1882 80.6934 98.61 81.7253C99.2988 82.2236 99.0386 83.4495 98.0937 83.4971C94.6446 83.6705 90.7224 81.8215 87.5256 80.7515C83.7878 79.5557 80.1687 78.059 76.7092 76.2784C76.1071 75.9587 76.262 74.9232 77.0635 75.0842L77.067 75.0846Z" fill="#FFF200"/>
<path d="M149.398 89.8381C148.254 91.1216 146.764 92.0976 145.081 92.6656C138.487 95.0362 130.87 94.0755 124.525 97.1286C122.386 98.1554 120.916 100.348 123.647 101.714C125.322 102.555 127.565 102.163 129.362 102.006C133.255 101.666 137.177 101.417 141.057 100.947C144.367 100.546 148.136 99.6768 149.743 96.6432C150.935 94.3984 150.67 91.9192 149.398 89.8381Z" fill="#F2B879"/>
<path d="M46.3862 26.8114C46.6004 30.1716 46.7625 33.5339 46.8726 36.8984C48.2795 77.5064 44.73 118.034 43.5094 158.598C43.203 168.705 42.7769 178.884 43.0979 188.992C43.1265 189.906 43.1258 190.998 43.597 191.827C44.2313 192.939 45.4488 193.028 46.6619 193.172C49.2021 193.475 51.7545 193.671 54.314 193.891C59.9228 194.373 65.5335 194.841 71.1464 195.296C93.4704 197.098 115.809 198.71 138.163 200.131C149.279 200.842 160.396 201.504 171.515 202.118C174.432 202.278 177.358 202.499 180.281 202.574C182.117 202.627 184.196 202.611 185.875 201.812C188.213 200.699 188.606 198.326 188.8 196.106C189.009 193.681 189.139 191.248 189.304 188.82C190.736 167.804 192.175 146.786 193.62 125.766C195.045 104.985 196.464 84.2035 197.879 63.4213C198.238 58.1683 198.598 52.9133 198.96 47.6562C199.315 42.5014 200.041 37.2424 200.023 32.0797C200.017 29.5874 197.976 29.3152 195.696 29.2097C193.108 29.0913 190.513 29.0642 187.924 28.9491C182.603 28.7105 177.29 28.3448 171.986 27.8915C130.435 24.3536 88.8204 15.3579 46.9517 19.9018C46.9331 21.911 46.8725 23.9182 46.8327 25.9281C46.8309 26.0966 46.7902 26.2628 46.7131 26.4153C46.6361 26.5677 46.5245 26.7029 46.3862 26.8114ZM49.7202 154.196C49.1755 150.13 49.5701 145.861 49.5618 141.768C49.5565 137.823 49.4377 133.883 49.5944 129.939C49.6042 129.704 50.0084 129.712 50.0282 129.938C50.4197 134.064 50.4521 138.209 50.5235 142.353C50.5906 146.237 50.9507 150.336 50.3699 154.19C50.3591 154.263 50.3207 154.329 50.2616 154.378C50.2025 154.427 50.1267 154.454 50.0479 154.454C49.9692 154.455 49.8927 154.429 49.8326 154.382C49.7724 154.335 49.7325 154.269 49.7202 154.196ZM50.1726 167.339C49.5994 164.489 49.414 161.583 49.6206 158.69C49.6593 158.425 50.0454 158.461 50.0999 158.692C50.7242 161.532 50.9647 164.433 50.8158 167.329C50.7971 167.698 50.2355 167.656 50.1726 167.339ZM193.553 83.2805C193.416 83.5917 192.996 83.4202 192.999 83.1378C193.006 81.8601 193.251 80.6389 193.048 79.3509C192.998 79.0159 193.521 78.9639 193.594 79.2822C193.882 80.548 194.093 82.0442 193.553 83.2805ZM194.685 51.5705C194.754 51.4412 195.011 51.4442 195.032 51.6145C195.087 53.6496 194.769 55.6537 194.885 57.7064C194.994 59.5905 195.096 61.4769 195.116 63.3662C195.15 66.9435 195.413 70.9836 194.337 74.4428C194.244 74.74 193.739 74.6463 193.71 74.3632C193.5 72.4203 193.784 70.4283 193.866 68.4666C193.974 66.3569 194.011 64.2448 193.999 62.133C193.976 58.8399 193.146 54.6456 194.685 51.5705ZM59.1452 35.6531C59.187 35.4679 59.2929 35.3006 59.4467 35.177C59.6004 35.0534 59.7935 34.9803 59.9962 34.969C60.0367 34.9613 60.0775 34.9555 60.1186 34.9517C69.2016 34.6622 78.2736 34.8578 87.3489 35.2477C119.776 36.6342 152.094 39.9692 184.584 40.2264C185.958 40.2365 186.308 41.4315 185.867 42.3779C185.864 42.3863 185.863 42.395 185.863 42.4037C185.73 51.4226 185.374 60.4198 185.067 69.443C184.538 85.0808 184.125 100.721 183.828 116.364C183.676 124.304 183.558 132.243 183.474 140.183C183.435 143.833 183.785 147.71 183.297 151.336C182.984 153.597 181.688 155.763 178.985 155.581C178.808 155.568 178.634 155.523 178.476 155.447C174.556 155.416 170.533 154.718 166.646 154.359C162.212 153.951 157.775 153.554 153.337 153.168C137.612 151.812 121.877 150.573 106.123 149.532C98.1188 149.002 90.1131 148.507 82.1059 148.047C74.4497 147.597 66.7282 147.425 59.0919 146.719C58.8957 146.804 58.6808 146.846 58.4642 146.841C58.2476 146.836 58.0353 146.784 57.8439 146.689C57.6526 146.595 57.4875 146.46 57.3617 146.295C57.2359 146.131 57.1529 145.941 57.1191 145.742C56.3524 141.723 56.8023 137.366 56.8218 133.299C56.8284 129.474 56.8408 125.649 56.8589 121.826C56.9312 107.449 57.1058 93.0723 57.3826 78.6953C57.5317 71.4501 57.7747 64.2135 57.9836 56.9693C58.0882 53.4064 58.1785 49.845 58.3147 46.2828C58.4643 42.7979 58.2707 39.0558 59.1383 35.6523L59.1452 35.6531Z" fill="white"/>
<path d="M43.5001 22.047C43.4919 22.1175 43.4886 22.1885 43.4902 22.2594C43.5126 22.7093 43.535 23.1591 43.5535 23.6118C43.5825 24.378 43.6111 25.1475 43.6353 25.923C43.6368 26.0224 43.6508 26.1212 43.6769 26.2176C45.4919 67.4592 42.1753 108.588 40.4994 149.807C40.0682 160.383 39.7739 170.962 39.74 181.545C39.7329 184.006 39.7249 186.473 39.7668 188.937C39.805 190.727 39.9859 192.65 41.2097 194.12C42.4334 195.59 44.3486 195.948 46.2099 196.096C49.1445 196.331 52.08 196.559 55.0153 196.813C78.212 198.821 101.43 200.629 124.668 202.237C136.292 203.029 147.916 203.768 159.541 204.453C165.418 204.803 171.295 205.138 177.172 205.457C181.101 205.669 185.763 206.097 188.967 203.5C192.548 200.592 192.097 195.381 192.374 191.383C192.756 185.89 193.138 180.397 193.52 174.906C194.286 163.92 195.05 152.933 195.811 141.947C197.339 120.215 198.862 98.4807 200.379 76.7451C201.131 66.0003 201.878 55.2538 202.622 44.5057L203.17 36.6242C203.321 34.4608 203.958 31.692 203.141 29.5865C201.512 25.4615 195.781 26.0025 192.02 25.8733C148.102 24.3423 104.895 13.6719 60.7885 15.5288C55.4907 15.7501 50.2114 16.1665 44.9506 16.7782C43.9138 16.8996 43.4227 17.751 43.4269 18.639C43.4334 19.7771 43.465 20.9118 43.5001 22.047ZM171.979 27.8906C177.283 28.3439 182.596 28.7097 187.918 28.9482C190.506 29.0633 193.101 29.0905 195.69 29.2088C197.97 29.3143 200.01 29.5866 200.016 32.0788C200.034 37.2416 199.307 42.5069 198.953 47.6554C198.593 52.9127 198.233 58.1677 197.872 63.4204C196.458 84.2005 195.038 104.982 193.613 125.765C192.173 146.785 190.733 167.805 189.292 188.825C189.128 191.253 188.998 193.686 188.788 196.111C188.594 198.331 188.202 200.704 185.863 201.817C184.185 202.616 182.106 202.632 180.269 202.579C177.347 202.498 174.421 202.277 171.503 202.123C160.385 201.509 149.268 200.847 138.152 200.136C115.794 198.708 93.4554 197.096 71.135 195.301C65.5248 194.845 59.914 194.376 54.3027 193.896C51.7536 193.678 49.2012 193.482 46.6505 193.177C45.4389 193.024 44.2165 192.944 43.5857 191.832C43.1144 191.003 43.1152 189.912 43.0866 188.997C42.7656 178.889 43.1916 168.711 43.4981 158.603C44.73 118.034 48.2804 77.5 46.8796 36.8993C46.7599 33.5358 46.5978 30.1734 46.3932 26.8123C46.5319 26.7021 46.6433 26.5651 46.7194 26.4107C46.7955 26.2563 46.8347 26.0883 46.8341 25.9184C46.8739 23.9085 46.9345 21.9013 46.9531 19.8921C88.8149 15.3474 130.428 24.3527 171.979 27.8906Z" fill="#231F20"/>
<path d="M58.0014 56.9683C57.7925 64.2125 57.5495 71.4491 57.4004 78.6943C57.1048 93.0711 56.9302 107.448 56.8767 121.825C56.8585 125.648 56.8462 129.473 56.8396 133.298C56.8339 137.367 56.384 141.724 57.1369 145.741C57.1706 145.94 57.2537 146.13 57.3795 146.294C57.5053 146.459 57.6704 146.594 57.8617 146.688C58.053 146.783 58.2654 146.835 58.482 146.84C58.6986 146.845 58.9135 146.803 59.1097 146.718C66.746 147.424 74.4675 147.596 82.1237 148.046C90.132 148.515 98.1377 149.01 106.141 149.531C121.894 150.572 137.63 151.811 153.355 153.167C157.791 153.553 162.227 153.95 166.664 154.358C170.537 154.715 174.56 155.413 178.494 155.446C178.652 155.522 178.825 155.567 179.003 155.58C181.706 155.762 183.005 153.58 183.315 151.335C183.812 147.717 183.451 143.838 183.492 140.182C183.574 132.24 183.692 124.3 183.845 116.363C184.149 100.723 184.563 85.0828 185.085 69.442C185.39 60.4285 185.748 51.4216 185.881 42.4027C185.881 42.394 185.882 42.3852 185.885 42.3769C186.324 41.4466 185.975 40.2355 184.602 40.2254C152.113 39.965 119.794 36.6299 87.3603 35.2426C78.2849 34.8526 69.2129 34.6571 60.13 34.9466C60.0889 34.9504 60.048 34.9561 60.0076 34.9639C59.8049 34.9752 59.6118 35.0482 59.458 35.1718C59.3042 35.2954 59.1983 35.4628 59.1566 35.648C58.3063 39.0538 58.4652 42.7915 58.3507 46.2775C58.1962 49.844 58.1041 53.4183 58.0014 56.9683ZM60.1831 123.158C60.1956 116.317 60.2283 109.474 60.281 102.631C60.3103 99.5667 60.3412 96.5082 60.3736 93.4555C66.1049 94.6994 72.0072 95.3043 77.8239 96.1087C83.7543 96.9309 89.8348 97.9331 95.8347 97.1699C100.653 96.5557 105.439 94.7378 108.815 91.3964C112.479 87.7759 113.763 82.6997 113.708 77.8412C113.643 71.8441 112.055 65.7983 110.69 59.8924C120.092 64.3143 120.682 76.1564 121.248 84.9288C121.367 86.7682 124.306 86.3427 124.261 84.5522C124.236 83.563 124.204 82.5268 124.128 81.4817C127.983 81.4026 131.77 80.8974 135.666 81.2607C139.127 81.5852 144.146 81.9826 146.826 84.3214C148.462 85.7421 147.895 87.7441 146.277 88.9948C144.659 90.2454 142.229 90.7816 140.165 91.1768C136.383 91.916 132.504 92.1334 128.743 92.9706C125.652 93.6595 121.626 94.6963 119.893 97.4345C118.395 99.7949 119.582 102.408 121.836 103.778C119.334 104.976 117.422 107.1 118.216 109.972C118.391 110.616 118.743 111.206 119.238 111.685C119.732 112.163 120.352 112.513 121.036 112.7C120.067 113.025 119.211 113.592 118.561 114.338C117.698 113.985 116.812 113.683 115.908 113.432C114.443 112.956 112.949 112.558 111.435 112.24C104.962 110.882 98.2709 111.311 91.794 112.395C85.7508 113.427 79.8249 114.986 74.0938 117.049C71.1878 118.083 68.3374 119.243 65.5425 120.529C64.1477 121.17 62.7634 121.836 61.4081 122.545C61 122.756 60.5873 122.95 60.1831 123.158ZM137.589 116.787C136.097 116.89 134.605 116.99 133.111 117.103C130.145 117.324 127.169 117.663 124.198 117.775C122.757 117.835 120.057 117.663 120.736 115.692C121.194 114.37 123.108 113.942 124.273 113.4C124.358 113.359 124.433 113.301 124.492 113.23C126.562 113.369 128.689 113.32 130.724 113.266C133.725 113.18 136.718 112.92 139.685 112.488C140.726 112.337 141.869 112.209 143.007 112.022C143.413 113.612 143.499 115.289 141.613 116.18C140.418 116.735 138.883 116.695 137.589 116.787ZM139.964 121.605C139.136 122.321 137.416 122.146 136.426 122.142C134.356 122.198 132.3 122.489 130.305 123.008C128.289 123.485 126.215 124.05 124.114 123.898C122.781 123.801 121.246 123.353 121.48 121.92C121.582 121.22 122.104 120.763 122.626 120.3C125.396 120.652 128.729 120.04 130.898 119.918C133.614 119.763 136.336 119.622 139.049 119.421C139.205 119.411 139.359 119.398 139.513 119.381C139.549 119.519 139.607 119.65 139.685 119.771C140.17 120.484 140.876 120.813 139.964 121.605ZM142.844 109.132C139.202 109.847 135.511 110.322 131.798 110.552C130.02 110.655 128.206 110.734 126.41 110.743C124.929 110.745 121.445 111.233 120.574 109.804C119.169 107.499 121.921 105.824 124.145 104.67C127.486 105.407 131.533 104.5 134.789 104.22C138.513 103.901 142.449 103.826 146.025 102.689C146.433 103.194 146.727 103.771 146.887 104.385C147.047 105 147.07 105.639 146.955 106.262C146.631 108.528 144.91 108.727 142.83 109.13L142.844 109.132ZM141.071 100.949C137.191 101.419 133.269 101.667 129.376 102.008C127.59 102.166 125.336 102.556 123.66 101.716C120.93 100.35 122.4 98.1571 124.539 97.1304C130.884 94.0773 138.5 95.038 145.095 92.6674C146.778 92.0994 148.268 91.1233 149.411 89.8398C150.683 91.9209 150.949 94.4001 149.757 96.645C148.134 99.6929 144.367 100.546 141.057 100.947L141.071 100.949ZM61.205 37.0487C76.9903 37.607 92.7332 38.3112 108.463 39.3918C124.588 40.4994 140.699 41.7762 156.845 42.6137C165.757 43.088 174.682 43.3964 183.608 43.4782C182.492 57.799 182.041 72.1549 181.552 86.5028C181.037 101.187 180.678 115.875 180.472 130.565C180.408 134.721 180.352 138.867 180.305 143.005C180.282 145.138 180.28 147.275 180.265 149.406C180.26 150.138 180.357 151.817 179.709 152.51C176.035 151.686 172.02 151.659 168.272 151.318C164.342 150.963 160.411 150.619 156.481 150.284C148.487 149.6 140.491 148.967 132.492 148.385C116.745 147.226 100.984 146.188 85.213 145.388C76.8761 144.964 68.4765 144.341 60.1192 144.321C60.4397 141.381 60.1886 138.322 60.1829 135.392C60.1773 132.463 60.1767 129.475 60.1788 126.517C61.9153 126.262 63.7661 124.77 65.2947 124.034C67.5704 122.938 69.8833 121.926 72.2334 120.997C76.915 119.142 81.7444 117.629 86.6779 116.472C91.7119 115.296 96.9131 114.281 102.101 113.986C104.872 113.84 107.653 113.993 110.387 114.444C110.938 114.53 115.944 115.6 117.912 116.487C117.971 116.959 118.12 117.416 118.353 117.838C118.762 118.618 119.429 119.255 120.256 119.654C118.883 120.943 118.495 123.066 119.879 124.645C122.419 127.509 127.375 126.439 130.651 125.731C132.864 125.238 135.128 124.975 137.402 124.944C139.122 124.926 140.838 124.691 142.185 123.58C143.532 122.469 143.773 119.955 142.772 118.671C143.405 118.414 143.983 118.052 144.476 117.602C146.131 116.077 146.816 113.298 145.78 111.358C146.331 111.181 146.863 110.957 147.369 110.689C150.052 109.222 151.152 103.698 148.722 101.437C153.691 98.2687 155.238 91.4705 150.673 87.0976C150.693 86.9589 150.713 86.8201 150.734 86.6781C150.943 84.0192 148.937 82.0816 146.532 80.9742C143.087 79.383 138.764 78.9523 134.975 78.7735C131.434 78.6066 127.434 78.5981 123.976 79.6775C123.102 70.1397 119.929 59.7148 109.278 56.4723C108.303 56.1742 107.066 56.7994 107.28 57.8883C108.605 64.6041 110.831 71.6382 110.734 78.5054C110.643 84.8706 107.631 90.3981 101.187 92.9718C94.823 95.5031 87.7664 94.7385 81.1247 93.8852C74.2497 93.0121 67.3282 91.7814 60.3853 91.4454C60.5076 80.7882 60.6812 70.1178 60.8016 59.4736C60.8517 55.5356 60.9544 51.624 61.0377 47.7001C61.1053 44.3659 61.4766 40.7876 61.1314 37.4075C61.1606 37.2797 61.186 37.1547 61.205 37.0487Z" fill="#231F20"/>
<path d="M76.7092 76.2784C80.1687 78.059 83.7878 79.5557 87.5256 80.7515C90.7234 81.815 94.6446 83.6705 98.0937 83.4971C99.0386 83.4495 99.2988 82.2236 98.61 81.7253C97.1848 80.693 95.2982 80.2595 93.6103 79.746L87.9774 78.0216C84.3968 76.8696 80.7552 75.8893 77.067 75.0846C76.262 74.9232 76.1071 75.9587 76.7092 76.2784Z" fill="#231F20"/>
<path d="M83.7998 59.5345C85.5703 61.0511 87.3486 62.5391 89.1736 63.9969C90.8371 65.329 92.4541 66.859 94.4197 67.789C95.1782 68.1483 95.8841 67.2025 95.408 66.5997C94.0783 64.9616 92.1503 63.7504 90.4559 62.4604C88.5962 61.0475 86.715 59.6845 84.8048 58.3276C83.9592 57.7437 83.0378 58.8855 83.7998 59.5345Z" fill="#231F20"/>
<path d="M147.712 67.2333C149.507 65.7324 150.719 63.546 152.078 61.7004C153.341 59.9807 155.024 58.2617 155.613 56.2328C155.812 55.5481 154.869 55.2904 154.375 55.5596C152.421 56.6262 151.082 58.7932 149.806 60.4752C148.531 62.1572 146.808 64.1012 146.16 66.1226C145.922 66.9107 146.876 67.9325 147.712 67.2333Z" fill="#231F20"/>
<path d="M165.469 78.8364C167.141 77.9838 168.41 76.37 169.826 75.1759C171.329 73.8384 172.919 72.5881 174.587 71.4318C175.367 70.9163 174.605 69.5967 173.732 70.0446C171.795 71.0411 169.981 71.9217 168.256 73.2509C166.773 74.3773 164.789 75.8379 164.103 77.5453C163.8 78.2662 164.608 79.276 165.469 78.8364Z" fill="#231F20"/>
<path d="M156.428 115.537C159.056 116.64 162.307 116.833 165.147 117.036C168.111 117.217 171.084 117.199 174.044 116.982C174.998 116.923 175.017 115.443 174.047 115.398C171.07 115.257 168.076 114.969 165.113 114.688C162.332 114.417 159.442 113.807 156.661 113.943C155.739 113.977 155.672 115.211 156.428 115.537Z" fill="#231F20"/>
<path d="M147.636 134.708C148.889 136.652 151.097 138.286 152.779 139.927C154.461 141.567 156.127 143.073 157.954 144.545C158.51 144.99 159.108 144.274 158.797 143.774C157.446 141.634 155.845 139.641 154.024 137.83C152.469 136.258 150.783 134.378 148.76 133.358C147.834 132.892 147.204 134.042 147.636 134.708Z" fill="#231F20"/>
<path d="M124.629 131.569C124.629 131.395 124.555 131.228 124.423 131.104C124.291 130.981 124.112 130.911 123.925 130.911C123.738 130.911 123.558 130.98 123.426 131.103C123.294 131.226 123.219 131.393 123.219 131.568C122.825 133.395 122.859 135.332 122.866 137.19C122.873 138.906 122.818 140.707 123.2 142.386C123.23 142.556 123.324 142.71 123.464 142.821C123.605 142.933 123.783 142.994 123.968 142.994C124.152 142.994 124.331 142.933 124.472 142.822C124.613 142.711 124.707 142.557 124.737 142.387C125.102 140.708 125.031 138.904 125.024 137.194C125.027 135.334 125.043 133.394 124.629 131.569Z" fill="#231F20"/>
<path d="M92.5107 123.198C89.7534 124.162 87.2022 126.468 84.8152 128.035C82.1692 129.783 79.4717 131.449 76.9023 133.275C76.2528 133.739 76.8586 134.805 77.6319 134.459C80.5041 133.128 83.2834 131.629 85.9533 129.971C88.4858 128.445 91.8267 126.865 93.6792 124.612C93.8021 124.449 93.8658 124.253 93.8611 124.054C93.8564 123.854 93.7835 123.662 93.653 123.504C93.5225 123.346 93.3412 123.231 93.1357 123.176C92.9302 123.121 92.7112 123.129 92.5107 123.198Z" fill="#231F20"/>
<path d="M193.863 68.4694C193.767 70.4294 193.482 72.4246 193.706 74.366C193.735 74.6491 194.24 74.7428 194.333 74.4456C195.402 70.9657 195.147 66.9398 195.112 63.369C195.092 61.4797 194.99 59.5932 194.881 57.7091C194.765 55.6565 195.076 53.6515 195.028 51.6173C195.024 51.4492 194.767 51.4461 194.681 51.5733C193.14 54.6645 193.971 58.8491 193.991 62.1386C194.007 64.2476 193.97 66.3596 193.863 68.4694Z" fill="#231F20"/>
<path d="M193.048 79.3509C193.251 80.6389 193.006 81.8601 192.999 83.1378C192.996 83.4202 193.416 83.5885 193.553 83.2805C194.088 82.0336 193.885 80.5485 193.594 79.2822C193.521 78.9639 192.998 79.0191 193.048 79.3509Z" fill="#231F20"/>
<path d="M50.3689 154.196C50.9325 150.34 50.5897 146.244 50.5225 142.36C50.4502 138.222 50.4188 134.07 50.0273 129.945C50.0075 129.719 49.6032 129.71 49.5935 129.945C49.4395 133.87 49.5556 137.829 49.5609 141.774C49.5692 145.868 49.1745 150.137 49.7192 154.203C49.7316 154.275 49.7715 154.341 49.8316 154.389C49.8918 154.436 49.9682 154.462 50.047 154.461C50.1257 154.46 50.2016 154.433 50.2607 154.384C50.3198 154.336 50.3582 154.269 50.3689 154.196Z" fill="#231F20"/>
<path d="M49.6206 158.69C49.414 161.583 49.5995 164.489 50.1726 167.339C50.2355 167.656 50.7971 167.698 50.8144 167.338C50.9633 164.443 50.7228 161.541 50.0985 158.701C50.0454 158.461 49.642 158.423 49.6206 158.69Z" fill="#231F20"/>
<g filter="url(#filter0_d_1_164)">
<path d="M79.8868 166.507C79.6263 169.51 77.9195 171.904 74.7666 173.692C71.9508 175.294 68.9755 175.96 65.8406 175.688L64.6861 172.335L63.8631 181.82L56.697 181.117L57.777 165.432C56.8264 165.591 55.9399 165.781 55.1175 166.004L54.8008 158.549C58.4748 157.235 63.4202 156.848 69.6368 157.387C72.5592 157.641 74.9636 158.465 76.8501 159.86C79.1143 161.529 80.1265 163.745 79.8868 166.507ZM71.3816 166.894C71.4761 165.804 70.3942 165.162 68.1361 164.966C67.2328 164.888 66.2995 164.847 65.3362 164.843L64.8797 170.104C66.3593 170.018 67.6512 169.782 68.7554 169.396C70.4117 168.817 71.287 167.983 71.3816 166.894ZM90.2431 160.701C89.4759 165.533 88.9171 169.968 88.5667 174.006C88.2232 177.964 88.0066 181.077 87.917 183.345L80.8029 182.968C80.8728 180.003 81.0622 176.741 81.3711 173.181C81.68 169.621 82.2145 165.157 82.9747 159.789L90.2431 160.701ZM113.462 164.723C111.003 167.775 108.612 170.646 106.291 173.336C108.337 176.591 110.214 179.484 111.922 182.015L106.255 185.779C104.735 183.559 103.16 181.188 101.533 178.664C99.4654 180.894 97.4485 183.007 95.4818 185.005L90.5915 180.284C92.7672 178.037 95.1577 175.474 97.763 172.596C95.9663 169.549 94.1061 166.309 92.1823 162.877L98.3029 159.433C99.5924 161.847 101.004 164.392 102.539 167.068C104.538 164.698 106.38 162.436 108.066 160.28L113.462 164.723ZM132.614 186.822C128.358 186.827 123.335 186.565 117.546 186.036L114.122 185.699C114.18 181.635 114.347 178.009 114.624 174.821C114.903 171.607 115.352 167.671 115.97 163.014L133.764 164.317L133.242 171.258L122.491 170.686L122.311 171.835L133.197 172.699L132.876 178.252L121.889 177.62L121.855 178.942L132.975 179.425L132.614 186.822ZM160.412 167.352L158.072 189.231L149.714 188.386L143.977 176.766C143.797 179.454 143.685 181.358 143.642 182.479C143.537 184.611 143.506 186.509 143.549 188.172L135.969 187.153C135.912 183.802 136.041 180.307 136.357 176.667C136.67 173.054 137.035 169.164 137.45 164.998L146.44 165.497L151.968 178.142L153.419 166.504L160.412 167.352ZM182.434 174.884L176.645 174.502L174.63 191.712L167.58 191.06L168.861 173.987L162.312 173.579L163.045 166.978L182.745 168.527L182.434 174.884Z" fill="#F6DB35"/>
<path d="M74.7666 173.692L74.52 173.257L74.5192 173.257L74.7666 173.692ZM65.8406 175.688L65.3679 175.85L65.4737 176.158L65.7974 176.186L65.8406 175.688ZM64.6861 172.335L65.1588 172.172L64.188 172.292L64.6861 172.335ZM63.8631 181.82L63.8144 182.317L64.3175 182.367L64.3613 181.863L63.8631 181.82ZM56.697 181.117L56.1982 181.083L56.1648 181.568L56.6482 181.615L56.697 181.117ZM57.777 165.432L58.2758 165.466L58.3193 164.835L57.6948 164.939L57.777 165.432ZM55.1175 166.004L54.618 166.026L54.6446 166.651L55.2484 166.487L55.1175 166.004ZM54.8008 158.549L54.6325 158.078L54.2857 158.202L54.3013 158.57L54.8008 158.549ZM76.8501 159.86L76.5528 160.262L76.5534 160.263L76.8501 159.86ZM65.3362 164.843L65.3379 164.343L64.8778 164.342L64.838 164.8L65.3362 164.843ZM64.8797 170.104L64.3816 170.06L64.3316 170.636L64.9087 170.603L64.8797 170.104ZM68.7554 169.396L68.5904 168.924L68.7554 169.396ZM79.3886 166.464C79.1454 169.268 77.5629 171.532 74.52 173.257L75.0131 174.127C78.2762 172.277 80.1072 169.751 80.3849 166.551L79.3886 166.464ZM74.5192 173.257C71.7889 174.811 68.9145 175.452 65.8838 175.189L65.7974 176.186C69.0365 176.467 72.1128 175.777 75.0139 174.126L74.5192 173.257ZM66.3134 175.525L65.1588 172.172L64.2133 172.498L65.3679 175.85L66.3134 175.525ZM64.188 172.292L63.365 181.776L64.3613 181.863L65.1842 172.378L64.188 172.292ZM63.9119 181.322L56.7457 180.62L56.6482 181.615L63.8144 182.317L63.9119 181.322ZM57.1958 181.152L58.2758 165.466L57.2781 165.398L56.1982 181.083L57.1958 181.152ZM57.6948 164.939C56.7299 165.1 55.827 165.294 54.9866 165.522L55.2484 166.487C56.0528 166.269 56.9229 166.081 57.8592 165.925L57.6948 164.939ZM55.6171 165.983L55.3004 158.528L54.3013 158.57L54.618 166.026L55.6171 165.983ZM54.9692 159.02C58.5469 157.74 63.4105 157.349 69.5936 157.885L69.68 156.889C63.4298 156.347 58.4028 156.73 54.6325 158.078L54.9692 159.02ZM69.5936 157.885C72.4469 158.133 74.757 158.934 76.5528 160.262L77.1473 159.458C75.1702 157.996 72.6715 157.149 69.68 156.889L69.5936 157.885ZM76.5534 160.263C78.6799 161.83 79.6131 163.878 79.3886 166.464L80.3849 166.551C80.64 163.611 79.5487 161.228 77.1467 159.458L76.5534 160.263ZM71.8797 166.937C71.9112 166.574 71.8448 166.226 71.6662 165.913C71.4901 165.604 71.2221 165.358 70.8964 165.165C70.2579 164.786 69.3325 164.568 68.1793 164.468L68.0928 165.464C69.1978 165.56 69.9424 165.761 70.3857 166.025C70.6009 166.153 70.7268 166.284 70.7975 166.408C70.8658 166.528 70.8992 166.669 70.8834 166.85L71.8797 166.937ZM68.1793 164.468C67.2614 164.388 66.3142 164.347 65.3379 164.343L65.3345 165.343C66.2848 165.347 67.2042 165.387 68.0928 165.464L68.1793 164.468ZM64.838 164.8L64.3816 170.06L65.3779 170.147L65.8343 164.887L64.838 164.8ZM64.9087 170.603C66.4229 170.515 67.7625 170.273 68.9204 169.868L68.5904 168.924C67.54 169.291 66.2958 169.521 64.8508 169.604L64.9087 170.603ZM68.9204 169.868C70.6383 169.267 71.7591 168.326 71.8797 166.937L70.8834 166.85C70.8149 167.64 70.185 168.367 68.5904 168.924L68.9204 169.868ZM90.2431 160.701L90.7369 160.779L90.8179 160.269L90.3053 160.205L90.2431 160.701ZM87.917 183.345L87.8905 183.844L88.3965 183.871L88.4166 183.364L87.917 183.345ZM80.8029 182.968L80.303 182.956L80.2916 183.442L80.7764 183.468L80.8029 182.968ZM82.9747 159.789L83.037 159.293L82.5487 159.232L82.4797 159.719L82.9747 159.789ZM89.7493 160.623C88.9806 165.464 88.4202 169.911 88.0686 173.963L89.0648 174.049C89.414 170.025 89.9712 165.602 90.7369 160.779L89.7493 160.623ZM88.0686 173.963C87.7248 177.924 87.5075 181.046 87.4173 183.325L88.4166 183.364C88.5058 181.109 88.7216 178.005 89.0648 174.049L88.0686 173.963ZM87.9434 182.845L80.8293 182.469L80.7764 183.468L87.8905 183.844L87.9434 182.845ZM81.3027 182.98C81.3723 180.027 81.561 176.776 81.8692 173.224L80.873 173.138C80.5633 176.706 80.3732 179.979 80.303 182.956L81.3027 182.98ZM81.8692 173.224C82.177 169.676 82.7103 165.222 83.4698 159.859L82.4797 159.719C81.7188 165.092 81.1829 169.565 80.873 173.138L81.8692 173.224ZM82.9125 160.285L90.1809 161.197L90.3053 160.205L83.037 159.293L82.9125 160.285ZM113.462 164.723L113.852 165.037L114.162 164.652L113.78 164.337L113.462 164.723ZM106.291 173.336L105.912 173.009L105.671 173.289L105.868 173.602L106.291 173.336ZM111.922 182.015L112.198 182.431L112.618 182.153L112.336 181.735L111.922 182.015ZM106.255 185.779L105.843 186.062L106.121 186.468L106.532 186.196L106.255 185.779ZM101.533 178.664L101.953 178.393L101.604 177.852L101.166 178.324L101.533 178.664ZM95.4818 185.005L95.1345 185.365L95.4907 185.708L95.838 185.356L95.4818 185.005ZM90.5915 180.284L90.2323 179.937L89.884 180.296L90.2443 180.644L90.5915 180.284ZM97.763 172.596L98.1338 172.931L98.3805 172.658L98.1937 172.342L97.763 172.596ZM92.1823 162.877L91.9371 162.441L91.5021 162.686L91.7461 163.121L92.1823 162.877ZM98.3029 159.433L98.7439 159.197L98.5031 158.747L98.0577 158.997L98.3029 159.433ZM102.539 167.068L102.105 167.316L102.46 167.936L102.921 167.39L102.539 167.068ZM108.066 160.28L108.384 159.894L107.988 159.568L107.672 159.972L108.066 160.28ZM113.073 164.409C110.616 167.458 108.23 170.324 105.912 173.009L106.67 173.662C108.995 170.968 111.389 168.093 113.852 165.037L113.073 164.409ZM105.868 173.602C107.916 176.861 109.796 179.759 111.507 182.294L112.336 181.735C110.632 179.21 108.758 176.322 106.714 173.069L105.868 173.602ZM111.645 181.598L105.979 185.363L106.532 186.196L112.198 182.431L111.645 181.598ZM106.668 185.496C105.15 183.281 103.578 180.913 101.953 178.393L101.112 178.935C102.743 181.462 104.319 183.838 105.843 186.062L106.668 185.496ZM101.166 178.324C99.1018 180.55 97.0884 182.66 95.1255 184.654L95.838 185.356C97.8085 183.354 99.8289 181.237 101.899 179.004L101.166 178.324ZM95.829 184.645L90.9388 179.925L90.2443 180.644L95.1345 185.365L95.829 184.645ZM90.9507 180.632C93.1312 178.38 95.5256 175.813 98.1338 172.931L97.3923 172.26C94.7899 175.136 92.4033 177.694 90.2323 179.937L90.9507 180.632ZM98.1937 172.342C96.3991 169.298 94.5407 166.062 92.6185 162.632L91.7461 163.121C93.6715 166.557 95.5336 169.799 97.3323 172.85L98.1937 172.342ZM92.4275 163.313L98.5481 159.869L98.0577 158.997L91.9371 162.441L92.4275 163.313ZM97.8619 159.669C99.154 162.087 100.568 164.637 102.105 167.316L102.973 166.819C101.44 164.147 100.031 161.606 98.7439 159.197L97.8619 159.669ZM102.921 167.39C104.923 165.017 106.77 162.749 108.46 160.588L107.672 159.972C105.991 162.122 104.152 164.38 102.157 166.745L102.921 167.39ZM107.748 160.666L113.145 165.109L113.78 164.337L108.384 159.894L107.748 160.666ZM132.614 186.822L132.615 187.322L133.09 187.321L133.113 186.846L132.614 186.822ZM117.546 186.036L117.497 186.534L117.5 186.534L117.546 186.036ZM114.122 185.699L113.622 185.692L113.615 186.151L114.073 186.196L114.122 185.699ZM115.97 163.014L116.006 162.515L115.536 162.481L115.474 162.948L115.97 163.014ZM133.764 164.317L134.262 164.354L134.3 163.855L133.8 163.818L133.764 164.317ZM133.242 171.258L133.215 171.757L133.704 171.783L133.74 171.295L133.242 171.258ZM122.491 170.686L122.518 170.187L122.067 170.163L121.997 170.609L122.491 170.686ZM122.311 171.835L121.817 171.757L121.734 172.291L122.271 172.333L122.311 171.835ZM133.197 172.699L133.696 172.728L133.724 172.239L133.237 172.201L133.197 172.699ZM132.876 178.252L132.847 178.751L133.346 178.78L133.375 178.281L132.876 178.252ZM121.889 177.62L121.918 177.121L121.403 177.091L121.389 177.607L121.889 177.62ZM121.855 178.942L121.355 178.929L121.342 179.42L121.833 179.442L121.855 178.942ZM132.975 179.425L133.474 179.449L133.499 178.947L132.996 178.926L132.975 179.425ZM132.613 186.322C128.377 186.327 123.37 186.066 117.591 185.538L117.5 186.534C123.3 187.064 128.338 187.327 132.615 187.322L132.613 186.322ZM117.595 185.538L114.171 185.201L114.073 186.196L117.497 186.534L117.595 185.538ZM114.622 185.706C114.68 181.651 114.847 178.038 115.122 174.865L114.126 174.778C113.848 177.981 113.68 181.619 113.622 185.692L114.622 185.706ZM115.122 174.865C115.4 171.66 115.848 167.732 116.465 163.079L115.474 162.948C114.855 167.61 114.406 171.554 114.126 174.778L115.122 174.865ZM115.933 163.512L133.727 164.815L133.8 163.818L116.006 162.515L115.933 163.512ZM133.265 164.279L132.743 171.22L133.74 171.295L134.262 164.354L133.265 164.279ZM133.268 170.758L122.518 170.187L122.464 171.185L133.215 171.757L133.268 170.758ZM121.997 170.609L121.817 171.757L122.805 171.912L122.985 170.763L121.997 170.609ZM122.271 172.333L133.157 173.198L133.237 172.201L122.351 171.336L122.271 172.333ZM132.698 172.67L132.377 178.223L133.375 178.281L133.696 172.728L132.698 172.67ZM132.905 177.753L121.918 177.121L121.861 178.119L132.847 178.751L132.905 177.753ZM121.389 177.607L121.355 178.929L122.355 178.955L122.389 177.633L121.389 177.607ZM121.833 179.442L132.953 179.925L132.996 178.926L121.877 178.442L121.833 179.442ZM132.475 179.401L132.115 186.797L133.113 186.846L133.474 179.449L132.475 179.401ZM160.412 167.352L160.909 167.405L160.962 166.915L160.472 166.855L160.412 167.352ZM158.072 189.231L158.022 189.729L158.516 189.779L158.569 189.284L158.072 189.231ZM149.714 188.386L149.265 188.607L149.388 188.855L149.663 188.883L149.714 188.386ZM143.977 176.766L144.425 176.545L143.602 174.878L143.478 176.733L143.977 176.766ZM143.642 182.479L144.141 182.503L144.141 182.498L143.642 182.479ZM143.549 188.172L143.483 188.667L144.064 188.746L144.049 188.159L143.549 188.172ZM135.969 187.153L135.469 187.161L135.476 187.591L135.902 187.648L135.969 187.153ZM137.45 164.998L137.477 164.499L137 164.472L136.952 164.948L137.45 164.998ZM146.44 165.497L146.898 165.297L146.775 165.015L146.468 164.998L146.44 165.497ZM151.968 178.142L151.51 178.342L152.239 180.01L152.464 178.204L151.968 178.142ZM153.419 166.504L153.479 166.008L152.985 165.948L152.923 166.442L153.419 166.504ZM159.915 167.299L157.575 189.178L158.569 189.284L160.909 167.405L159.915 167.299ZM158.122 188.734L149.764 187.888L149.663 188.883L158.022 189.729L158.122 188.734ZM150.162 188.164L144.425 176.545L143.528 176.988L149.265 188.607L150.162 188.164ZM143.478 176.733C143.298 179.421 143.186 181.331 143.142 182.459L144.141 182.498C144.185 181.385 144.296 179.487 144.476 176.8L143.478 176.733ZM143.142 182.454C143.037 184.596 143.006 186.506 143.049 188.185L144.049 188.159C144.006 186.511 144.037 184.626 144.141 182.503L143.142 182.454ZM143.616 187.676L136.036 186.657L135.902 187.648L143.483 188.667L143.616 187.676ZM136.469 187.144C136.412 183.812 136.54 180.334 136.855 176.71L135.859 176.624C135.541 180.279 135.411 183.792 135.469 187.161L136.469 187.144ZM136.855 176.71C137.168 173.1 137.532 169.212 137.947 165.047L136.952 164.948C136.537 169.116 136.172 173.008 135.859 176.624L136.855 176.71ZM137.422 165.497L146.412 165.996L146.468 164.998L137.477 164.499L137.422 165.497ZM145.982 165.697L151.51 178.342L152.426 177.942L146.898 165.297L145.982 165.697ZM152.464 178.204L153.915 166.566L152.923 166.442L151.472 178.08L152.464 178.204ZM153.359 167L160.352 167.848L160.472 166.855L153.479 166.008L153.359 167ZM182.434 174.884L182.401 175.383L182.909 175.416L182.933 174.908L182.434 174.884ZM176.645 174.502L176.678 174.003L176.204 173.972L176.149 174.444L176.645 174.502ZM174.63 191.712L174.584 192.21L175.07 192.255L175.127 191.77L174.63 191.712ZM167.58 191.06L167.081 191.023L167.045 191.513L167.534 191.558L167.58 191.06ZM168.861 173.987L169.359 174.024L169.397 173.519L168.892 173.488L168.861 173.987ZM162.312 173.579L161.815 173.524L161.757 174.046L162.28 174.078L162.312 173.579ZM163.045 166.978L163.084 166.479L162.601 166.441L162.548 166.923L163.045 166.978ZM182.745 168.527L183.244 168.551L183.268 168.066L182.784 168.028L182.745 168.527ZM182.467 174.385L176.678 174.003L176.612 175.001L182.401 175.383L182.467 174.385ZM176.149 174.444L174.134 191.654L175.127 191.77L177.142 174.56L176.149 174.444ZM174.676 191.214L167.626 190.562L167.534 191.558L174.584 192.21L174.676 191.214ZM168.079 191.097L169.359 174.024L168.362 173.949L167.081 191.023L168.079 191.097ZM168.892 173.488L162.343 173.08L162.28 174.078L168.83 174.486L168.892 173.488ZM162.808 173.634L163.542 167.033L162.548 166.923L161.815 173.524L162.808 173.634ZM163.006 167.476L182.706 169.025L182.784 168.028L163.084 166.479L163.006 167.476ZM182.245 168.502L181.935 174.859L182.933 174.908L183.244 168.551L182.245 168.502Z" fill="black"/>
</g>
</g>
</g>
<defs>
<filter id="filter0_d_1_164" x="52.8264" y="155.68" width="131.31" height="37.7378" filterUnits="userSpaceOnUse" color-interpolation-filters="sRGB">
<feFlood flood-opacity="0" result="BackgroundImageFix"/>
<feColorMatrix in="SourceAlpha" type="matrix" values="0 0 0 0 0 0 0 0 0 0 0 0 0 0 0 0 0 0 127 0" result="hardAlpha"/>
<feOffset dx="1" dy="1"/>
<feComposite in2="hardAlpha" operator="out"/>
<feColorMatrix type="matrix" values="0 0 0 0 0 0 0 0 0 0 0 0 0 0 0 0 0 0 1 0"/>
<feBlend mode="normal" in2="BackgroundImageFix" result="effect1_dropShadow_1_164"/>
<feBlend mode="normal" in="SourceGraphic" in2="effect1_dropShadow_1_164" result="shape"/>
</filter>
<clipPath id="clip0_1_164">
<rect width="236" height="220" fill="white"/>
</clipPath>
<clipPath id="clip1_1_164">
<rect width="209.373" height="195.68" fill="white" transform="matrix(0.992033 0.12598 -0.144599 0.98949 28.2951 0)"/>
</clipPath>
</defs>
</svg>
