<svg width="79" height="78" viewBox="0 0 79 78" fill="none" xmlns="http://www.w3.org/2000/svg">
<rect x="5.64697" y="4.71429" width="72.3529" height="72.2857" rx="36.1429" stroke="black" stroke-width="2"/>
<rect x="1" y="1" width="72.3529" height="72.2857" rx="36.1429" fill="#FFBE0B" stroke="black" stroke-width="2"/>
<line y1="-1" x2="5.12456" y2="-1" transform="matrix(0.596602 0.802537 -0.803053 0.595907 32.5293 73.3571)" stroke="black" stroke-width="2"/>
<line y1="-1" x2="5.12456" y2="-1" transform="matrix(0.596602 0.802537 -0.803053 0.595907 39.9646 73.3571)" stroke="black" stroke-width="2"/>
<line y1="-1" x2="5.41575" y2="-1" transform="matrix(0.514838 0.857287 -0.857698 0.514153 47.3999 72.4286)" stroke="black" stroke-width="2"/>
<line y1="-1" x2="5.41575" y2="-1" transform="matrix(0.514838 0.857287 -0.857698 0.514153 53.9058 69.6429)" stroke="black" stroke-width="2"/>
<line y1="-1" x2="4.64437" y2="-1" transform="matrix(0.600347 0.79974 -0.80026 0.599653 60.4119 65.9286)" stroke="black" stroke-width="2"/>
<line y1="-1" x2="5.1283" y2="-1" transform="matrix(0.626713 0.77925 -0.779803 0.626025 64.1294 61.2857)" stroke="black" stroke-width="2"/>
<line y1="-1" x2="5.94904" y2="-1" transform="matrix(0.781144 0.624351 -0.625039 0.780593 67.8472 56.6429)" stroke="black" stroke-width="2"/>
<line y1="-1" x2="5.94904" y2="-1" transform="matrix(0.781145 0.62435 -0.62504 0.780593 70.6353 50.1429)" stroke="black" stroke-width="2"/>
<line y1="-1" x2="6.56896" y2="-1" transform="matrix(0.707426 0.706787 -0.707426 0.706787 72.4941 40.8571)" stroke="black" stroke-width="2"/>
<line y1="-1" x2="7.25506" y2="-1" transform="matrix(0.640526 0.767937 -0.768506 0.639843 72.4941 32.5)" stroke="black" stroke-width="2"/>
</svg>
