<svg width="411" height="823" viewBox="0 0 411 823" fill="none" xmlns="http://www.w3.org/2000/svg">
<g style="mix-blend-mode:soft-light">
<rect x="-15.5" width="55.25" height="53.5" fill="#7131CA" fill-opacity="0.81"/>
<rect x="-15.5" y="428" width="55.25" height="53.5" fill="#7131CA" fill-opacity="0.81"/>
<rect x="-15.5" y="214" width="55.25" height="53.5" fill="#7131CA" fill-opacity="0.81"/>
<rect x="-15.5" y="642" width="55.25" height="53.5" fill="#7131CA" fill-opacity="0.81"/>
<rect x="-15.5" y="107" width="55.25" height="53.5" fill="#7131CA" fill-opacity="0.81"/>
<rect x="-15.5" y="535" width="55.25" height="53.5" fill="#7131CA" fill-opacity="0.81"/>
<rect x="-15.5" y="321" width="55.25" height="53.5" fill="#7131CA" fill-opacity="0.81"/>
<rect x="-15.5" y="749" width="55.25" height="53.5" fill="#7131CA" fill-opacity="0.81"/>
<rect x="371.25" y="53.5" width="55.25" height="53.5" fill="#7131CA" fill-opacity="0.81"/>
<rect x="371.25" y="481.5" width="55.25" height="53.5" fill="#7131CA" fill-opacity="0.81"/>
<rect x="371.25" y="267.5" width="55.25" height="53.5" fill="#7131CA" fill-opacity="0.81"/>
<rect x="371.25" y="695.5" width="55.25" height="53.5" fill="#7131CA" fill-opacity="0.81"/>
<rect x="371.25" y="160.5" width="55.25" height="53.5" fill="#7131CA" fill-opacity="0.81"/>
<rect x="371.25" y="588.5" width="55.25" height="53.5" fill="#7131CA" fill-opacity="0.81"/>
<rect x="371.25" y="374.5" width="55.25" height="53.5" fill="#7131CA" fill-opacity="0.81"/>
<rect x="371.25" y="802.5" width="55.25" height="53.5" fill="#7131CA" fill-opacity="0.81"/>
<rect x="95" width="55.25" height="53.5" fill="#7131CA" fill-opacity="0.81"/>
<rect x="95" y="428" width="55.25" height="53.5" fill="#7131CA" fill-opacity="0.81"/>
<rect x="95" y="214" width="55.25" height="53.5" fill="#7131CA" fill-opacity="0.81"/>
<rect x="95" y="642" width="55.25" height="53.5" fill="#7131CA" fill-opacity="0.81"/>
<rect x="95" y="107" width="55.25" height="53.5" fill="#7131CA" fill-opacity="0.81"/>
<rect x="95" y="535" width="55.25" height="53.5" fill="#7131CA" fill-opacity="0.81"/>
<rect x="95" y="321" width="55.25" height="53.5" fill="#7131CA" fill-opacity="0.81"/>
<rect x="95" y="749" width="55.25" height="53.5" fill="#7131CA" fill-opacity="0.81"/>
<rect x="39.75" y="53.5" width="55.25" height="53.5" fill="#7131CA" fill-opacity="0.81"/>
<rect x="39.75" y="481.5" width="55.25" height="53.5" fill="#7131CA" fill-opacity="0.81"/>
<rect x="39.75" y="267.5" width="55.25" height="53.5" fill="#7131CA" fill-opacity="0.81"/>
<rect x="39.75" y="695.5" width="55.25" height="53.5" fill="#7131CA" fill-opacity="0.81"/>
<rect x="39.75" y="160.5" width="55.25" height="53.5" fill="#7131CA" fill-opacity="0.81"/>
<rect x="39.75" y="588.5" width="55.25" height="53.5" fill="#7131CA" fill-opacity="0.81"/>
<rect x="39.75" y="374.5" width="55.25" height="53.5" fill="#7131CA" fill-opacity="0.81"/>
<rect x="39.75" y="802.5" width="55.25" height="53.5" fill="#7131CA" fill-opacity="0.81"/>
<rect x="205.5" width="55.25" height="53.5" fill="#7131CA" fill-opacity="0.81"/>
<rect x="205.5" y="428" width="55.25" height="53.5" fill="#7131CA" fill-opacity="0.81"/>
<rect x="205.5" y="214" width="55.25" height="53.5" fill="#7131CA" fill-opacity="0.81"/>
<rect x="205.5" y="642" width="55.25" height="53.5" fill="#7131CA" fill-opacity="0.81"/>
<rect x="205.5" y="107" width="55.25" height="53.5" fill="#7131CA" fill-opacity="0.81"/>
<rect x="205.5" y="535" width="55.25" height="53.5" fill="#7131CA" fill-opacity="0.81"/>
<rect x="205.5" y="321" width="55.25" height="53.5" fill="#7131CA" fill-opacity="0.81"/>
<rect x="205.5" y="749" width="55.25" height="53.5" fill="#7131CA" fill-opacity="0.81"/>
<rect x="150.25" y="53.5" width="55.25" height="53.5" fill="#7131CA" fill-opacity="0.81"/>
<rect x="150.25" y="481.5" width="55.25" height="53.5" fill="#7131CA" fill-opacity="0.81"/>
<rect x="150.25" y="267.5" width="55.25" height="53.5" fill="#7131CA" fill-opacity="0.81"/>
<rect x="150.25" y="695.5" width="55.25" height="53.5" fill="#7131CA" fill-opacity="0.81"/>
<rect x="150.25" y="160.5" width="55.25" height="53.5" fill="#7131CA" fill-opacity="0.81"/>
<rect x="150.25" y="588.5" width="55.25" height="53.5" fill="#7131CA" fill-opacity="0.81"/>
<rect x="150.25" y="374.5" width="55.25" height="53.5" fill="#7131CA" fill-opacity="0.81"/>
<rect x="150.25" y="802.5" width="55.25" height="53.5" fill="#7131CA" fill-opacity="0.81"/>
<rect x="316" width="55.25" height="53.5" fill="#7131CA" fill-opacity="0.81"/>
<rect x="316" y="428" width="55.25" height="53.5" fill="#7131CA" fill-opacity="0.81"/>
<rect x="316" y="214" width="55.25" height="53.5" fill="#7131CA" fill-opacity="0.81"/>
<rect x="316" y="642" width="55.25" height="53.5" fill="#7131CA" fill-opacity="0.81"/>
<rect x="316" y="107" width="55.25" height="53.5" fill="#7131CA" fill-opacity="0.81"/>
<rect x="316" y="535" width="55.25" height="53.5" fill="#7131CA" fill-opacity="0.81"/>
<rect x="316" y="321" width="55.25" height="53.5" fill="#7131CA" fill-opacity="0.81"/>
<rect x="316" y="749" width="55.25" height="53.5" fill="#7131CA" fill-opacity="0.81"/>
<rect x="260.75" y="53.5" width="55.25" height="53.5" fill="#7131CA" fill-opacity="0.81"/>
<rect x="260.75" y="481.5" width="55.25" height="53.5" fill="#7131CA" fill-opacity="0.81"/>
<rect x="260.75" y="267.5" width="55.25" height="53.5" fill="#7131CA" fill-opacity="0.81"/>
<rect x="260.75" y="695.5" width="55.25" height="53.5" fill="#7131CA" fill-opacity="0.81"/>
<rect x="260.75" y="160.5" width="55.25" height="53.5" fill="#7131CA" fill-opacity="0.81"/>
<rect x="260.75" y="588.5" width="55.25" height="53.5" fill="#7131CA" fill-opacity="0.81"/>
<rect x="260.75" y="374.5" width="55.25" height="53.5" fill="#7131CA" fill-opacity="0.81"/>
<rect x="260.75" y="802.5" width="55.25" height="53.5" fill="#7131CA" fill-opacity="0.81"/>
</g>
</svg>
