<svg width="262" height="63" viewBox="0 0 262 63" fill="none" xmlns="http://www.w3.org/2000/svg">
<g filter="url(#filter0_d_11_360)">
<g clip-path="url(#clip0_11_360)">
<rect width="260" height="60" rx="30" fill="#FFBE0B"/>
<circle cx="48.4804" cy="-11.1497" r="62.418" fill="#FFD45E"/>
<circle cx="231.573" cy="82.9067" r="52.9067" fill="#ECAD00"/>
<path d="M95.61 24.71L92.4 28.7C90.88 27.34 89.27 26.66 87.57 26.66C86.51 26.66 85.98 26.88 85.98 27.32C85.98 27.66 86.76 28.15 88.32 28.79C90.42 29.67 91.88 30.39 92.7 30.95C94.28 32.03 95.07 33.24 95.07 34.58C95.07 36.46 94.34 37.99 92.88 39.17C91.52 40.27 89.88 40.82 87.96 40.82C85.22 40.82 82.49 39.35 79.77 36.41L83.01 32.3C83.71 33.08 84.53 33.76 85.47 34.34C86.57 35 87.57 35.33 88.47 35.33C89.35 35.33 89.79 35.09 89.79 34.61C89.79 34.21 88.92 33.68 87.18 33.02C84.84 32.16 83.23 31.44 82.35 30.86C80.61 29.74 79.74 28.39 79.74 26.81C79.74 25.07 80.58 23.64 82.26 22.52C83.74 21.54 85.39 21.05 87.21 21.05C88.75 21.05 90.28 21.37 91.8 22.01C93.4 22.67 94.67 23.57 95.61 24.71ZM102.723 22.76C102.463 26.42 102.333 29.77 102.333 32.81C102.333 35.79 102.373 38.13 102.453 39.83L97.1133 40.01C96.9733 37.79 96.9033 35.34 96.9033 32.66C96.9033 29.98 97.0133 26.61 97.2333 22.55L102.723 22.76ZM123.07 30.86C123.07 33.62 122.09 35.96 120.13 37.88C118.19 39.78 115.84 40.73 113.08 40.73C110.54 40.73 108.43 39.94 106.75 38.36C105.09 36.76 104.26 34.69 104.26 32.15C104.26 29.25 105.35 26.79 107.53 24.77C109.65 22.79 112.17 21.8 115.09 21.8C117.15 21.8 118.8 22.04 120.04 22.52L118.99 28.4C117.67 28.06 116.68 27.89 116.02 27.89C114.42 27.89 113.09 28.26 112.03 29C110.81 29.84 110.2 31.04 110.2 32.6C110.2 33.56 110.52 34.3 111.16 34.82C111.8 35.34 112.61 35.6 113.59 35.6C114.81 35.6 115.98 35.07 117.1 34.01C116.22 34.03 114.82 34.11 112.9 34.25L112.63 30.05L122.8 29.21C122.98 29.75 123.07 30.3 123.07 30.86ZM141.98 23.18L141.65 39.68L135.35 39.59L130.31 31.28C130.35 33.3 130.39 34.73 130.43 35.57C130.49 37.17 130.59 38.59 130.73 39.83L125 39.56C124.74 37.06 124.61 34.44 124.61 31.7C124.61 28.98 124.63 26.05 124.67 22.91L131.42 22.7L136.37 31.79L136.7 23L141.98 23.18ZM159.865 22.76C159.605 26.42 159.475 29.77 159.475 32.81C159.475 35.79 159.515 38.13 159.595 39.83L154.255 40.01C154.115 37.79 154.045 35.34 154.045 32.66C154.045 29.98 154.155 26.61 154.375 22.55L159.865 22.76ZM179.365 23.18L179.035 39.68L172.735 39.59L167.695 31.28C167.735 33.3 167.775 34.73 167.815 35.57C167.875 37.17 167.975 38.59 168.115 39.83L162.385 39.56C162.125 37.06 161.995 34.44 161.995 31.7C161.995 28.98 162.015 26.05 162.055 22.91L168.805 22.7L173.755 31.79L174.085 23L179.365 23.18Z" fill="black"/>
</g>
<rect x="1" y="1" width="258" height="58" rx="29" stroke="black" stroke-width="2"/>
</g>
<defs>
<filter id="filter0_d_11_360" x="0" y="0" width="262" height="63" filterUnits="userSpaceOnUse" color-interpolation-filters="sRGB">
<feFlood flood-opacity="0" result="BackgroundImageFix"/>
<feColorMatrix in="SourceAlpha" type="matrix" values="0 0 0 0 0 0 0 0 0 0 0 0 0 0 0 0 0 0 127 0" result="hardAlpha"/>
<feOffset dx="2" dy="3"/>
<feComposite in2="hardAlpha" operator="out"/>
<feColorMatrix type="matrix" values="0 0 0 0 0 0 0 0 0 0 0 0 0 0 0 0 0 0 1 0"/>
<feBlend mode="normal" in2="BackgroundImageFix" result="effect1_dropShadow_11_360"/>
<feBlend mode="normal" in="SourceGraphic" in2="effect1_dropShadow_11_360" result="shape"/>
</filter>
<clipPath id="clip0_11_360">
<rect width="260" height="60" rx="30" fill="white"/>
</clipPath>
</defs>
</svg>
