<svg width="127" height="109" viewBox="0 0 127 109" fill="none" xmlns="http://www.w3.org/2000/svg">
<g clip-path="url(#clip0_33_1998)">
<g style="mix-blend-mode:multiply">
<path d="M9.34646 55.555L71.2364 -15.715C73.9397 -18.8273 77.2295 -21.3767 80.9181 -23.2177C84.6066 -25.0586 88.6215 -26.155 92.7338 -26.4442C96.846 -26.7335 100.975 -26.2099 104.885 -24.9035C108.795 -23.597 112.409 -21.5333 115.521 -18.83C118.634 -16.1267 121.183 -12.8369 123.024 -9.14841C124.865 -5.45989 125.961 -1.44489 126.251 2.66735C126.54 6.7796 126.016 10.9085 124.71 14.8185C123.403 18.7284 121.34 22.3427 118.636 25.455L56.7464 96.715C54.0481 99.8355 50.76 102.392 47.071 104.239C43.382 106.085 39.3647 107.185 35.2495 107.475C31.1344 107.765 27.0025 107.239 23.0911 105.928C19.1796 104.617 15.5656 102.546 12.4564 99.835C6.88031 95.0096 3.18955 88.3684 2.03646 81.085C1.88646 80.185 1.78646 79.285 1.72646 78.375C1.43176 74.2631 1.9533 70.1334 3.26107 66.2239C4.56883 62.3143 6.63698 58.702 9.34646 55.595V55.555Z" fill="black" stroke="black" stroke-linecap="round" stroke-linejoin="round"/>
<path d="M18.5264 72.715L17.7264 63.575L64.0364 88.325L56.7463 96.715C54.3511 99.4754 51.4955 101.8 48.3063 103.585L2.03639 81.085C1.88639 80.185 1.78639 79.285 1.72639 78.375C1.41221 73.9144 2.05308 69.4382 3.60633 65.245L18.5264 72.715Z" fill="black" stroke="black" stroke-linecap="round" stroke-linejoin="round"/>
<path d="M41.8465 18.115L66.2465 34.255L65.5865 24.125L99.4265 47.565L84.8165 64.395L31.5065 30.025L41.8465 18.115Z" fill="black" stroke="black" stroke-linecap="round" stroke-linejoin="round"/>
<path d="M80.9264 -23.225C86.3878 -25.9487 92.5255 -27.0192 98.5864 -26.305L126.316 5.90499C126.085 13.1117 123.372 20.0175 118.636 25.455L116.636 27.715L77.9564 -14.365L88.0964 -15.105L80.9264 -23.225Z" fill="black" stroke="black" stroke-linecap="round" stroke-linejoin="round"/>
<path d="M24.5764 39.735L43.2064 55.925C43.4801 55.0668 43.9414 54.2803 44.5568 53.6226C45.1722 52.9648 45.9263 52.4523 46.7643 52.1221C47.6024 51.7919 48.5034 51.6524 49.4021 51.7137C50.3008 51.7749 51.1746 52.0354 51.9601 52.4763C52.7456 52.9171 53.4231 53.5273 53.9435 54.2625C54.464 54.9977 54.8143 55.8395 54.9691 56.7268C55.1238 57.6142 55.0791 58.5249 54.8382 59.3929C54.5973 60.2608 54.1663 61.0643 53.5764 61.745C53.0401 62.3709 52.3794 62.8783 51.6364 63.235L71.9764 80.905L68.1663 85.285L20.7664 44.085L24.5764 39.735Z" fill="black" stroke="black" stroke-linecap="round" stroke-linejoin="round"/>
<path d="M73.7765 71.245C74.4996 71.8722 75.0918 72.6358 75.5194 73.4922C75.947 74.3485 76.2015 75.2808 76.2684 76.2357C76.3353 77.1905 76.2132 78.1492 75.9091 79.0568C75.6051 79.9644 75.125 80.8031 74.4965 81.525L68.3065 88.655C67.6793 89.378 66.9156 89.9703 66.0593 90.3979C65.2029 90.8255 64.2707 91.08 63.3158 91.1469C62.361 91.2138 61.4023 91.0917 60.4947 90.7876C59.5871 90.4836 58.7484 90.0035 58.0265 89.375V89.375C56.5692 88.1085 55.6746 86.3151 55.5396 84.3891C55.4045 82.4631 56.0401 80.5624 57.3065 79.105L63.4965 71.975C64.7633 70.5156 66.5577 69.6189 68.4854 69.482C70.413 69.3451 72.3162 69.9792 73.7765 71.245V71.245Z" fill="black" stroke="black" stroke-linecap="round" stroke-linejoin="round"/>
<path d="M32.1764 35.085C31.4545 34.4564 30.6158 33.9764 29.7082 33.6723C28.8006 33.3683 27.8419 33.2462 26.8871 33.3131C25.9323 33.38 25 33.6345 24.1436 34.0621C23.2873 34.4896 22.5236 35.0819 21.8964 35.805L15.6964 42.975C14.4307 44.4353 13.7966 46.3384 13.9335 48.2661C14.0704 50.1937 14.967 51.9882 16.4264 53.255C17.1487 53.8814 17.9872 54.3595 18.8942 54.6618C19.8013 54.9641 20.7589 55.0849 21.7126 55.0171C22.6663 54.9493 23.5973 54.6943 24.4524 54.2667C25.3075 53.8391 26.07 53.2473 26.6964 52.525L32.8864 45.395C33.5214 44.6736 34.0071 43.8335 34.3154 42.9232C34.6236 42.013 34.7484 41.0506 34.6823 40.0918C34.6163 39.1331 34.3609 38.1969 33.9307 37.3375C33.5006 36.4781 32.9043 35.7125 32.1764 35.085V35.085Z" fill="black" stroke="black" stroke-linecap="round" stroke-linejoin="round"/>
<path d="M62.3464 -3.755L80.9764 12.435C81.2822 11.4782 81.8207 10.6122 82.5436 9.91474C83.2666 9.21728 84.1513 8.71014 85.1185 8.43879C86.0856 8.16744 87.105 8.14036 88.0853 8.35999C89.0655 8.57961 89.9759 9.03907 90.7348 9.69717C91.4937 10.3553 92.0775 11.1914 92.4337 12.1307C92.7899 13.0699 92.9075 14.0829 92.7758 15.0788C92.6441 16.0746 92.2674 17.0222 91.6793 17.8366C91.0913 18.651 90.3103 19.3067 89.4064 19.745L109.746 37.415L105.936 41.805L58.5364 0.634995L62.3464 -3.755Z" fill="black" stroke="black" stroke-linecap="round" stroke-linejoin="round"/>
<path d="M111.546 27.755C112.277 28.3828 112.875 29.1493 113.308 30.0101C113.74 30.8709 113.997 31.8089 114.063 32.7697C114.13 33.7305 114.006 34.695 113.698 35.6074C113.389 36.5198 112.903 37.3619 112.266 38.085L106.076 45.215C105.449 45.9381 104.686 46.5303 103.829 46.9579C102.973 47.3855 102.041 47.64 101.086 47.7069C100.131 47.7738 99.1723 47.6517 98.2647 47.3477C97.3571 47.0436 96.5183 46.5636 95.7965 45.935C94.3391 44.6686 93.4446 42.8751 93.3096 40.9491C93.1746 39.0231 93.8101 37.1224 95.0765 35.665L101.266 28.535C102.526 27.0684 104.317 26.1622 106.245 26.016C108.173 25.8697 110.08 26.4952 111.546 27.755Z" fill="black" stroke="black" stroke-linecap="round" stroke-linejoin="round"/>
<path d="M69.9464 -8.36501C69.2245 -8.99357 68.3858 -9.47361 67.4782 -9.77766C66.5706 -10.0817 65.6119 -10.2038 64.6571 -10.1369C63.7023 -10.07 62.77 -9.81551 61.9136 -9.38792C61.0573 -8.96033 60.2936 -8.36806 59.6664 -7.645L53.4764 -0.515004C52.2095 0.944039 51.5736 2.8464 51.7086 4.77402C51.8436 6.70164 52.7385 8.4968 54.1964 9.765C55.6504 11.0368 57.5497 11.6795 59.4771 11.552C61.4046 11.4245 63.2027 10.5372 64.4764 9.085L70.6964 1.90499C71.3229 1.18207 71.8005 0.342607 72.102 -0.565274C72.4034 -1.47316 72.5227 -2.4316 72.4531 -3.38568C72.3834 -4.33976 72.1261 -5.2707 71.696 -6.12515C71.2658 -6.97961 70.6713 -7.74077 69.9464 -8.36501Z" fill="black" stroke="black" stroke-linecap="round" stroke-linejoin="round"/>
</g>
<path d="M8.34646 54.555L70.2364 -16.715C75.6959 -23.0006 83.4287 -26.8601 91.7338 -27.4442C100.039 -28.0284 108.236 -25.2895 114.521 -19.83C120.807 -14.3705 124.666 -6.63769 125.251 1.66735C125.835 9.9724 123.096 18.1694 117.636 24.455L55.7464 95.715C53.0481 98.8355 49.76 101.392 46.071 103.239C42.382 105.085 38.3647 106.185 34.2495 106.475C30.1344 106.765 26.0025 106.239 22.0911 104.928C18.1796 103.617 14.5656 101.546 11.4564 98.835C5.88031 94.0096 2.18955 87.3684 1.03646 80.085C0.886458 79.185 0.78646 78.285 0.72646 77.375C0.431764 73.2631 0.953304 69.1334 2.26107 65.2239C3.56883 61.3143 5.63698 57.702 8.34646 54.595V54.555Z" fill="#FF006E" stroke="black" stroke-linecap="round" stroke-linejoin="round"/>
<path d="M17.5264 71.715L16.7264 62.575L63.0364 87.325L55.7463 95.715C53.3511 98.4754 50.4955 100.8 47.3063 102.585L1.03639 80.085C0.886387 79.185 0.78639 78.285 0.72639 77.375C0.412207 72.9144 1.05308 68.4382 2.60633 64.245L17.5264 71.715Z" fill="#FDC0C0" stroke="black" stroke-linecap="round" stroke-linejoin="round"/>
<path d="M40.8465 17.115L65.2465 33.255L64.5865 23.125L98.4265 46.565L83.8165 63.395L30.5065 29.025L40.8465 17.115Z" fill="#FDC0C0" stroke="black" stroke-linecap="round" stroke-linejoin="round"/>
<path d="M79.9264 -24.225C85.3878 -26.9487 91.5255 -28.0192 97.5864 -27.305L125.316 4.90499C125.085 12.1117 122.372 19.0175 117.636 24.455L115.636 26.715L76.9564 -15.365L87.0964 -16.105L79.9264 -24.225Z" fill="#FDC0C0" stroke="black" stroke-linecap="round" stroke-linejoin="round"/>
<path d="M23.5764 38.735L42.2064 54.925C42.4801 54.0668 42.9414 53.2803 43.5568 52.6226C44.1722 51.9648 44.9263 51.4523 45.7643 51.1221C46.6024 50.7919 47.5034 50.6524 48.4021 50.7137C49.3008 50.7749 50.1746 51.0354 50.9601 51.4763C51.7456 51.9171 52.4231 52.5273 52.9435 53.2625C53.464 53.9977 53.8143 54.8395 53.9691 55.7268C54.1238 56.6142 54.0791 57.5249 53.8382 58.3929C53.5973 59.2608 53.1663 60.0643 52.5764 60.745C52.0401 61.3709 51.3794 61.8783 50.6364 62.235L70.9764 79.905L67.1663 84.285L19.7664 43.085L23.5764 38.735Z" fill="#1C90F3" stroke="black" stroke-linecap="round" stroke-linejoin="round"/>
<path d="M72.7765 70.245C73.4996 70.8722 74.0918 71.6358 74.5194 72.4922C74.947 73.3485 75.2015 74.2808 75.2684 75.2357C75.3353 76.1905 75.2132 77.1492 74.9091 78.0568C74.6051 78.9644 74.125 79.8031 73.4965 80.525L67.3065 87.655C66.6793 88.378 65.9156 88.9703 65.0593 89.3979C64.2029 89.8255 63.2707 90.08 62.3158 90.1469C61.361 90.2138 60.4023 90.0917 59.4947 89.7876C58.5871 89.4836 57.7484 89.0035 57.0265 88.375V88.375C55.5692 87.1085 54.6746 85.3151 54.5396 83.3891C54.4045 81.4631 55.0401 79.5624 56.3065 78.105L62.4965 70.975C63.7633 69.5156 65.5577 68.6189 67.4854 68.482C69.413 68.3451 71.3162 68.9792 72.7765 70.245V70.245Z" fill="#8338EC" stroke="black" stroke-linecap="round" stroke-linejoin="round"/>
<path d="M31.1764 34.085C30.4545 33.4564 29.6158 32.9764 28.7082 32.6723C27.8006 32.3683 26.8419 32.2462 25.8871 32.3131C24.9323 32.38 24 32.6345 23.1436 33.0621C22.2873 33.4896 21.5236 34.0819 20.8964 34.805L14.6964 41.975C13.4307 43.4353 12.7966 45.3384 12.9335 47.2661C13.0704 49.1937 13.967 50.9882 15.4264 52.255V52.255C16.1487 52.8814 16.9872 53.3595 17.8942 53.6618C18.8013 53.9641 19.7589 54.0849 20.7126 54.0171C21.6663 53.9493 22.5973 53.6943 23.4524 53.2667C24.3075 52.8391 25.07 52.2473 25.6964 51.525L31.8864 44.395C32.5214 43.6736 33.0071 42.8335 33.3154 41.9232C33.6236 41.013 33.7484 40.0506 33.6823 39.0918C33.6163 38.1331 33.3609 37.1969 32.9307 36.3375C32.5006 35.4781 31.9043 34.7125 31.1764 34.085Z" fill="#8338EC" stroke="black" stroke-linecap="round" stroke-linejoin="round"/>
<path d="M61.3464 -4.755L79.9764 11.435C80.2822 10.4782 80.8207 9.6122 81.5436 8.91474C82.2666 8.21728 83.1513 7.71014 84.1185 7.43879C85.0856 7.16744 86.105 7.14036 87.0853 7.35999C88.0655 7.57961 88.9759 8.03907 89.7348 8.69717C90.4937 9.35527 91.0775 10.1914 91.4337 11.1307C91.7899 12.0699 91.9075 13.0829 91.7758 14.0788C91.6441 15.0746 91.2674 16.0222 90.6793 16.8366C90.0913 17.651 89.3103 18.3067 88.4064 18.745L108.746 36.415L104.936 40.805L57.5364 -0.365005L61.3464 -4.755Z" fill="#1C90F3" stroke="black" stroke-linecap="round" stroke-linejoin="round"/>
<path d="M110.546 26.755C111.277 27.3828 111.875 28.1493 112.308 29.0101C112.74 29.8709 112.997 30.8089 113.063 31.7697C113.13 32.7305 113.006 33.695 112.698 34.6074C112.389 35.5198 111.903 36.3619 111.266 37.085L105.076 44.215C104.449 44.9381 103.686 45.5303 102.829 45.9579C101.973 46.3855 101.041 46.64 100.086 46.7069C99.131 46.7738 98.1723 46.6517 97.2647 46.3477C96.3571 46.0436 95.5183 45.5636 94.7965 44.935V44.935C93.3391 43.6686 92.4446 41.8751 92.3096 39.9491C92.1746 38.0231 92.8101 36.1224 94.0765 34.665L100.266 27.535C101.526 26.0684 103.317 25.1622 105.245 25.016C107.173 24.8697 109.08 25.4952 110.546 26.755V26.755Z" fill="#8338EC" stroke="black" stroke-linecap="round" stroke-linejoin="round"/>
<path d="M68.9464 -9.36501C68.2245 -9.99357 67.3858 -10.4736 66.4782 -10.7777C65.5706 -11.0817 64.6119 -11.2038 63.6571 -11.1369C62.7023 -11.07 61.77 -10.8155 60.9136 -10.3879C60.0573 -9.96033 59.2936 -9.36806 58.6664 -8.645L52.4764 -1.515C51.2095 -0.0559607 50.5736 1.8464 50.7086 3.77402C50.8436 5.70164 51.7385 7.4968 53.1964 8.765C54.6504 10.0368 56.5497 10.6795 58.4771 10.552C60.4046 10.4245 62.2027 9.53719 63.4764 8.085L69.6964 0.904994C70.3229 0.182069 70.8005 -0.657393 71.102 -1.56527C71.4034 -2.47316 71.5227 -3.4316 71.4531 -4.38568C71.3834 -5.33976 71.1261 -6.2707 70.696 -7.12515C70.2658 -7.97961 69.6713 -8.74077 68.9464 -9.36501Z" fill="#8338EC" stroke="black" stroke-linecap="round" stroke-linejoin="round"/>
</g>
<defs>
<clipPath id="clip0_33_1998">
<rect width="126.68" height="136.05" fill="white" transform="translate(0.146362 -28.025)"/>
</clipPath>
</defs>
</svg>
