<svg width="139" height="172" viewBox="0 0 139 172" fill="none" xmlns="http://www.w3.org/2000/svg">
<g style="mix-blend-mode:multiply">
<path d="M137.527 121.779C156.66 94.254 149.857 56.4304 122.332 37.2974C94.8074 18.1643 56.9838 24.9671 37.8507 52.4919C18.7176 80.0166 25.5204 117.84 53.0451 136.973C80.5699 156.106 118.394 149.304 137.527 121.779Z" fill="black" stroke="black" stroke-width="0.998649" stroke-linecap="round" stroke-linejoin="round"/>
<path d="M86.9625 64.6375C87.5146 67.7511 88.9777 70.631 91.1668 72.9129C93.3559 75.1948 96.1727 76.7762 99.2607 77.457C102.349 78.1377 105.569 77.8873 108.515 76.7374C111.461 75.5874 113.999 73.5897 115.809 70.9968C117.619 68.4039 118.619 65.3325 118.684 62.171C118.748 59.0095 117.873 55.8999 116.169 53.2358C114.466 50.5717 112.011 48.4727 109.114 47.2043C106.217 45.9359 103.01 45.5551 99.8964 46.1101C95.7281 46.8592 92.0266 49.2296 89.6024 52.7022C87.1782 56.1748 86.2289 60.4665 86.9625 64.6375V64.6375Z" fill="black" stroke="black" stroke-linecap="round" stroke-linejoin="round"/>
<path d="M86.9625 64.6376C87.2752 66.413 88.1078 68.0558 89.3548 69.3578C90.6017 70.6598 92.207 71.5625 93.9673 71.9516C95.7276 72.3408 97.5639 72.1987 99.2434 71.5436C100.923 70.8885 102.37 69.7498 103.402 68.2715C104.434 66.7933 105.004 65.0421 105.04 63.2397C105.077 61.4372 104.577 59.6646 103.605 58.1462C102.633 56.6279 101.232 55.4322 99.5804 54.7104C97.9284 53.9886 96.0993 53.7732 94.3249 54.0915C91.9519 54.5173 89.8445 55.8664 88.4644 57.8432C87.0844 59.82 86.5442 62.2633 86.9625 64.6376V64.6376Z" fill="black"/>
<path d="M45.0215 72.1989C45.5776 75.3062 47.0425 78.1788 49.231 80.4536C51.4196 82.7285 54.2335 84.3034 57.317 84.9792C60.4004 85.655 63.615 85.4015 66.5544 84.2506C69.4938 83.0997 72.026 81.1031 73.8308 78.5133C75.6356 75.9235 76.6321 72.8567 76.6942 69.7006C76.7563 66.5446 75.8813 63.441 74.1798 60.7821C72.4783 58.1233 70.0266 56.0286 67.1348 54.763C64.243 53.4973 61.0408 53.1174 57.9331 53.6714C55.8685 54.0395 53.8966 54.8108 52.1301 55.9412C50.3637 57.0717 48.8374 58.5391 47.6383 60.2597C46.4392 61.9803 45.5908 63.9204 45.1418 65.969C44.6928 68.0175 44.652 70.1345 45.0215 72.1989Z" fill="black" stroke="black" stroke-linecap="round" stroke-linejoin="round"/>
<path d="M45.0216 72.1989C45.3424 73.9663 46.1799 75.5988 47.4281 76.8904C48.6764 78.182 50.2795 79.0747 52.0348 79.4556C53.7902 79.8366 55.6191 79.6888 57.2905 79.0309C58.9619 78.373 60.4007 77.2346 61.4254 75.7593C62.4501 74.284 63.0146 72.5381 63.0476 70.7422C63.0805 68.9463 62.5805 67.1809 61.6106 65.669C60.6407 64.1572 59.2444 62.9667 57.5983 62.2479C55.9521 61.5292 54.1299 61.3144 52.3618 61.6308C49.9883 62.0614 47.8826 63.4159 46.5065 65.3971C45.1304 67.3783 44.5964 69.8245 45.0216 72.1989V72.1989Z" fill="black"/>
<path d="M68.811 89.8862C69.203 92.0797 70.0231 94.1746 71.2246 96.0512C72.4262 97.9277 73.9856 99.5492 75.8138 100.823C77.642 102.097 79.7032 102.998 81.8798 103.476C84.0563 103.953 86.3056 103.997 88.4992 103.605C90.6927 103.213 92.7875 102.393 94.664 101.191C96.5406 99.9897 98.1622 98.4303 99.4361 96.6021C100.71 94.7739 101.611 92.7127 102.089 90.5361C102.566 88.3595 102.61 86.1102 102.218 83.9167" stroke="black" stroke-linecap="round" stroke-linejoin="round"/>
</g>
<path d="M135.316 119.546C154.449 92.021 147.646 54.1974 120.121 35.0644C92.5964 15.9313 54.7728 22.7341 35.6398 50.2589C16.5067 77.7836 23.3094 115.607 50.8342 134.74C78.3589 153.873 116.183 147.071 135.316 119.546Z" fill="#FDC0C0" stroke="black" stroke-width="0.998649" stroke-linecap="round" stroke-linejoin="round"/>
<path d="M84.7516 62.4266C85.3036 65.5402 86.7668 68.4201 88.9559 70.702C91.145 72.9839 93.9618 74.5653 97.0498 75.2461C100.138 75.9268 103.358 75.6764 106.304 74.5265C109.25 73.3765 111.788 71.3788 113.598 68.7859C115.408 66.193 116.408 63.1216 116.473 59.9601C116.537 56.7986 115.662 53.689 113.958 51.0249C112.255 48.3608 109.8 46.2618 106.903 44.9934C104.006 43.725 100.799 43.3442 97.6855 43.8992C93.5172 44.6483 89.8157 47.0187 87.3915 50.4913C84.9673 53.9639 84.0179 58.2556 84.7516 62.4266V62.4266Z" fill="white" stroke="black" stroke-linecap="round" stroke-linejoin="round"/>
<path d="M84.7516 62.4267C85.0643 64.2021 85.8969 65.8449 87.1438 67.1469C88.3908 68.4489 89.996 69.3516 91.7563 69.7407C93.5166 70.1298 95.3529 69.9878 97.0325 69.3327C98.7121 68.6776 100.159 67.5389 101.191 66.0606C102.223 64.5824 102.793 62.8312 102.83 61.0288C102.866 59.2263 102.366 57.4537 101.394 55.9353C100.422 54.417 99.0214 53.2213 97.3694 52.4995C95.7174 51.7777 93.8884 51.5623 92.1139 51.8806C89.7409 52.3064 87.6335 53.6554 86.2535 55.6323C84.8734 57.6091 84.3333 60.0523 84.7516 62.4267V62.4267Z" fill="black"/>
<path d="M42.8105 69.988C43.3667 73.0953 44.8315 75.9679 47.0201 78.2427C49.2086 80.5176 52.0226 82.0924 55.106 82.7683C58.1895 83.4441 61.4041 83.1905 64.3435 82.0396C67.2828 80.8888 69.815 78.8922 71.6199 76.3024C73.4247 73.7126 74.4211 70.6458 74.4832 67.4897C74.5454 64.3336 73.6704 61.23 71.9688 58.5712C70.2673 55.9124 67.8157 53.8177 64.9238 52.5521C62.032 51.2864 58.8299 50.9065 55.7222 51.4605C53.6575 51.8286 51.6857 52.5999 49.9192 53.7303C48.1528 54.8608 46.6264 56.3282 45.4273 58.0488C44.2283 59.7694 43.3799 61.7095 42.9309 63.758C42.4819 65.8066 42.441 67.9236 42.8105 69.988Z" fill="white" stroke="black" stroke-linecap="round" stroke-linejoin="round"/>
<path d="M42.8106 69.988C43.1315 71.7553 43.9689 73.3879 45.2172 74.6795C46.4655 75.9711 48.0686 76.8638 49.8239 77.2447C51.5793 77.6257 53.4082 77.4779 55.0795 76.82C56.7509 76.1621 58.1898 75.0236 59.2145 73.5484C60.2392 72.0731 60.8037 70.3272 60.8366 68.5313C60.8696 66.7354 60.3695 64.97 59.3996 63.4581C58.4297 61.9462 57.0335 60.7558 55.3874 60.037C53.7412 59.3183 51.919 59.1035 50.1509 59.4199C47.7774 59.8505 45.6716 61.205 44.2955 63.1862C42.9195 65.1674 42.3854 67.6136 42.8106 69.988V69.988Z" fill="black"/>
<path d="M66.6001 87.6753C66.9921 89.8688 67.8121 91.9637 69.0137 93.8403C70.2152 95.7168 71.7746 97.3383 73.6029 98.6122C75.4311 99.8861 77.4923 100.787 79.6688 101.265C81.8454 101.742 84.0947 101.786 86.2882 101.394C88.4817 101.002 90.5766 100.182 92.4531 98.9803C94.3297 97.7788 95.9512 96.2194 97.2251 94.3912C98.499 92.563 99.4004 90.5017 99.8777 88.3252C100.355 86.1486 100.399 83.8993 100.007 81.7058" stroke="black" stroke-linecap="round" stroke-linejoin="round"/>
</svg>
