<svg width="326" height="69" viewBox="0 0 326 69" fill="none" xmlns="http://www.w3.org/2000/svg">
<g filter="url(#filter0_d_1_536)">
<path d="M64.2 21.9C64.2 29.4333 60.4667 35.7667 53 40.9C46.3333 45.5 39.0667 47.8 31.2 47.8L27.6 39.7V63.5L9.6 63.3L8.9 24C6.56667 24.6 4.4 25.2667 2.4 26L0 7.5C8.86667 3.43333 21.1 1.4 36.7 1.4C44.0333 1.4 50.2 2.93333 55.2 6C61.2 9.66666 64.2 14.9667 64.2 21.9ZM43.1 24.7C43.1 21.9667 40.2667 20.6 34.6 20.6C32.3333 20.6 30 20.7 27.6 20.9V34.1C31.2667 33.5667 34.4333 32.7 37.1 31.5C41.1 29.7 43.1 27.4333 43.1 24.7ZM88.7391 5.2C87.8724 17.4 87.4391 28.5667 87.4391 38.7C87.4391 48.6333 87.5724 56.4333 87.8391 62.1L70.0391 62.7C69.5724 55.3 69.3391 47.1333 69.3391 38.2C69.3391 29.2667 69.7057 18.0333 70.4391 4.5L88.7391 5.2ZM147.439 10.2C141.972 18.3333 136.639 26 131.439 33.2C137.239 40.8667 142.539 47.6667 147.339 53.6L134.039 64.2C129.772 59 125.339 53.4333 120.739 47.5C116.072 53.5 111.506 59.2 107.039 64.6L93.8391 53.9C98.7724 47.8333 104.172 40.9333 110.039 33.2C104.906 26 99.5724 18.3333 94.0391 10.2L108.539 0.299995C112.272 6.03333 116.339 12.0667 120.739 18.4C125.206 12.0667 129.306 6.03333 133.039 0.299995L147.439 10.2ZM199.915 61.1C189.315 62.0333 176.748 62.4667 162.215 62.4L153.615 62.3C152.882 52.1667 152.515 43.1 152.515 35.1C152.515 27.0333 152.782 17.1333 153.315 5.39999L197.915 4.8L198.115 22.2L171.215 23.1L171.015 26L198.315 25.8L198.715 39.7L171.215 40.5L171.415 43.8L199.215 42.6L199.915 61.1ZM264.942 6.6L263.842 61.6L242.842 61.3L226.042 33.6C226.176 40.3333 226.309 45.1 226.442 47.9C226.642 53.2333 226.976 57.9667 227.442 62.1L208.342 61.2C207.476 52.8667 207.042 44.1333 207.042 35C207.042 25.9333 207.109 16.1667 207.242 5.7L229.742 5L246.242 35.3L247.342 6L264.942 6.6ZM321.419 20.6L306.919 20.9L305.619 64.2L287.919 64.1L287.419 21.3L271.019 21.7L271.419 5.1L320.819 4.7L321.419 20.6Z" fill="#FFBE0B"/>
<path d="M53 40.9L51.8669 39.2519L51.8642 39.2538L53 40.9ZM31.2 47.8L29.3724 48.6123L29.9003 49.8H31.2V47.8ZM27.6 39.7L29.4276 38.8877L25.6 39.7H27.6ZM27.6 63.5L27.5778 65.4999L29.6 65.5223V63.5H27.6ZM9.6 63.3L7.60032 63.3356L7.63492 65.2783L9.57778 65.2999L9.6 63.3ZM8.9 24L10.8997 23.9644L10.8546 21.4323L8.40192 22.063L8.9 24ZM2.4 26L0.41662 26.2573L0.738619 28.7394L3.08851 27.8778L2.4 26ZM0 7.5L-0.83378 5.68208L-2.17292 6.29628L-1.98338 7.7573L0 7.5ZM55.2 6L54.1543 7.70488L54.1571 7.70656L55.2 6ZM27.6 20.9L27.4339 18.9069L25.6 19.0597V20.9H27.6ZM27.6 34.1H25.6V36.4119L27.8879 36.0792L27.6 34.1ZM37.1 31.5L36.2793 29.6762L37.1 31.5ZM62.2 21.9C62.2 28.6357 58.9165 34.4053 51.8669 39.2519L54.1331 42.5481C62.0168 37.128 66.2 30.231 66.2 21.9H62.2ZM51.8642 39.2538C45.5209 43.6307 38.6483 45.8 31.2 45.8V49.8C39.485 49.8 47.1458 47.3693 54.1359 42.5462L51.8642 39.2538ZM33.0276 46.9877L29.4276 38.8877L25.7724 40.5123L29.3724 48.6123L33.0276 46.9877ZM25.6 39.7V63.5H29.6V39.7H25.6ZM27.6222 61.5001L9.62222 61.3001L9.57778 65.2999L27.5778 65.4999L27.6222 61.5001ZM11.5997 63.2644L10.8997 23.9644L6.90032 24.0356L7.60032 63.3356L11.5997 63.2644ZM8.40192 22.063C6.01234 22.6775 3.7814 23.3633 1.71149 24.1222L3.08851 27.8778C5.0186 27.17 7.12099 26.5225 9.39808 25.937L8.40192 22.063ZM4.38338 25.7427L1.98338 7.24269L-1.98338 7.7573L0.41662 26.2573L4.38338 25.7427ZM0.83378 9.31791C9.32848 5.42185 21.2347 3.4 36.7 3.4V-0.600002C20.9653 -0.600002 8.40486 1.44481 -0.83378 5.68208L0.83378 9.31791ZM36.7 3.4C43.756 3.4 49.539 4.87411 54.1543 7.70488L56.2457 4.29512C50.861 0.992556 44.3107 -0.600002 36.7 -0.600002V3.4ZM54.1571 7.70656C59.5729 11.0162 62.2 15.6754 62.2 21.9H66.2C66.2 14.2579 62.8271 8.31709 56.2429 4.29343L54.1571 7.70656ZM45.1 24.7C45.1 23.6516 44.8216 22.6483 44.2141 21.7692C43.6178 20.9063 42.7837 20.2769 41.8439 19.8236C40.0184 18.9431 37.5302 18.6 34.6 18.6V22.6C37.3364 22.6 39.0982 22.9402 40.1061 23.4264C40.583 23.6564 40.8114 23.8812 40.9234 24.0433C41.0243 24.1892 41.1 24.3817 41.1 24.7H45.1ZM34.6 18.6C32.2746 18.6 29.8858 18.7026 27.4339 18.9069L27.7661 22.8931C30.1143 22.6974 32.3921 22.6 34.6 22.6V18.6ZM25.6 20.9V34.1H29.6V20.9H25.6ZM27.8879 36.0792C31.692 35.5259 35.0464 34.6173 37.9207 33.3238L36.2793 29.6762C33.8203 30.7827 30.8414 31.6075 27.3121 32.1208L27.8879 36.0792ZM37.9207 33.3238C42.1589 31.4167 45.1 28.6374 45.1 24.7H41.1C41.1 26.2293 40.0411 27.9833 36.2793 29.6762L37.9207 33.3238ZM88.7391 5.2L90.734 5.34172L90.8805 3.28045L88.8155 3.20146L88.7391 5.2ZM87.8391 62.1L87.9064 64.0989L89.9321 64.0306L89.8369 62.006L87.8391 62.1ZM70.0391 62.7L68.043 62.8259L68.1653 64.7643L70.1064 64.6989L70.0391 62.7ZM70.4391 4.5L70.5155 2.50146L68.5485 2.42622L68.442 4.39178L70.4391 4.5ZM86.7441 5.05828C85.8747 17.2962 85.4391 28.5109 85.4391 38.7H89.4391C89.4391 28.6224 89.8701 17.5038 90.734 5.34172L86.7441 5.05828ZM85.4391 38.7C85.4391 48.6452 85.5724 56.4813 85.8413 62.194L89.8369 62.006C89.5724 56.3854 89.4391 48.6214 89.4391 38.7H85.4391ZM87.7717 60.1011L69.9717 60.7011L70.1064 64.6989L87.9064 64.0989L87.7717 60.1011ZM72.0351 62.5741C71.5715 55.2235 71.3391 47.0995 71.3391 38.2H67.3391C67.3391 47.1672 67.5732 55.3765 68.043 62.8259L72.0351 62.5741ZM71.3391 38.2C71.3391 29.3161 71.7039 18.1218 72.4361 4.60822L68.442 4.39178C67.7076 17.9448 67.3391 29.2173 67.3391 38.2H71.3391ZM70.3626 6.49854L88.6626 7.19854L88.8155 3.20146L70.5155 2.50146L70.3626 6.49854ZM147.439 10.2L149.099 11.3157L150.203 9.67313L148.572 8.55191L147.439 10.2ZM131.439 33.2L129.818 32.029L128.952 33.2276L129.844 34.4066L131.439 33.2ZM147.339 53.6L148.586 55.164L150.161 53.9084L148.894 52.3421L147.339 53.6ZM134.039 64.2L132.493 65.4686L133.744 66.993L135.286 65.764L134.039 64.2ZM120.739 47.5L122.32 46.2746L120.742 44.2391L119.16 46.2721L120.739 47.5ZM107.039 64.6L105.78 66.1537L107.318 67.4007L108.58 65.8747L107.039 64.6ZM93.8391 53.9L92.2874 52.6382L91.0236 54.1923L92.5797 55.4537L93.8391 53.9ZM110.039 33.2L111.632 34.4088L112.522 33.2368L111.668 32.0389L110.039 33.2ZM94.0391 10.2L92.9113 8.54827L91.2623 9.67413L92.3855 11.325L94.0391 10.2ZM108.539 0.299995L110.215 -0.791351L109.1 -2.50441L107.411 -1.35174L108.539 0.299995ZM120.739 18.4L119.097 19.5411L120.727 21.8876L122.373 19.5527L120.739 18.4ZM133.039 0.299995L134.172 -1.34809L132.482 -2.50994L131.363 -0.791351L133.039 0.299995ZM145.779 9.08433C140.324 17.2009 135.003 24.849 129.818 32.029L133.06 34.371C138.275 27.151 143.621 19.4658 149.099 11.3157L145.779 9.08433ZM129.844 34.4066C135.654 42.0864 140.968 48.904 145.784 54.8579L148.894 52.3421C144.111 46.4293 138.824 39.6469 133.034 31.9934L129.844 34.4066ZM146.093 52.036L132.793 62.636L135.286 65.764L148.586 55.164L146.093 52.036ZM135.585 62.9314C131.331 57.7471 126.91 52.195 122.32 46.2746L119.158 48.7254C123.768 54.6717 128.213 60.2529 132.493 65.4686L135.585 62.9314ZM119.16 46.2721C114.505 52.2576 109.951 57.9419 105.498 63.3253L108.58 65.8747C113.061 60.4581 117.64 54.7424 122.318 48.7279L119.16 46.2721ZM108.298 63.0463L95.0985 52.3463L92.5797 55.4537L105.78 66.1537L108.298 63.0463ZM95.3908 55.1618C100.341 49.0742 105.755 42.156 111.632 34.4088L108.446 31.9912C102.59 39.7107 97.2036 46.5925 92.2874 52.6382L95.3908 55.1618ZM111.668 32.0389C106.544 24.8521 101.219 17.1976 95.6927 9.07501L92.3855 11.325C97.9261 19.4691 103.268 27.1479 108.411 34.361L111.668 32.0389ZM95.1668 11.8517L109.667 1.95173L107.411 -1.35174L92.9113 8.54827L95.1668 11.8517ZM106.863 1.39134C110.609 7.14338 114.687 13.1934 119.097 19.5411L122.382 17.2589C117.992 10.9399 113.936 4.92328 110.215 -0.791351L106.863 1.39134ZM122.373 19.5527C126.853 13.2018 130.967 7.14788 134.715 1.39134L131.363 -0.791351C127.645 4.91878 123.559 10.9316 119.105 17.2473L122.373 19.5527ZM131.906 1.94808L146.306 11.8481L148.572 8.55191L134.172 -1.34809L131.906 1.94808ZM199.915 61.1L200.09 63.0923L201.985 62.9254L201.913 61.0244L199.915 61.1ZM162.215 62.4L162.192 64.3999L162.206 64.4L162.215 62.4ZM153.615 62.3L151.62 62.4444L151.753 64.2785L153.592 64.2999L153.615 62.3ZM153.315 5.39999L153.288 3.40018L151.403 3.42554L151.317 5.30918L153.315 5.39999ZM197.915 4.8L199.915 4.77701L199.892 2.77322L197.888 2.80018L197.915 4.8ZM198.115 22.2L198.182 24.1989L200.137 24.1335L200.115 22.177L198.115 22.2ZM171.215 23.1L171.148 21.1011L169.344 21.1615L169.22 22.9624L171.215 23.1ZM171.015 26L169.02 25.8624L168.871 28.0158L171.029 27.9999L171.015 26ZM198.315 25.8L200.314 25.7425L200.258 23.7857L198.3 23.8001L198.315 25.8ZM198.715 39.7L198.773 41.6992L200.772 41.641L200.714 39.6425L198.715 39.7ZM171.215 40.5L171.157 38.5008L169.094 38.5609L169.219 40.621L171.215 40.5ZM171.415 43.8L169.419 43.921L169.537 45.8829L171.501 45.7981L171.415 43.8ZM199.215 42.6L201.213 42.5244L201.137 40.5152L199.129 40.6019L199.215 42.6ZM199.739 59.1077C189.218 60.0341 176.716 60.4665 162.224 60.4L162.206 64.4C176.78 64.4668 189.411 64.0326 200.09 63.0923L199.739 59.1077ZM162.238 60.4001L153.638 60.3001L153.592 64.2999L162.192 64.3999L162.238 60.4001ZM155.61 62.1556C154.879 52.0582 154.515 43.041 154.515 35.1H150.515C150.515 43.159 150.884 52.2751 151.62 62.4444L155.61 62.1556ZM154.515 35.1C154.515 27.0738 154.78 17.2062 155.313 5.49081L151.317 5.30918C150.783 17.0605 150.515 26.9928 150.515 35.1H154.515ZM153.342 7.39981L197.942 6.79982L197.888 2.80018L153.288 3.40018L153.342 7.39981ZM195.915 4.82298L196.115 22.223L200.115 22.177L199.915 4.77701L195.915 4.82298ZM198.048 20.2011L171.148 21.1011L171.282 25.0989L198.182 24.1989L198.048 20.2011ZM169.22 22.9624L169.02 25.8624L173.01 26.1376L173.21 23.2376L169.22 22.9624ZM171.029 27.9999L198.329 27.7999L198.3 23.8001L171 24L171.029 27.9999ZM196.316 25.8575L196.716 39.7575L200.714 39.6425L200.314 25.7425L196.316 25.8575ZM198.657 37.7008L171.157 38.5008L171.273 42.4992L198.773 41.6992L198.657 37.7008ZM169.219 40.621L169.419 43.921L173.411 43.679L173.211 40.379L169.219 40.621ZM171.501 45.7981L199.301 44.5981L199.129 40.6019L171.329 41.8019L171.501 45.7981ZM197.216 42.6756L197.916 61.1756L201.913 61.0244L201.213 42.5244L197.216 42.6756ZM264.942 6.6L266.942 6.63999L266.981 4.66835L265.01 4.60116L264.942 6.6ZM263.842 61.6L263.814 63.5998L265.802 63.6282L265.842 61.64L263.842 61.6ZM242.842 61.3L241.132 62.3372L241.706 63.284L242.814 63.2998L242.842 61.3ZM226.042 33.6L227.752 32.5628L223.895 26.2035L224.043 33.6396L226.042 33.6ZM226.442 47.9L228.441 47.8251L228.44 47.815L228.44 47.8049L226.442 47.9ZM227.442 62.1L227.348 64.0978L229.693 64.2083L229.43 61.8756L227.442 62.1ZM208.342 61.2L206.353 61.4069L206.531 63.1169L208.248 63.1978L208.342 61.2ZM207.242 5.7L207.18 3.70096L205.267 3.76049L205.242 5.67452L207.242 5.7ZM229.742 5L231.499 4.04351L230.91 2.9627L229.68 3.00097L229.742 5ZM246.242 35.3L244.486 36.2565L247.968 42.6505L248.241 35.375L246.242 35.3ZM247.342 6L247.41 4.00116L245.418 3.93325L245.344 5.92496L247.342 6ZM262.943 6.56001L261.843 61.56L265.842 61.64L266.942 6.63999L262.943 6.56001ZM263.871 59.6002L242.871 59.3002L242.814 63.2998L263.814 63.5998L263.871 59.6002ZM244.552 60.2628L227.752 32.5628L224.332 34.6371L241.132 62.3372L244.552 60.2628ZM224.043 33.6396C224.176 40.373 224.31 45.1645 224.444 47.9951L228.44 47.8049C228.308 45.0355 228.175 40.2936 228.042 33.5604L224.043 33.6396ZM224.444 47.9749C224.645 53.345 224.981 58.1298 225.455 62.3244L229.43 61.8756C228.97 57.8035 228.639 53.1216 228.441 47.8251L224.444 47.9749ZM227.536 60.1022L208.436 59.2022L208.248 63.1978L227.348 64.0978L227.536 60.1022ZM210.331 60.9931C209.473 52.7343 209.042 44.0703 209.042 35H205.042C205.042 44.1963 205.479 52.999 206.353 61.4069L210.331 60.9931ZM209.042 35C209.042 25.943 209.109 16.1849 209.242 5.72547L205.242 5.67452C205.109 16.1484 205.042 25.9237 205.042 35H209.042ZM207.304 7.69903L229.804 6.99903L229.68 3.00097L207.18 3.70096L207.304 7.69903ZM227.986 5.95649L244.486 36.2565L247.999 34.3435L231.499 4.04351L227.986 5.95649ZM248.241 35.375L249.341 6.07503L245.344 5.92496L244.244 35.225L248.241 35.375ZM247.274 7.99884L264.874 8.59883L265.01 4.60116L247.41 4.00116L247.274 7.99884ZM321.419 20.6L321.46 22.5996L323.494 22.5575L323.417 20.5246L321.419 20.6ZM306.919 20.9L306.877 18.9004L304.977 18.9398L304.92 20.84L306.919 20.9ZM305.619 64.2L305.607 66.2L307.559 66.211L307.618 64.26L305.619 64.2ZM287.919 64.1L285.919 64.1234L285.942 66.0889L287.907 66.1L287.919 64.1ZM287.419 21.3L289.419 21.2766L289.395 19.2512L287.37 19.3006L287.419 21.3ZM271.019 21.7L269.019 21.6518L268.969 23.7506L271.068 23.6994L271.019 21.7ZM271.419 5.1L271.403 3.10006L269.466 3.11575L269.419 5.05182L271.419 5.1ZM320.819 4.7L322.817 4.62458L322.744 2.68434L320.803 2.70006L320.819 4.7ZM321.377 18.6004L306.877 18.9004L306.96 22.8996L321.46 22.5996L321.377 18.6004ZM304.92 20.84L303.62 64.14L307.618 64.26L308.918 20.96L304.92 20.84ZM305.63 62.2L287.93 62.1L287.907 66.1L305.607 66.2L305.63 62.2ZM289.919 64.0766L289.419 21.2766L285.419 21.3234L285.919 64.1234L289.919 64.0766ZM287.37 19.3006L270.97 19.7006L271.068 23.6994L287.468 23.2994L287.37 19.3006ZM273.018 21.7482L273.418 5.14818L269.419 5.05182L269.019 21.6518L273.018 21.7482ZM271.435 7.09993L320.835 6.69993L320.803 2.70006L271.403 3.10006L271.435 7.09993ZM318.82 4.77542L319.42 20.6754L323.417 20.5246L322.817 4.62458L318.82 4.77542Z" fill="black"/>
</g>
<defs>
<filter id="filter0_d_1_536" x="0" y="0.299988" width="325.419" height="68.3" filterUnits="userSpaceOnUse" color-interpolation-filters="sRGB">
<feFlood flood-opacity="0" result="BackgroundImageFix"/>
<feColorMatrix in="SourceAlpha" type="matrix" values="0 0 0 0 0 0 0 0 0 0 0 0 0 0 0 0 0 0 127 0" result="hardAlpha"/>
<feOffset dx="4" dy="4"/>
<feComposite in2="hardAlpha" operator="out"/>
<feColorMatrix type="matrix" values="0 0 0 0 0 0 0 0 0 0 0 0 0 0 0 0 0 0 1 0"/>
<feBlend mode="normal" in2="BackgroundImageFix" result="effect1_dropShadow_1_536"/>
<feBlend mode="normal" in="SourceGraphic" in2="effect1_dropShadow_1_536" result="shape"/>
</filter>
</defs>
</svg>
