<svg width="67" height="38" viewBox="0 0 67 38" fill="none" xmlns="http://www.w3.org/2000/svg">
<g clip-path="url(#clip0_33_1971)">
<path d="M63.9005 0.395047C60.1842 3.02905 57.1037 6.29053 54.8401 9.98766C51.5863 6.77779 48.2155 3.66255 44.7279 0.641976C44.3865 0.34418 43.9253 0.177091 43.4446 0.177091C42.964 0.177091 42.5028 0.34418 42.1613 0.641976C39.0107 3.68525 36.0829 6.90158 33.3955 10.2716C31.0112 7.90122 28.3885 5.71603 25.7658 3.55554C24.5737 2.59258 22.8205 0.592592 20.8991 0.679011C18.5568 0.790123 16.5793 3.75308 15.289 5.07407C13.3465 6.93565 11.5384 8.90245 9.87522 10.9629C7.10718 7.22883 3.83403 3.80459 0.127675 0.76544C-0.21956 0.472666 -0.681837 0.309221 -1.16267 0.309221C-1.6435 0.309221 -2.10575 0.472666 -2.45299 0.76544C-6.25245 4.43868 -9.70037 8.38214 -12.7615 12.5555C-13.6451 13.7901 -11.5133 15.3704 -10.3632 14.1852C-7.20754 10.9259 -4.22017 7.51852 -1.05046 4.30864C2.09165 7.05815 4.87214 10.1103 7.23846 13.4074C7.36215 13.5888 7.52569 13.7467 7.71949 13.8719C7.91329 13.9971 8.13348 14.087 8.36721 14.1364C8.60093 14.1859 8.84351 14.1938 9.08075 14.1598C9.318 14.1257 9.54516 14.0504 9.74897 13.9383C9.93617 13.9429 10.1195 13.8906 10.2679 13.7901C11.9508 12.6799 13.5184 11.4405 14.9523 10.0864C16.2707 8.85184 18.5148 5.72839 20.1838 5.14814C23.3394 4.03703 29.0056 11.0247 31.1375 12.8272C31.4195 13.0727 31.783 13.2327 32.1753 13.2839C32.2299 13.3899 32.3111 13.4835 32.4129 13.5577C32.5147 13.6319 32.6344 13.6847 32.7628 13.7121C32.8913 13.7395 33.0251 13.7407 33.1542 13.7157C33.2833 13.6907 33.4042 13.6402 33.5077 13.5679C37.246 10.7704 40.6189 7.61512 43.5639 4.1605C46.7803 7.04939 49.9126 9.99999 52.9607 13.0123C53.2318 13.2944 53.6112 13.4789 54.0267 13.5309C54.2179 13.6338 54.4421 13.6787 54.6651 13.6586C54.888 13.6385 55.0974 13.5546 55.2609 13.4198C59.1038 9.90124 62.554 6.11111 66.4811 2.64197C68.108 1.16049 65.5975 -0.864212 63.9005 0.395047Z" fill="white"/>
<path d="M63.9004 10.8738C60.1838 13.5123 57.1034 16.7779 54.8401 20.4787C51.5863 17.2688 48.2155 14.1495 44.7279 11.1207C44.3865 10.8229 43.9253 10.6558 43.4446 10.6558C42.9639 10.6558 42.5028 10.8229 42.1613 11.1207C39.0106 14.1682 36.0828 17.3887 33.3955 20.7627C31.0112 18.3923 28.3885 16.1947 25.7658 14.0466C24.5737 13.0713 22.8205 11.0713 20.899 11.1701C18.5568 11.2688 16.5793 14.2441 15.2889 15.5651C13.3466 17.4225 11.5385 19.3852 9.87519 21.4416C7.0982 17.7249 3.8153 14.3211 0.0995971 11.3059C-0.24422 11.0073 -0.70776 10.8399 -1.19072 10.8399C-1.67369 10.8399 -2.13723 11.0073 -2.48104 11.3059C-6.28363 14.9768 -9.73177 18.9205 -12.7896 23.096C-13.6732 24.3305 -11.5414 25.8984 -10.3913 24.7256C-7.2356 21.454 -4.24822 18.059 -1.07852 14.7873C2.06711 17.5386 4.84786 20.5952 7.21039 23.8985C7.3354 24.0786 7.49958 24.2353 7.69351 24.3595C7.88744 24.4838 8.10731 24.5731 8.34052 24.6224C8.57373 24.6717 8.8157 24.6801 9.05257 24.6469C9.28944 24.6138 9.51656 24.5398 9.72092 24.4293C9.90702 24.4277 10.0881 24.376 10.2398 24.2812C11.9224 23.1706 13.4899 21.9312 14.9243 20.5775C16.2426 19.4046 18.4867 16.2195 20.1557 15.6392C23.3114 14.5157 28.9776 21.5034 31.1094 23.3059C31.3878 23.5558 31.7531 23.7166 32.1473 23.7626C32.2004 23.8696 32.2806 23.9645 32.3818 24.0399C32.483 24.1154 32.6024 24.1695 32.731 24.1981C32.8596 24.2267 32.9939 24.229 33.1237 24.2049C33.2534 24.1808 33.3752 24.1308 33.4797 24.0589C37.218 21.2614 40.5908 18.1061 43.5358 14.6515C46.7522 17.524 49.8845 20.4705 52.9327 23.491C53.2037 23.7731 53.5831 23.9577 53.9986 24.0096C54.1874 24.1189 54.4133 24.1676 54.6382 24.1474C54.863 24.1271 55.0731 24.0392 55.2328 23.8985C59.0757 20.3923 62.5259 16.6022 66.453 13.1207C68.108 11.6392 65.5975 9.62684 63.9004 10.8738Z" fill="white"/>
<path d="M63.9005 21.4153C60.181 24.0465 57.0999 27.3085 54.8401 31.0079C51.5863 27.798 48.2155 24.6787 44.7279 21.6499C44.3865 21.3521 43.9253 21.185 43.4446 21.185C42.964 21.185 42.5028 21.3521 42.1613 21.6499C39.0106 24.6974 36.0828 27.9179 33.3955 31.2919C31.0112 28.9215 28.3885 26.724 25.7658 24.5758C24.5737 23.6129 22.8205 21.6128 20.8991 21.6993C18.5568 21.8104 16.5793 24.7734 15.289 26.0943C13.3467 27.9517 11.5385 29.9144 9.87522 31.9709C7.11064 28.2382 3.83709 24.8177 0.127675 21.7857C-0.21788 21.49 -0.680789 21.3247 -1.16267 21.3247C-1.64454 21.3247 -2.10743 21.49 -2.45299 21.7857C-6.25245 25.4589 -9.70037 29.4024 -12.7615 33.5758C-13.6451 34.8104 -11.5133 36.3906 -10.3632 35.2054C-7.20754 31.9338 -4.22017 28.5388 -1.05046 25.3289C2.09496 28.0758 4.87576 31.1283 7.23846 34.4277C7.36348 34.6079 7.52766 34.7645 7.72159 34.8888C7.91551 35.013 8.13537 35.1023 8.36858 35.1516C8.60179 35.2009 8.84377 35.2093 9.08065 35.1762C9.31752 35.143 9.54462 35.0691 9.74897 34.9585C9.93617 34.9632 10.1195 34.9109 10.2679 34.8104C11.9474 33.6966 13.5147 32.4574 14.9523 31.1067C16.2707 29.8721 18.5148 26.7363 20.1838 26.1684C23.3394 25.0573 29.0056 32.0449 31.1375 33.8351C31.4193 34.083 31.7822 34.2471 32.1753 34.3042C32.2299 34.4102 32.3111 34.5038 32.4129 34.578C32.5147 34.6522 32.6344 34.705 32.7628 34.7323C32.8913 34.7597 33.0251 34.761 33.1542 34.736C33.2833 34.711 33.4042 34.6604 33.5077 34.5881C37.246 31.7906 40.6189 28.6354 43.5639 25.1807C46.7803 28.0696 49.9126 31.0203 52.9607 34.0326C53.2332 34.311 53.6127 34.4912 54.0267 34.5388C54.2148 34.6475 54.4392 34.6969 54.6634 34.679C54.8875 34.661 55.0981 34.5768 55.2609 34.44C59.1038 30.9215 62.554 27.1314 66.4811 23.6622C68.108 22.1684 65.5975 20.1561 63.9005 21.4153Z" fill="white"/>
</g>
<defs>
<clipPath id="clip0_33_1971">
<rect width="80" height="38" fill="white" transform="translate(-13)"/>
</clipPath>
</defs>
</svg>
